<?xml version="1.0" encoding="UTF-8" standalone="no"?>
<svg xmlns="http://www.w3.org/2000/svg" height="96" width="96" version="1.1" viewBox="0 0 96 96">
 <path style="isolation:isolate" fill="#808080" d="m72.89 7.68c-0.8378-0.0092-1.585 0.5279-1.846 1.327l-9.513 29.4h-27.07l-9.513-29.4c-0.2553-0.7746-0.9668-1.305-1.779-1.327-0.8123-0.01547-1.547 0.4824-1.836 1.245l-11.46 30.68c-0.0076 0-0.0076 0.008-0.01529 0.0134l-5.739 15.37c-0.3006 0.8102-0.02494 1.722 0.6734 2.228l42.07 30.72 0.0076 0.0154c0.0076 0 0.0076 0 0.0076 0.008l0.07652 0.044c0.02871 0.0154 0.04972 0.0385 0.08034 0.0517 0.0076 0 0.0076 0.008 0.01529 0.008 0 0 0.0076 0.008 0.01529 0.008 0.0076 0.008 0.01529 0.0154 0.02871 0.0154l0.03058 0.0231c0.03828 0.0132 0.08226 0.0385 0.1263 0.0517v0.008l0.1282 0.044c0.0076 0 0.0076 0 0.01529 0.008 0.0325 0.008 0.06447 0.0182 0.09565 0.0308 0.01529 0 0.03064 0.008 0.05357 0.008 0.03828 0.0154 0.07461 0.0209 0.111 0.0286l0.1492 0.0231c0.07652 0 0.1569 0.008 0.2334 0.008 0.07461-0.008 0.1416-0.008 0.2085-0.0231 0.03064 0 0.05165 0 0.08226-0.008h0.01529c0.01529-0.008 0.02101-0.008 0.03828-0.008 0.0057 0 0.01342-0.006 0.02871-0.006 0.01529-0.008 0.03828-0.008 0.05165-0.0154 0.02579-0.007 0.05137-0.0143 0.07652-0.0231 0.01337 0 0.02101 0 0.02871-0.008h0.02294c0.0673-0.022 0.1326-0.0495 0.1951-0.0826 0.0057 0 0.0057 0 0.01337-0.008 0.0076 0 0.01529 0 0.02294-0.008l0.044-0.0209c0.04108-0.0215 0.08129-0.0446 0.1205-0.0691 0.01337-0.006 0.02101-0.0132 0.02871-0.0209 0.0076 0 0.01529-0.008 0.02294-0.008 0.03058-0.0231 0.0593-0.0385 0.08991-0.0596l0.01529-0.0231 42.07-30.71c0.6945-0.5108 0.9642-1.419 0.6639-2.228l-5.724-15.31c-0.0088-0.0167-0.01375-0.035-0.0154-0.0538l-11.48-30.58c-0.273-0.74-0.975-1.24-1.763-1.25zm-57.28 34.53h16.08l11.2 34.6zm48.71 0h16.08l-27.28 34.6zm-52.06 1.936 25.59 32.45-29.62-21.63zm71.5 0 4.034 10.82-29.62 21.63z"/>
</svg>
