<svg xmlns="http://www.w3.org/2000/svg" width="96" height="96" viewBox="0 0 96 96"><g color="#000"><path overflow="visible" fill="none" d="M96 0v96H0V0z"/><path style="line-height:normal;font-variant-ligatures:normal;font-variant-position:normal;font-variant-caps:normal;font-variant-numeric:normal;font-variant-alternates:normal;font-feature-settings:normal;text-indent:0;text-align:start;text-decoration-line:none;text-decoration-style:solid;text-decoration-color:#000000;text-transform:none;text-orientation:mixed;shape-padding:0;isolation:auto;mix-blend-mode:normal" d="M33.414 7.586l-2.828 2.828 13.586 13.584H19.988l-.01.002c-5.034.058-8.715-.12-11.726 1.54-1.506.832-2.697 2.237-3.356 3.99C4.238 31.287 4 33.37 4 36V76c0 2.63.238 4.712.896 6.467.66 1.754 1.85 3.16 3.356 3.99 3.01 1.66 6.692 1.485 11.725 1.543H76.022c5.034-.058 8.715.118 11.726-1.543 1.506-.83 2.697-2.236 3.356-3.99C91.762 80.712 92 78.63 92 76V35.998c0-2.63-.238-4.712-.896-6.467-.66-1.753-1.85-3.158-3.356-3.99-3.01-1.66-6.692-1.482-11.725-1.54l-.01-.002H51.827l13.584-13.584-2.828-2.828L47.998 22.17 33.414 7.586zM20 27.998h44c5.038.06 8.352.237 9.816 1.045.734.405 1.153.855 1.543 1.895.39 1.04.64 2.69.64 5.06V76c0 2.37-.25 4.02-.64 5.06s-.81 1.49-1.544 1.895c-1.464.808-4.778.986-9.816 1.045H20c-5.038-.06-8.352-.237-9.816-1.045-.734-.405-1.15-.855-1.54-1.894C8.25 80.02 8 78.37 8 76V35.998c0-2.37.252-4.02.643-5.06.39-1.04.807-1.49 1.54-1.895 1.465-.808 4.78-.986 9.817-1.045zM84 34a3 3 0 0 1 3 3 3 3 0 0 1-3 3 3 3 0 0 1-3-3 3 3 0 0 1 3-3zm0 12a3 3 0 0 1 3 3 3 3 0 0 1-3 3 3 3 0 0 1-3-3 3 3 0 0 1 3-3z" font-family="sans-serif" white-space="normal" overflow="visible" solid-color="#000000" fill="gray"/></g></svg>