<svg xmlns="http://www.w3.org/2000/svg" viewBox="0 0 96 96"><g transform="matrix(0 -.9996 -1 0 441.362 437.83)" color="#000"><rect width="96.038" height="96" x="-438.002" y="345.362" fill="none" transform="scale(-1 1)" overflow="visible"/><path fill="gray" d="M389.983 345.36c-13.236.002-24.01 10.77-24.01 24v.005c.007 6.803 2.974 13.208 8.004 17.74v12.503c-5.033 4.535-8 10.946-8.004 17.753 0 13.233 10.774 24.003 24.01 24.003 13.236 0 24.01-10.77 24.01-24.002v-48c0-13.23-10.774-23.998-24.01-24zm0 4.003c11.075 0 20.008 8.93 20.008 19.998v48c0 11.07-8.932 20-20.007 20-11.074 0-20.008-8.93-20.008-20 .004-5.966 2.67-11.615 7.276-15.413l.727-.6v-15.98l-.726-.6c-4.6-3.796-7.268-9.443-7.275-15.406 0-11.068 8.934-19.997 20.008-19.997z" style="line-height:normal;text-indent:0;text-align:start;text-decoration-line:none;text-decoration-style:solid;text-decoration-color:#000000;text-transform:none;isolation:auto;mix-blend-mode:normal" font-family="sans-serif" white-space="normal" overflow="visible" solid-color="#000000"/><path fill="gray" d="M377.977 415.36v4.003h24.01v-4.002z" style="line-height:normal;text-indent:0;text-align:start;text-decoration-line:none;text-decoration-style:solid;text-decoration-color:#000000;text-transform:none;isolation:auto;mix-blend-mode:normal" font-family="sans-serif" white-space="normal" overflow="visible" solid-color="#000000"/><path fill="gray" d="M387.983 405.36v24h4v-24z" style="line-height:normal;text-indent:0;text-align:start;text-decoration-line:none;text-decoration-style:solid;text-decoration-color:#000000;text-transform:none;isolation:auto;mix-blend-mode:normal" font-family="sans-serif" white-space="normal" overflow="visible" solid-color="#000000"/><ellipse cx="369.362" cy="-399.987" fill="gray" transform="rotate(90)" rx="4" ry="4.002" overflow="visible"/><ellipse cx="379.362" cy="-389.983" fill="gray" ry="4.002" rx="4" transform="rotate(90)" overflow="visible"/><ellipse cx="369.362" cy="-379.979" fill="gray" transform="rotate(90)" rx="4" ry="4.002" overflow="visible"/><ellipse cx="359.362" cy="-389.983" fill="gray" ry="4.002" rx="4" transform="rotate(90)" overflow="visible"/></g></svg>