<svg xmlns="http://www.w3.org/2000/svg" viewBox="0 0 96 96" height="96" width="96"><path color="#000" overflow="visible" fill="none" d="M96 0v96H0V0z"/><path d="M71.213 8.928c-4.84 0-8.807 3.967-8.807 8.806 0 4.84 3.967 8.805 8.807 8.805s8.805-3.966 8.805-8.806c0-4.84-3.965-8.806-8.805-8.806zm0 4c2.678 0 4.805 2.128 4.805 4.806s-2.127 4.805-4.805 4.805-4.807-2.128-4.807-4.806 2.13-4.806 4.807-4.806zM45.178 23.674c-.54.007-1.057.233-1.428.627l-9.752 10.327c-1.895 1.94 1.08 4.75 2.908 2.746l9.016-9.547 7.514 1.522-8.595 18.065-13.908 12.554-15.692-11.49c-2.153-1.584-4.523 1.654-2.363 3.228l16.717 12.24c.625.457 1.458.512 2.138.14l16.57-9.036 15.014 7.733-10.41 18.264c-1.403 2.34 2.178 4.38 3.475 1.98L67.825 62.95c.17-.298.262-.635.264-.98.003-.75-.416-1.442-1.084-1.786l-11.637-9.59 7.177-11.658 3.718 7.906c.38 1.106 1.626 1.65 2.697 1.178l13.815-6.092c.74-.314 1.22-1.04 1.22-1.842 0-1.456-1.508-2.424-2.833-1.818l-11.828 5.214-3.598-14.39s-4.234-3.75-5.51-4.168l-14.683-1.22c-.12-.022-.243-.032-.365-.03z" style="line-height:normal;text-indent:0;text-align:start;text-decoration-line:none;text-decoration-style:solid;text-decoration-color:#000000;text-transform:none;block-progression:tb;isolation:auto;mix-blend-mode:normal" color="#000" font-family="sans-serif" white-space="normal" overflow="visible" solid-color="#000000" fill="gray" fill-rule="evenodd"/></svg>