<svg xmlns="http://www.w3.org/2000/svg" width="96" height="96" viewBox="0 0 96 96"><g color="#000"><path overflow="visible" fill="none" d="M96 0v96H0V0z"/><path style="line-height:normal;font-variant-ligatures:none;font-variant-position:normal;font-variant-caps:normal;font-variant-numeric:normal;font-variant-alternates:normal;font-feature-settings:normal;text-indent:0;text-align:start;text-decoration-line:none;text-decoration-style:solid;text-decoration-color:#000000;text-transform:none;block-progression:tb;shape-padding:0;isolation:auto;mix-blend-mode:normal" d="M3.998 12v72H40c3.9 0 6.404 3.207 6.404 3.207l1.563 2.064 1.603-2.032s2.607-3.176 6.448-3.238H92V12H82v4h5.998v64H55.97c-4.098.06-6.5 1.908-7.958 3.295C46.557 81.88 44.156 80 40 80H8V16h32c3.933 0 6.398 3.2 6.398 3.2L48 21.333l1.6-2.135S52.067 16 56 16h4v46l16-6V12H56c-4.145 0-6.54 1.86-8.002 3.28C46.538 13.86 44.144 12 40 12H3.998zM16 28.002V32h24v-3.998H16zM16 40v3.998h24V40H16zm0 12v4h24v-4H16zm0 12v3.998h24V64H16z" font-family="sans-serif" white-space="normal" overflow="visible" solid-color="#000000" fill="gray"/></g></svg>