<svg xmlns="http://www.w3.org/2000/svg" width="96" height="96" viewBox="0 0 96 96"><g color="#000"><path overflow="visible" fill="none" d="M96 0v96H0V0z"/><path style="line-height:normal;font-variant-ligatures:normal;font-variant-position:normal;font-variant-caps:normal;font-variant-numeric:normal;font-variant-alternates:normal;font-feature-settings:normal;text-indent:0;text-align:start;text-decoration-line:none;text-decoration-style:solid;text-decoration-color:#000000;text-transform:none;text-orientation:mixed;shape-padding:0;isolation:auto;mix-blend-mode:normal" d="M19.977 12c-5.033.058-8.714-.12-11.725 1.54-1.506.832-2.697 2.237-3.356 3.99C4.238 19.287 4 21.37 4 24v52c0 2.63.238 4.712.896 6.467.66 1.754 1.85 3.16 3.356 3.99 3.01 1.66 6.692 1.485 11.725 1.543H76.022c5.034-.058 8.715.118 11.726-1.543 1.506-.83 2.697-2.236 3.356-3.99C91.762 80.712 92 78.63 92 76V24c0-2.63-.238-4.714-.896-6.47-.66-1.753-1.85-3.158-3.356-3.99-3.01-1.66-6.692-1.482-11.725-1.54H19.978zM20 16h56c5.038.06 8.352.237 9.816 1.045.734.405 1.153.853 1.543 1.892.39 1.04.64 2.693.64 5.063v52c0 2.37-.25 4.023-.64 5.063s-.81 1.487-1.544 1.892c-1.464.808-4.778.986-9.816 1.045H20c-5.038-.06-8.352-.237-9.816-1.045-.734-.405-1.15-.853-1.54-1.892C8.25 80.022 8 78.37 8 76V24c0-2.37.252-4.023.643-5.063.39-1.04.807-1.487 1.54-1.892C11.65 16.237 14.964 16.06 20 16zm-2.688 7.96L16 27.91l13.324 5.344L16 38.6l1.313 3.947 17.142-7.258v-4.07l-17.142-7.26zm17.63 24.01V52H54.83v-4.03H34.94z" font-family="sans-serif" white-space="normal" overflow="visible" solid-color="#000000" fill="gray"/></g></svg>