<svg xmlns="http://www.w3.org/2000/svg" viewBox="0 0 96 96" height="96" width="96"><g color="#000"><path overflow="visible" fill="none" d="M96 0v96H0V0z"/><path d="M29.428 8C17.753 8 8.254 17.34 8 28.953c0 5.39 1.413 9.594 2.857 13.48.51 1.205 1.065 2.39 1.645 3.567H8c-2.668 0-2.668 4 0 4h6.64l-2.132-4h18.68l5.2-5.057a2 2 0 0 1 3.333.936l3.87 15.003 4.752-30.522a2 2 0 0 1 3.943-.06l4.313 22.98 6.547-3.09A2 2 0 0 1 64 46h19.498c.58-1.177 1.136-2.362 1.645-3.566C86.587 38.547 88 34.342 88 28.954 87.746 17.338 78.247 8 66.572 8 58.63 8 51.702 12.325 48 18.744 44.3 12.324 37.37 8 29.428 8zm-14.79 42C22.014 62.876 33.617 74.498 48 88c14.384-13.502 25.987-25.124 33.36-38H88c1.104.015 2.01-.865 2.027-1.97.018-1.126-.9-2.045-2.027-2.03h-4.5l-2.148 4H64.447l-8.482 4.004a2 2 0 0 1-2.82-1.438l-2.643-14.078-4.45 28.594a2 2 0 0 1-3.915.19l-5.43-21.06-3.312 3.222A2 2 0 0 1 32 50H14.64z" overflow="visible" fill="gray"/></g></svg>