<svg xmlns="http://www.w3.org/2000/svg" width="96" height="96" viewBox="0 0 96 96"><path color="#000" overflow="visible" fill="none" d="M96 0v96H0V0z"/><path d="M80.01 32V20H68z" color="#000" overflow="visible" fill="gray"/><path style="line-height:125%;-inkscape-font-specification:Ubuntu;text-align:center" d="M15.988 39v49H68v-4H20V38zM76 38v50h4.012L80 38z" font-size="15" font-family="Ubuntu" letter-spacing="0" word-spacing="0" text-anchor="middle" fill="gray"/><path style="line-height:normal;font-variant-ligatures:none;font-variant-position:normal;font-variant-caps:normal;font-variant-numeric:normal;font-variant-alternates:normal;font-feature-settings:normal;text-indent:0;text-align:start;text-decoration-line:none;text-decoration-style:solid;text-decoration-color:#000000;text-transform:none;block-progression:tb;shape-padding:0;isolation:auto;mix-blend-mode:normal" d="M91.43 48.602l-2.86 2.794L48 9.862 7.43 51.396l-2.86-2.794L48 4.138l43.43 44.464z" color="#000" font-family="sans-serif" white-space="normal" overflow="visible" solid-color="#000000" fill="gray"/><path style="line-height:125%;-inkscape-font-specification:Ubuntu;text-align:end" d="M48 53.238c1.016-.254 2.365-.524 4.048-.81 1.682-.285 3.62-.428 5.81-.428 1.967 0 3.602.286 4.904.857 1.3.54 2.333 1.318 3.095 2.334.794.985 1.35 2.175 1.667 3.572.317 1.397.476 2.936.476 4.62V88H48z" font-family="Ubuntu" letter-spacing="0" word-spacing="0" text-anchor="end" fill="gray"/></svg>