<svg xmlns="http://www.w3.org/2000/svg" width="96" height="96" viewBox="0 0 96 96"><path d="M80.527 3.053c-1.125-.012-2.62.164-4.61.463L41.976 8.84c-7.996 1.703-7.996 2.233-7.996 8.987V73.17c-.59-.414-1.17-.83-1.78-1.238v.002c-2.54-1.702-5.247-2.914-8.884-2.914-4.554 0-7.27 1.745-8.916 4.042-1.644 2.297-2.19 5.192-2.19 7.43 0 2.7.923 5.58 2.922 7.775 2 2.195 5.073 3.733 9.492 3.733 4.99 0 8.5-1.394 10.485-4.116 1.56-2.142 2.424-5.004 2.733-8.535v-.011c.043-.43.074-.87.1-1.322.043-.698.034-2.004.034-2.004V34.05c0-5.994 0-6.352 7.997-7.72l25.954-3.954c8.01-1.05 8.012-.314 8.012 4.182v38.618c-.59-.413-1.172-.83-1.782-1.237-2.54-1.702-5.246-2.913-8.882-2.913-4.555 0-7.272 1.744-8.916 4.04-1.644 2.3-2.19 5.194-2.19 7.432 0 2.698.922 5.58 2.922 7.774 2 2.195 5.072 3.733 9.49 3.733 4.99 0 8.502-1.394 10.486-4.116 1.562-2.14 2.426-5.003 2.734-8.534v-.01c.043-.428.074-.868.1-1.32.043-.7.034-2.005.034-2.005V10.09c0-5.258-.034-7-3.41-7.037z" style="line-height:125%;-inkscape-font-specification:Ubuntu;text-align:center" font-size="15" font-family="Ubuntu" letter-spacing="0" word-spacing="0" text-anchor="middle" fill="gray"/><path color="#000" overflow="visible" fill="none" d="M96 0v96H0V0z"/></svg>