<svg xmlns="http://www.w3.org/2000/svg" width="96" height="96" viewBox="0 0 96 96"><g color="#000"><path overflow="visible" fill="none" d="M96 0v96H0V0z"/><path style="line-height:normal;font-variant-ligatures:normal;font-variant-position:normal;font-variant-caps:normal;font-variant-numeric:normal;font-variant-alternates:normal;font-feature-settings:normal;text-indent:0;text-align:start;text-decoration-line:none;text-decoration-style:solid;text-decoration-color:#000000;text-transform:none;text-orientation:mixed;shape-padding:0;isolation:auto;mix-blend-mode:normal" d="M19.976 12c-5.032.06-8.713-.12-11.724 1.542-1.506.83-2.697 2.235-3.356 3.99C4.238 19.287 4 21.37 4 24.002v52c0 2.63.238 4.71.896 6.466.66 1.754 1.85 3.16 3.356 3.99 3.01 1.66 6.692 1.485 11.724 1.543h56.048c5.033-.057 8.714.12 11.725-1.542 1.505-.83 2.697-2.236 3.355-3.99.66-1.755.897-3.837.897-6.467V24c0-2.63-.238-4.713-.897-6.468-.658-1.755-1.85-3.16-3.355-3.99-3.01-1.66-6.692-1.483-11.725-1.54H19.99zM20 16h56c5.038.06 8.352.238 9.816 1.046.734.405 1.153.853 1.543 1.892.39 1.04.64 2.693.64 5.063v52c0 2.37-.25 4.024-.64 5.063-.39 1.04-.81 1.488-1.544 1.893-1.464.808-4.778.986-9.816 1.045H20c-5.04-.058-8.352-.236-9.817-1.044-.733-.405-1.15-.853-1.54-1.893C8.252 80.023 8 78.37 8 76V24c0-2.37.252-4.022.642-5.062s.808-1.487 1.54-1.892C11.65 16.238 14.963 16.06 20 16z" font-family="sans-serif" white-space="normal" overflow="visible" solid-color="#000000" fill="gray"/><path overflow="visible" fill="gray" d="M16 22h64v8H16zM16 34v28h29V34H16zm4 4h21v20H20V38zM52 34h28v4H52zM52 42h16v4H52zM52 50h28v4H52zM52 58h28v4H52zM52 74h16v4H52zM52 66h28v4H52zM16 66h28v4H16zM16 74h28v4H16z"/></g></svg>