<svg xmlns="http://www.w3.org/2000/svg" width="96" height="96" viewBox="0 0 96 96"><path color="#000" overflow="visible" fill="none" d="M96 0v96H0V0z"/><path style="line-height:normal;font-variant-ligatures:none;font-variant-position:normal;font-variant-caps:normal;font-variant-numeric:normal;font-variant-alternates:normal;font-feature-settings:normal;text-indent:0;text-align:start;text-decoration-line:none;text-decoration-style:solid;text-decoration-color:#000000;text-transform:none;block-progression:tb;shape-padding:0;isolation:auto;mix-blend-mode:normal" d="M23.988 8h-.012c-5.032.06-8.713-.12-11.724 1.542-1.506.83-2.697 2.235-3.356 3.99C8.238 15.287 8 17.368 8 20v56c0 2.63.238 4.713.896 6.468.66 1.754 1.85 3.16 3.356 3.99 3.01 1.66 6.692 1.485 11.724 1.543h48.048c5.033-.057 8.714.12 11.725-1.542 1.505-.83 2.697-2.236 3.355-3.99.66-1.755.897-3.837.897-6.467V20c0-2.632-.238-4.713-.897-6.468-.658-1.755-1.85-3.16-3.355-3.99-3.01-1.66-6.692-1.483-11.725-1.54l-.012-.003H23.99zM24 12h48c5.038.058 8.352.236 9.816 1.044.734.405 1.153.855 1.543 1.894.39 1.04.64 2.69.64 5.06v56.003c0 2.37-.25 4.022-.64 5.06-.39 1.04-.81 1.49-1.544 1.896-1.464.808-4.778.986-9.816 1.045H24c-5.04-.058-8.352-.236-9.817-1.044-.733-.405-1.15-.855-1.54-1.895C12.252 80.023 12 78.37 12 76V20c0-2.37.252-4.022.642-5.062s.808-1.49 1.54-1.894c1.466-.808 4.78-.986 9.818-1.045z" color="#000" font-family="sans-serif" white-space="normal" overflow="visible" solid-color="#000000" fill="gray"/><path style="line-height:125%;-inkscape-font-specification:Ubuntu;text-align:center" d="M71.822 32.396L44.642 56.2 28.98 42.77l-2.884 3.26 18.54 19.51L73.903 34.74l-2.08-2.346z" font-size="15" font-family="Ubuntu" letter-spacing="0" word-spacing="0" text-anchor="middle" fill="gray"/></svg>