<svg xmlns="http://www.w3.org/2000/svg" width="96" height="96" viewBox="0 0 96 96"><g color="#000"><path overflow="visible" fill="none" d="M96 0v96H0V0z"/><path style="line-height:normal;text-indent:0;text-align:start;text-decoration-line:none;text-decoration-style:solid;text-decoration-color:#000000;text-transform:none;block-progression:tb;isolation:auto;mix-blend-mode:normal" d="M48 4c-6.658 0-12.158 5.484-15.947 13.44-.255.537-.503 1.09-.744 1.65-.608-.072-1.208-.133-1.8-.18-8.786-.697-16.285 1.324-19.614 7.09-3.328 5.766-1.33 13.273 3.666 20.533.337.49.69.978 1.055 1.467-.365.49-.72.978-1.056 1.467C8.565 56.727 6.567 64.234 9.896 70c3.328 5.766 10.83 7.787 19.615 7.09.592-.047 1.192-.108 1.8-.18.24.56.488 1.11.743 1.647C35.843 86.514 41.343 92 48 92c6.658 0 12.158-5.486 15.947-13.443.255-.536.5-1.086.742-1.647.606.072 1.208.133 1.8.18 8.786.697 16.287-1.324 19.615-7.09 3.33-5.766 1.33-13.273-3.668-20.533-.336-.49-.69-.976-1.054-1.465.365-.49.72-.98 1.056-1.47 4.996-7.26 6.994-14.766 3.665-20.532-3.328-5.766-10.83-7.79-19.615-7.092-.592.047-1.194.11-1.8.182-.242-.56-.488-1.113-.743-1.65C60.157 9.485 54.657 4 48 4zm0 4c4.388 0 8.886 3.916 12.336 11.16.09.19.175.39.264.582-4.018.793-8.263 2.073-12.598 3.824-4.337-1.752-8.584-3.03-12.604-3.822.09-.194.176-.394.266-.584C39.114 11.916 43.612 8 48 8zM26.307 22.777c.924 0 1.887.04 2.886.12.21.016.425.042.637.062-1.323 3.876-2.34 8.192-2.99 12.823-3.685 2.88-6.915 5.92-9.61 9.002-.125-.173-.256-.347-.375-.52C12.307 37.656 11.165 31.8 13.36 28c1.92-3.325 6.48-5.225 12.947-5.223zm43.386 0c6.47-.002 11.028 1.898 12.948 5.223 2.195 3.8 1.05 9.656-3.497 16.266-.12.172-.25.345-.372.517-2.695-3.084-5.924-6.122-9.61-9.002-.65-4.63-1.668-8.945-2.99-12.82.212-.02.428-.047.637-.064 1-.08 1.962-.118 2.886-.12zm-35.826.744c2.82.52 5.81 1.318 8.893 2.373-1.918.93-3.842 1.947-5.76 3.054-1.917 1.107-3.76 2.262-5.523 3.457.627-3.195 1.43-6.182 2.39-8.883zm28.264 0c.962 2.7 1.766 5.688 2.393 8.882-1.763-1.194-3.605-2.35-5.52-3.455-1.918-1.107-3.842-2.126-5.76-3.056 3.08-1.054 6.07-1.85 8.888-2.37zM48.003 27.93c2.976 1.27 5.993 2.748 9 4.484 3.007 1.736 5.792 3.61 8.38 5.55C65.77 41.178 66 44.528 66 48s-.23 6.825-.617 10.04c-2.59 1.94-5.377 3.814-8.383 5.55-3.007 1.736-6.024 3.21-9 4.482-2.976-1.27-5.992-2.748-8.998-4.484-3.007-1.736-5.795-3.61-8.385-5.553C30.23 54.822 30 51.472 30 48c0-3.472.23-6.822.617-10.035 2.59-1.942 5.376-3.817 8.383-5.553 3.008-1.736 6.025-3.213 9.002-4.484zM48 40a8 8 0 0 0-8 8 8 8 0 0 0 8 8 8 8 0 0 0 8-8 8 8 0 0 0-8-8zm-21.768 1.484C26.08 43.61 26 45.784 26 48c0 2.214.08 4.39.232 6.516-2.454-2.14-4.64-4.333-6.498-6.516 1.86-2.183 4.044-4.375 6.498-6.516zm43.536 0c2.453 2.14 4.64 4.333 6.498 6.516-1.86 2.183-4.044 4.374-6.498 6.516C69.92 52.39 70 50.214 70 48c0-2.215-.08-4.39-.232-6.516zm-52.54 9.733c2.697 3.084 5.927 6.12 9.612 9 .65 4.63 1.665 8.947 2.988 12.824-.21.02-.426.047-.635.064-7.998.634-13.64-1.304-15.834-5.104-2.195-3.8-1.05-9.656 3.497-16.266.12-.172.25-.345.372-.517zm61.543 0c.125.173.254.347.373.52 4.548 6.61 5.694 12.463 3.5 16.263-2.194 3.8-7.838 5.738-15.836 5.104-.21-.017-.425-.043-.637-.063 1.323-3.875 2.34-8.19 2.99-12.82 3.685-2.88 6.915-5.92 9.61-9.003zm-47.293 12.38c1.763 1.194 3.608 2.35 5.525 3.456 1.917 1.107 3.84 2.126 5.756 3.056-3.08 1.054-6.072 1.85-8.89 2.37-.962-2.7-1.764-5.69-2.39-8.884zm33.046 0c-.627 3.195-1.43 6.184-2.392 8.883-2.818-.518-5.806-1.316-8.886-2.37 1.917-.93 3.84-1.95 5.756-3.057 1.916-1.106 3.76-2.26 5.523-3.455zM48 72.435c4.336 1.752 8.58 3.03 12.6 3.824-.09.193-.174.39-.264.58C56.886 84.082 52.388 88 48 88s-8.886-3.918-12.336-11.162c-.09-.19-.175-.388-.264-.58 4.02-.793 8.264-2.073 12.6-3.824z" font-family="sans-serif" white-space="normal" overflow="visible" solid-color="#000000" fill="gray"/></g></svg>