<svg xmlns="http://www.w3.org/2000/svg" width="96" height="96" viewBox="0 0 96 96"><path color="#000" overflow="visible" fill="none" d="M96 0v96H0V0z"/><path color="#000" overflow="visible" fill="gray" d="M40 88h16v4H40z"/><path style="line-height:normal;-inkscape-font-specification:sans-serif;text-indent:0;text-align:start;text-decoration-line:none;text-transform:none;block-progression:tb" d="M48 21c-14.876 0-27 12.097-27 26.94 0 9.313 4.774 17.518 12 22.355v4.725c0 1.663.107 3.08.594 4.46.486 1.378 1.552 2.694 2.843 3.397C39.02 84.283 41.5 84 45 84h6c3.5 0 5.98.283 8.562-1.123 1.292-.703 2.358-2.02 2.844-3.398.487-1.38.594-2.797.594-4.46v-4.725c7.226-4.837 12-13.042 12-22.354C75 33.098 62.876 21 48 21zm0 4c12.705 0 23 10.267 23 22.945 0 8.67-4.892 16.078-12 19.973v7.09c0 .97-.157 1.912-.656 2.752-.5.84-1.337 1.436-2.145 1.738-1.616.604-3.2.502-5.2.502h-6c-2 0-3.586.102-5.2-.502-.81-.302-1.647-.898-2.146-1.738-.5-.84-.656-1.782-.656-2.752v-7.09c-7.108-3.895-12-11.303-12-19.973C24.998 35.267 35.295 25 48 25z" color="#000" font-family="sans-serif" overflow="visible" fill="gray"/><path d="M49.5 68.864l-9.6-21h7.288l-.69-15 9.602 21h-7.39z" fill="gray"/><path style="line-height:125%;-inkscape-font-specification:Ubuntu;text-align:end" d="M51 2v2.317q0 2.27-.37 4.772-.372 2.454-.93 4.91h-3.4q-.558-2.456-.93-4.91Q45 6.586 45 4.27V2h6zM73.598 9.663L72.44 11.67q-1.135 1.965-2.708 3.946-1.55 1.94-3.26 3.79l-2.945-1.7q.746-2.406 1.652-4.72.93-2.35 2.087-4.357l1.135-1.967 5.196 3zM89.337 27.598l-2.006 1.158q-1.965 1.135-4.317 2.065-2.313.907-4.718 1.653l-1.7-2.946q1.848-1.71 3.79-3.26 1.98-1.572 3.986-2.73l1.967-1.135 3 5.196zM94 51h-2.317q-2.27 0-4.772-.37-2.454-.372-4.91-.93v-3.4q2.456-.558 4.91-.93 2.503-.37 4.82-.37H94v6zM86.337 73.598L84.33 72.44q-1.965-1.135-3.946-2.708-1.94-1.55-3.79-3.26l1.7-2.945q2.406.746 4.72 1.652 2.35.93 4.357 2.087l1.967 1.135-3 5.196zM27.598 6.663l1.158 2.006q1.135 1.965 2.065 4.317.907 2.313 1.653 4.718l-2.946 1.7q-1.71-1.848-3.26-3.79-1.572-1.98-2.73-3.986l-1.135-1.967 5.196-3zM9.663 22.402l2.006 1.158q1.965 1.135 3.946 2.708 1.94 1.55 3.79 3.26l-1.7 2.945q-2.406-.746-4.72-1.652-2.35-.93-4.357-2.087l-1.967-1.135 3-5.196zM2 45h2.317q2.27 0 4.772.37 2.454.372 4.91.93v3.4q-2.456.558-4.91.93-2.503.37-4.82.37H2v-6zM6.663 68.402l2.006-1.158q1.965-1.135 4.317-2.065 2.313-.907 4.718-1.653l1.7 2.946q-1.848 1.71-3.79 3.26-1.98 1.572-3.986 2.73l-1.967 1.135-3-5.196z" font-size="15" font-family="Ubuntu" letter-spacing="0" word-spacing="0" text-anchor="end" fill="gray"/></svg>