<svg xmlns="http://www.w3.org/2000/svg" xmlns:xlink="http://www.w3.org/1999/xlink" width="1000" height="500" viewBox="0 0 1000 500"><defs><linearGradient id="d"><stop offset="0" stop-color="#7e7e7e"/><stop offset="1" stop-color="#333"/></linearGradient><linearGradient id="c"><stop offset="0" stop-color="#f9f8f8"/><stop offset=".457" stop-color="#999ea3"/><stop offset=".75" stop-color="#4a5054"/><stop offset="1" stop-color="#4d5b64"/></linearGradient><linearGradient id="b"><stop offset="0" stop-color="#fff" stop-opacity="0"/><stop offset=".5" stop-color="#fff"/><stop offset="1" stop-color="#fff" stop-opacity="0"/></linearGradient><linearGradient id="a"><stop offset="0" stop-color="#f1f3f4"/><stop offset="1" stop-color="#4d5b64"/></linearGradient><linearGradient xlink:href="#a" id="e" x1="384.621" y1="714.612" x2="400.629" y2="783.112" gradientUnits="userSpaceOnUse" gradientTransform="translate(-300.45389,57.87708)"/><linearGradient xlink:href="#b" id="f" x1="326.341" y1="627.922" x2="375.746" y2="701.422" gradientUnits="userSpaceOnUse" gradientTransform="matrix(0.95144401,-0.30782186,0.30782186,0.95144401,-268.04922,147.55308)"/><linearGradient xlink:href="#c" id="h" x1="686.476" y1="761.362" x2="719.537" y2="762.362" gradientUnits="userSpaceOnUse" gradientTransform="matrix(0.87234224,0.48889572,-0.48889572,0.87234224,427.25743,-189.05825)"/><radialGradient xlink:href="#d" id="g" cx="978.892" cy="311.127" fx="978.892" fy="311.127" r="30.25" gradientUnits="userSpaceOnUse"/></defs><g transform="translate(0,-552.36216)"><path style="isolation:auto;mix-blend-mode:normal" color="#000" overflow="visible" solid-color="#000000" fill="#efe8d5" d="M0 552.362h1000v500H0z"/><path style="isolation:auto;mix-blend-mode:normal" d="M761.822 831.112l-7.926.234c.543 7.62 3.95 15.24 1.627 22.862l-71.098 31.897 2.73 6.496 75.193-33.3c4.22-1.87-.056-24.28-.526-28.188z" color="#000" overflow="visible" solid-color="#000000" fill="#333" stroke="#000" stroke-width="2"/><path d="M825.975 859.956c-1.468 20.834-20.178 51.78-36.022 65.046 29.274 2.762 74.37-43.908 36.022-65.046z" fill="#fef430" fill-rule="evenodd" stroke="#cec401" stroke-width="2"/><path d="M775.26 725.132s-78.84 39.94-6.747 87.547c44.415 29.33 64.1-4.4 64.1-4.4-18.536-12.058-17.24-15.12-57.353-83.148z" fill="#219dcf" fill-rule="evenodd" stroke="#187297" stroke-width="2"/><path d="M798.302 707.383s-68.295 33.354-46.295 84.354 99.747 28.818 99.747 28.818c-31.962-37.482-37.104-35.833-53.452-113.172z" fill="#f32c36" fill-rule="evenodd" stroke="#bd0b14" stroke-width="3"/><path style="isolation:auto;mix-blend-mode:normal" d="M810.57 700.688c-3.468 9.306-23.738 25.866-48.34 25.866-14.944 0-7.13-7.83-17.672-23.873-6.813-10.366-16.453-21.76-16.453-31.638 0-25.17 32.342-37.63 56.383-32.412 27.66 6.005 32.307 45.342 26.08 62.058z" color="#000" overflow="visible" solid-color="#000000" fill="#f32c36" stroke="#bd0b14" stroke-width="3"/><path d="M749.69 673.304c5.404-21.687 34.485-33.572 51.5-1.386 11.078 20.954-5.463 42.168-26.163 53.74z" fill="#fff" fill-rule="evenodd"/><ellipse ry="52.5" rx="39" cy="807.739" cx="-72.454" style="isolation:auto;mix-blend-mode:normal" transform="matrix(0.95144401,-0.30782186,0.30782186,0.95144401,0,0)" color="#000" overflow="visible" solid-color="#000000" fill="#333" stroke="#000" stroke-width="3"/><path style="isolation:auto;mix-blend-mode:normal" d="M211.463 840.11c-36.132 48.644-43.91 102.22-36.77 158.39 56.883 24.71 66.493 16.238 108.715 4.294-9.198-35.01 65.89-127.854 12.2-173.292z" color="#000" overflow="visible" solid-color="#000000" fill="#d9a334" stroke="#a67a1f" stroke-width="3.219"/><path d="M181.943 901.513l18.04-3.942 6.363 14.85 16.97-12.02 15.557 14.14 12.02-11.312 11.315 13.435 17.767-9.393-3.043 25.48-14.474 4.94-19.092-12.02-13.435 7.777-11.648-15.978-19.928 10.52-10.85-7.27-11.684 7.94zM194.576 866.98l12.02-.708 9.9 9.9 20.506-5.658 4.95 8.486 8.485-7.778L264.58 879l15.556-11.314 9.9 7.778 8.484-16.97 9.193 11.313 4.95-15.556-12.728-26.87-94.753 19.8z" fill="#b87322" fill-rule="evenodd"/><path d="M772.365 700.91c-3 4-14.818 27.99-18.818 30.99-4 3-9.768-29.93-9.768-29.93z" fill="#c65000" fill-rule="evenodd" stroke="#ed8504" stroke-width="2"/><path d="M736.26 666.42c21.49 7.82 30.94 19.493 37.872 30.954-12.067 15.298-36.154 9.178-54.232 22.243-6.587-19.33-2.406-47.014 16.36-53.198z" fill="#fcac49" fill-rule="evenodd" stroke="#ed8504" stroke-width="2"/><path d="M774.132 697.374c4.773 10.18 14.347 21.695-1.725 33.75-5.146 3.858-12.363 4.918-19.062.896 7.628-11.13 14.328-22.815 20.787-34.646z" fill="#f49100" fill-rule="evenodd" stroke="#ed8504" stroke-width="2"/><path d="M829.558 856.906c1.848 20.804-11.727 54.32-25.27 69.928 29.34-1.906 66.48-55.127 25.27-69.928z" fill="#fef430" fill-rule="evenodd" stroke="#cec401" stroke-width="2"/><path d="M822.787 830.075c5.623 20.115-1.59 55.55-12.05 73.37 28.497-7.24 55.273-66.36 12.05-73.37z" fill="#219dcf" fill-rule="evenodd" stroke="#187297" stroke-width="2"/><path d="M804.547 803.48c12.79 16.51 19.468 52.05 16.5 72.5 23.664-17.45 26.177-82.3-16.5-72.5z" fill="#f32c36" fill-rule="evenodd" stroke="#bd0b14" stroke-width="2"/><path d="M831.702 826.453c10.487 18.062 3.387 60.173-2.27 80.048 25.772-14.155 45.87-84.097 2.27-80.047z" fill="#219dcf" fill-rule="evenodd" stroke="#187297" stroke-width="2"/><path d="M816.235 805.085c14.996 14.538 26.626 48.778 26.575 69.442 20.963-20.62 14.29-85.173-26.575-69.442z" fill="#f32c36" fill-rule="evenodd" stroke="#bd0b14" stroke-width="2"/><path d="M826.76 766.132s-70.84 11.44 1.253 59.047c44.415 29.33 89.1 2.6 89.1 2.6-6.036-6.058-68.74-11.12-90.353-61.648z" fill="#fef430" fill-rule="evenodd" stroke="#cec401" stroke-width="2"/><path style="isolation:auto;mix-blend-mode:normal" d="M292.46 686.493c-11.214 9.604-22.27 19.3-25.642 33.55-6.752-1.073-13.965-1.467-21.614-1.05-29.04 1.585-52.84 15.297-67.352 34.714-6.627-7.334-18.414-16.192-25.94-26.132.978 16.504 4.946 31.817 15.726 44.418-3.546 9.003-5.39 18.632-5.218 28.47.717 41.178 36.275 72.65 85.38 67.646 49.102-5.004 78.12-38.703 79.564-79.86.875-24.963-11.965-47.41-34.71-59.66l-.194-42.097z" color="#000" overflow="visible" solid-color="#000000" fill="#d9a334" stroke="#a67a1f" stroke-width="3.219"/><path d="M280.007 731.54c1.377-14.472 3.805-28.635 10.796-41.455l.583 39.334z" fill="#b87322" fill-rule="evenodd"/><ellipse style="isolation:auto;mix-blend-mode:normal" cx="-5.081" cy="846.714" rx="6.449" ry="3.793" transform="matrix(0.96127727,-0.27558303,0.27558303,0.96127727,0,0)" color="#000" overflow="visible" solid-color="#000000"/><path d="M229.922 818.844c4.574 17.375 27.983 16.848 38.087.928M229.076 819.086c5.287 17.196-10.535 27.473-25.55 17.498M186.124 801.187c8.52 5.348 16.735 6.464 23.858-7.63M236.785 789.222c8.52 5.35 16.735 6.465 23.858-7.63" fill="none" stroke="#000" stroke-width="2.146"/><path style="isolation:auto;mix-blend-mode:normal" d="M146.752 998.586c2.83 14.85 29.26 30.688 48.8 35.27 29.314 6.874 64.375-16.638 89.097-14.85 24.72 1.79 18.762-17.907-6.012-19.09-22.626-1.082-60.773 22.434-78.903 17.727-18.13-4.707-44.988-23.077-25.75-24.446l-1.06-15.202c-14.15 2.096-27.337 11.486-26.173 20.59z" color="#000" overflow="visible" solid-color="#000000" fill="#d9a334" stroke="#a67a1f" stroke-width="3.219"/><path d="M204.74 925.968s20.037 2.285 21.5 22.157c1.023 13.906-19.233 42.958-19.233 42.958 0 3.268 12.852 1.897 24.894 2.5 12.803.64 9.94 14.243 9.94 14.243M262.593 895.073c13.43 7.214 25.53 5.99 36.132-4.708M281.543 899.4c-5.455 67.545-18.687 65.58-15.786 101.183" fill="none" stroke="#a67a1f" stroke-width="2"/><ellipse style="isolation:auto;mix-blend-mode:normal" cx="73.546" cy="807.739" rx="39" ry="52.5" transform="matrix(0.95144401,-0.30782186,0.30782186,0.95144401,0,0)" color="#000" overflow="visible" solid-color="#000000" fill="#333" stroke="#000" stroke-width="3"/><ellipse ry="34.5" rx="25.629" cy="806.739" cx="86.546" style="isolation:auto;mix-blend-mode:normal" transform="matrix(0.95144401,-0.30782186,0.30782186,0.95144401,0,0)" color="#000" overflow="visible" solid-color="#000000" fill="url(#e)"/><path style="isolation:auto;mix-blend-mode:normal" d="M321.926 707.632a34.5 25.63 72.072 0 0-11.83 39.952 34.5 25.63 72.072 0 0 33.135 25.406 34.5 25.63 72.072 0 0 11.83-39.953 34.5 25.63 72.072 0 0-33.134-25.405z" color="#000" overflow="visible" solid-color="#000000" fill="#f1f3f4"/><path style="line-height:normal;text-indent:0;text-align:start;text-decoration-line:none;text-decoration-style:solid;text-decoration-color:#000000;text-transform:none;block-progression:tb;isolation:auto;mix-blend-mode:normal" d="M237.855 625.145c-9.488-.106-19.52 1.414-30.102 4.78-61.44 19.543-74.676 67.31-64.176 125.713 2.454-4.385 4.818-7.81 8.456-10.612-1.443-5.84-2.5-17.684-2.87-23.95 2.737 3.614 11.29 12.83 14.702 16.138-5.3-45.238 1.502-83.054 37.96-95.72 61.396-21.332 104.278 35.95 125.106 99.454l17.634-5.818c-20.124-61.36-55.475-109.407-106.71-109.985z" color="#000" font-family="sans-serif" white-space="normal" overflow="visible" solid-color="#000000" fill="#db3131" stroke="#a81919" stroke-width="2"/><ellipse style="isolation:auto;mix-blend-mode:normal" cx="92.921" cy="807.114" rx="9.879" ry="13.298" transform="matrix(0.95144401,-0.30782186,0.30782186,0.95144401,0,0)" color="#000" overflow="visible" solid-color="#000000" fill="#676767" stroke="#000" stroke-width="2"/><path d="M203.518 637.023c75.913-14.668 104.04 43.998 129.424 106.85" fill="none" stroke="url(#f)" stroke-width="2"/><ellipse style="isolation:auto;mix-blend-mode:normal" cx="779.825" cy="684.625" rx="6.187" ry="6.364" color="#000" overflow="visible" solid-color="#000000"/><path d="M798.76 717.632s-64.34 50.94 7.753 98.547c44.415 29.33 59.6-8.4 59.6-8.4-18.536-12.058-27.24-22.12-67.353-90.148z" fill="#219dcf" fill-rule="evenodd" stroke="#187297" stroke-width="2"/><circle style="isolation:auto;mix-blend-mode:normal" cx="983.535" cy="322.304" r="28.75" transform="matrix(0.87234224,0.48889572,-0.48889572,0.87234224,0,0)" color="#000" overflow="visible" solid-color="#000000" fill="url(#g)" stroke="#171717" stroke-width="3"/><rect style="isolation:auto;mix-blend-mode:normal" width="9.954" height="167.954" x="680.273" y="811.635" rx="5.001" ry="5.251" color="#000" overflow="visible" solid-color="#000000" fill="#333" stroke="#000" stroke-width="3"/><path d="M674.863 774.343l-37.577 75.232 20.5 11.49 46.3-70.344c-8.386-12.537-18.47-16.207-29.223-16.377z" fill="url(#h)" fill-rule="evenodd" stroke="#b5b7ba" stroke-width="3"/><ellipse cy="429.804" cx="983.035" style="isolation:auto;mix-blend-mode:normal" rx="11.945" ry="4.384" transform="matrix(0.87234224,0.48889572,-0.48889572,0.87234224,0,0)" color="#000" overflow="visible" solid-color="#000000" fill="#6b7175" stroke="#575c5f" stroke-width="3"/><path d="M343.126 774.06s23.16 51.91 24.282 95.298c1.122 43.388-50.186 78.806-47.942 110.944 2.244 32.14 54.594 12.503 69.025-9.386 14.527-22.033 53.862-46.558-12.34-40.174-47.17 4.55 8.975 40.174 31.415 43.388 22.44 3.214 57.297 27.902 102.176 10.226 44.88-17.676 156.935-29.956 127.763.576-29.17 30.532-140.18-57.403-180.57-18.837-40.392 38.567 6.98 38.74 60.84 52.386 108.12 27.395 89.196-93.188 128.773-161.565" fill="none" stroke="#000" stroke-width="3" stroke-linecap="round"/><rect y="492.404" x="1046.779" height="69.973" width="10.973" style="isolation:auto;mix-blend-mode:normal" transform="matrix(0.87628959,0.48178475,-0.48178475,0.87628959,0,0)" rx="5.486" ry="5.486" color="#000" overflow="visible" solid-color="#000000" fill="#333" stroke="#000" stroke-width="3"/><rect transform="matrix(-0.87628959,0.48178475,0.48178475,0.87628959,0,0)" style="isolation:auto;mix-blend-mode:normal" width="10.973" height="69.973" x="-153.009" y="1151.36" rx="5.486" ry="5.486" color="#000" overflow="visible" solid-color="#000000" fill="#333" stroke="#000" stroke-width="3"/><path d="M765.515 806.18l-12 20M784.015 810.155l-10.5 19.5" fill="none" stroke="#333" stroke-width="4" stroke-linecap="round"/><rect style="isolation:auto;mix-blend-mode:normal" width="58.994" height="14.287" x="954.384" y="545.91" ry="7.144" rx="6.25" transform="matrix(0.94916056,0.31479237,-0.31479237,0.94916056,0,0)" color="#000" overflow="visible" solid-color="#000000" fill="#dbbb7a" stroke="#d2aa59" stroke-width="2"/><rect transform="matrix(0.94916056,0.31479237,-0.31479237,0.94916056,0,0)" rx="4.454" ry="6.803" y="545.762" x="1004.249" height="14.435" width="9.13" style="isolation:auto;mix-blend-mode:normal" color="#000" overflow="visible" solid-color="#000000" fill="#e6d0a3" stroke="#d2aa59" stroke-width="2"/><path d="M748.51 821.117c-5.98-.087-11.952 5.136-7.424 12.728M756.29 822.532c-5.982-.088-11.954 5.135-7.426 12.728M769.017 827.835c-5.98-.088-11.953 5.135-7.425 12.728M776.795 829.25c-5.98-.09-11.953 5.135-7.425 12.727" fill="none" stroke="#333" stroke-width="4"/><path d="M173.893 957.754l12.197-8.044 16.264 15.557 14.85-13.435 5.656 8.485c-3.797 8.826-7.78 17.558-13.435 25.456l-8.485-7.778-8.486 12.728-8.485-14.143-8.928 9.723c-.82-9.735-1.27-19.285-1.15-28.55zM281.5 911.987l13.625 7.5 11.625-5.75-8.125 23.625-11.25 6.625-9-10.25zM168.125 1002.362l-7.375-.75-.75 5-4.25.25 2.5 6.5 7.25 5.5-.75-6.5 4-.75-1.75-4 6.75-.875zM186.75 1014.737l-4 3.125 3.25 4-5.25 1 1.5 5 11.25 4.25-2.5-4 5.75-2.75-2.75-3.75 3-3zM221 1016.862l-1.75 4.25 2.75 1.5-1.75 6.5 6.125 2 10.125-3 1.75-4.25-6.5-2 1.5-5.75-3.75-1.75zM268 1002.612l3.75 6.75-4.5 2.75 5.25 2.75-4.75 4 20.5-1.5-2.75-3.25 2.75-3.25-4.5-2.75 4.75-5.5c-6.653-1.62-13.514-1.375-20.5 0zM202.625 733.362l-8.375 14.5 5.25 1.5-8.75 9.75 7 4.75-4.75 6.25 10 3.75 7.5-10.75-4.5-1.25 9.25-12.5-6.5-2.5 9-11-5-2.5 6.5-7.5c-5.542 1.55-11.083 4.69-16.625 7.5zM236.308 721.375l-6.058 8.737 3 4-6.5 7.25 7 4.5-7.75 9 9.25 6.5 11.5-8.5-6-7.25 9.25-8.25-4.75-3.75 8.25-6.75-4-6.5c-4.138-.18-8.583.253-13.192 1.013z" fill="#b87322" fill-rule="evenodd"/></g></svg>