<?xml version="1.0" encoding="UTF-8" standalone="no"?>
<!-- Created with Inkscape (http://www.inkscape.org/) -->

<svg
   xmlns:dc="http://purl.org/dc/elements/1.1/"
   xmlns:cc="http://creativecommons.org/ns#"
   xmlns:rdf="http://www.w3.org/1999/02/22-rdf-syntax-ns#"
   xmlns:svg="http://www.w3.org/2000/svg"
   xmlns="http://www.w3.org/2000/svg"
   xmlns:sodipodi="http://sodipodi.sourceforge.net/DTD/sodipodi-0.dtd"
   xmlns:inkscape="http://www.inkscape.org/namespaces/inkscape"
   width="1920"
   height="1080"
   viewBox="0 0 1920 1080"
   id="svg2"
   version="1.1"
   inkscape:version="0.91 r13725"
   sodipodi:docname="telegram-header-clean.svg">
  <defs
     id="defs4" />
  <sodipodi:namedview
     id="base"
     pagecolor="#ffffff"
     bordercolor="#666666"
     borderopacity="1.0"
     inkscape:pageopacity="0.0"
     inkscape:pageshadow="2"
     inkscape:zoom="0.125"
     inkscape:cx="1297.9871"
     inkscape:cy="537.71621"
     inkscape:document-units="px"
     inkscape:current-layer="layer2"
     showgrid="false"
     units="px"
     inkscape:object-nodes="true"
     inkscape:window-width="1861"
     inkscape:window-height="1176"
     inkscape:window-x="59"
     inkscape:window-y="24"
     inkscape:window-maximized="1"
     inkscape:snap-global="false" />
  <metadata
     id="metadata7">
    <rdf:RDF>
      <cc:Work
         rdf:about="">
        <dc:format>image/svg+xml</dc:format>
        <dc:type
           rdf:resource="http://purl.org/dc/dcmitype/StillImage" />
        <dc:title></dc:title>
      </cc:Work>
    </rdf:RDF>
  </metadata>
  <g
     inkscape:groupmode="layer"
     id="layer2"
     inkscape:label="Layer 1">
    <rect
       transform="translate(0,27.637839)"
       style="display:inline;color:#000000;clip-rule:nonzero;overflow:visible;visibility:visible;opacity:1;isolation:auto;mix-blend-mode:normal;color-interpolation:sRGB;color-interpolation-filters:linearRGB;solid-color:#000000;solid-opacity:1;fill:#36ade5;fill-opacity:1;fill-rule:evenodd;stroke:none;stroke-width:2;stroke-linecap:square;stroke-linejoin:miter;stroke-miterlimit:4;stroke-dasharray:16, 16;stroke-dashoffset:0;stroke-opacity:1;color-rendering:auto;image-rendering:auto;shape-rendering:auto;text-rendering:auto;enable-background:accumulate"
       id="rect4147"
       width="1920"
       height="1080"
       x="0"
       y="-27.637838"
       inkscape:export-xdpi="45"
       inkscape:export-ydpi="45" />
    <g
       id="g4526">
      <path
         id="path4756"
         d="M 781.42773 22.857422 A 287.14288 207.14285 0 0 0 494.28516 230 A 287.14288 207.14285 0 0 0 591.99023 385.4375 C 573.57824 455.04709 544.26098 570.02418 554.28516 560 C 563.55083 550.73433 649.21408 479.40894 708.64453 430.11523 A 287.14288 207.14285 0 0 0 781.42773 437.14258 A 287.14288 207.14285 0 0 0 1068.5723 230 A 287.14288 207.14285 0 0 0 781.42773 22.857422 z "
         style="color:#000000;clip-rule:nonzero;display:inline;overflow:visible;visibility:visible;opacity:1;isolation:auto;mix-blend-mode:normal;color-interpolation:sRGB;color-interpolation-filters:linearRGB;solid-color:#000000;solid-opacity:1;fill:#f3f3f3;fill-opacity:1;fill-rule:evenodd;stroke:none;stroke-width:4;stroke-linecap:square;stroke-linejoin:miter;stroke-miterlimit:4;stroke-dasharray:32, 32;stroke-dashoffset:0;stroke-opacity:1;color-rendering:auto;image-rendering:auto;shape-rendering:auto;text-rendering:auto;enable-background:accumulate" />
      <path
         d="m 733.59949,287.49532 q 0,5.15097 -3.43399,8.96651 -3.43398,3.81554 -9.34807,3.81554 -5.91408,0 -9.34807,-3.81554 -3.43398,-3.81554 -3.43398,-8.96651 0,-5.15098 3.43398,-8.96652 3.43399,-3.81554 9.34807,-3.81554 5.91409,0 9.34807,3.81554 3.43399,3.81554 3.43399,8.96652 z m 0,-76.12001 q 0,5.15098 -3.43399,8.96652 -3.43398,3.81554 -9.34807,3.81554 -5.91408,0 -9.34807,-3.81554 -3.43398,-3.81554 -3.43398,-8.96652 0,-5.15097 3.43398,-8.96651 3.43399,-3.81554 9.34807,-3.81554 5.91409,0 9.34807,3.81554 3.43399,3.81554 3.43399,8.96651 z"
         style="font-style:normal;font-variant:normal;font-weight:normal;font-stretch:normal;font-size:medium;line-height:125%;font-family:Ubuntu;-inkscape-font-specification:Ubuntu;letter-spacing:0px;word-spacing:0px;fill:#000000;fill-opacity:1;stroke:none;stroke-width:1px;stroke-linecap:butt;stroke-linejoin:miter;stroke-opacity:1"
         id="path4456"
         inkscape:connector-curvature="0" />
      <path
         d="m 749.26108,232.36078 47.12191,0 0,16.59759 -47.12191,0 0,-16.59759 z"
         style="font-style:normal;font-variant:normal;font-weight:normal;font-stretch:normal;font-size:medium;line-height:125%;font-family:Ubuntu;-inkscape-font-specification:Ubuntu;letter-spacing:0px;word-spacing:0px;fill:#000000;fill-opacity:1;stroke:none;stroke-width:1px;stroke-linecap:butt;stroke-linejoin:miter;stroke-opacity:1"
         id="path4458"
         inkscape:connector-curvature="0" />
      <path
         d="m 830.49927,240.75496 q 0,-24.41944 -7.05875,-45.21413 -7.05875,-20.79469 -20.79469,-38.53695 l 12.59128,-8.58496 q 14.8806,18.12381 23.84712,41.78015 9.15729,23.46557 9.15729,50.55589 0,27.09033 -9.15729,50.74667 -8.96652,23.46557 -23.84712,41.58938 l -12.59128,-8.58497 q 13.73594,-17.74225 20.79469,-38.53694 7.05875,-20.79469 7.05875,-45.21414 z"
         style="font-style:normal;font-variant:normal;font-weight:normal;font-stretch:normal;font-size:medium;line-height:125%;font-family:Ubuntu;-inkscape-font-specification:Ubuntu;letter-spacing:0px;word-spacing:0px;fill:#000000;fill-opacity:1;stroke:none;stroke-width:1px;stroke-linecap:butt;stroke-linejoin:miter;stroke-opacity:1"
         id="path4460"
         inkscape:connector-curvature="0" />
      <path
         style="color:#000000;font-style:normal;font-variant:normal;font-weight:normal;font-stretch:normal;font-size:medium;line-height:normal;font-family:sans-serif;text-indent:0;text-align:start;text-decoration:none;text-decoration-line:none;text-decoration-style:solid;text-decoration-color:#000000;letter-spacing:normal;word-spacing:normal;text-transform:none;direction:ltr;block-progression:tb;writing-mode:lr-tb;baseline-shift:baseline;text-anchor:start;white-space:normal;clip-rule:nonzero;display:inline;overflow:visible;visibility:visible;opacity:1;isolation:auto;mix-blend-mode:normal;color-interpolation:sRGB;color-interpolation-filters:linearRGB;solid-color:#000000;solid-opacity:1;fill:#3f3f3f;fill-opacity:1;fill-rule:evenodd;stroke:none;stroke-width:4;stroke-linecap:square;stroke-linejoin:miter;stroke-miterlimit:4;stroke-dasharray:32, 32;stroke-dashoffset:0;stroke-opacity:1;color-rendering:auto;image-rendering:auto;shape-rendering:auto;text-rendering:auto;enable-background:accumulate"
         d="m 779.44727,49.365234 c -10.73003,0.03027 -21.45126,0.639298 -32.13484,1.615423 -0.10112,7.889257 11.84749,1.435154 17.55444,2.774627 10.94396,-0.533055 21.91528,-0.540184 32.85952,-0.011 1.57866,-7.381468 -9.56614,-3.098092 -14.31834,-4.418018 -1.26907,0.08457 -2.75374,-0.05781 -3.96078,0.03897 z m 45.99218,6.738282 c 11.83912,1.541181 23.62207,3.559421 35.25399,6.259781 2.87105,-7.258354 -9.73886,-4.71816 -14.30084,-7.050803 -6.77168,-1.244985 -13.58026,-2.275302 -20.40635,-3.172002 -0.18227,1.321008 -0.36453,2.642016 -0.5468,3.963024 z M 717.42969,55.142578 c -11.21445,2.018444 -22.31939,4.618967 -33.29513,7.675812 1.8885,8.103138 14.05707,-1.660701 20.57031,-1.041015 4.41375,-1.674426 20.08521,-1.55433 13.26136,-6.72848 l -0.53654,0.09368 z m 170.10547,14.494141 c 11.36806,3.637609 22.57298,7.804485 33.46725,12.687631 3.97182,-6.379469 -8.07293,-6.507712 -12.27434,-9.449311 -6.56135,-2.580076 -13.2326,-4.870101 -19.9405,-7.037106 -0.41747,1.266262 -0.83494,2.532524 -1.25241,3.798786 z m -232.07227,2.71289 c -10.63779,4.097437 -21.07588,8.729163 -31.17579,14.019595 2.98313,7.256376 11.76094,-3.362332 17.63924,-4.077243 4.61686,-3.693602 17.30389,-3.56863 15.79836,-9.657362 0.0779,-2.006107 -1.38298,-0.476915 -2.26181,-0.28499 z M 945.78125,94.875 c 10.34916,5.88593 20.23585,12.58 29.55873,19.98449 5.45551,-5.31293 -6.6181,-8.46164 -9.95496,-12.36998 -5.70541,-3.952354 -11.58663,-7.653939 -17.61888,-11.087125 -0.66163,1.157538 -1.32326,2.315077 -1.98489,3.472615 z m -347.46289,7.01953 c -9.41157,6.48394 -18.39288,13.61399 -26.68143,21.48819 4.34418,6.23607 9.28075,-4.98176 14.23524,-7.17236 5.24885,-4.34207 10.79181,-8.30967 16.384,-12.19341 -1.46892,-1.05419 -1.73903,-5.177928 -3.93781,-2.12242 z m 397.4375,31.65235 c 8.19434,8.58635 15.55964,17.97943 21.80754,28.07427 6.9133,-2.82205 -2.6804,-9.30884 -4.4643,-13.70687 -4.4638,-5.99058 -9.2762,-11.7245 -14.44566,-17.11903 -0.96586,0.91721 -1.93172,1.83442 -2.89758,2.75163 z m -444.42578,12.30273 c -6.98096,9.09659 -13.03969,18.91606 -17.89835,29.30645 5.69556,4.4322 6.09668,-6.30146 9.45503,-9.50983 3.8271,-6.61233 8.13383,-12.94265 12.83613,-18.96311 -1.7177,-0.56121 -3.21929,-4.40716 -4.39281,-0.83351 z m 478.46872,40.43945 c 4.2172,11.04141 6.992,22.6592 7.9041,34.45302 7.2566,0.83678 2.128,-8.69122 2.2633,-13.17537 -1.4413,-7.73009 -3.6257,-15.31913 -6.4245,-22.66613 -1.2476,0.46283 -2.4953,0.92565 -3.7429,1.38848 z m -506.16599,17.62696 c -2.465,11.25202 -3.39377,22.85958 -2.54211,34.35381 7.69707,0.56464 1.71678,-11.20151 3.96683,-16.36739 0.47492,-6.41203 1.42672,-12.7915 2.91833,-19.04688 -1.79352,0.2026 -4.76065,-2.67891 -4.34305,1.06046 z m 512.69139,46.2246 c -1.9199,10.99824 -5.367,21.71121 -10.0075,31.85928 5.8924,4.24299 6.0138,-6.44858 8.4352,-10.19523 2.6029,-7.48367 4.6305,-15.18181 5.8398,-23.01539 -1.7785,0.32181 -4.925,-2.34896 -4.2675,1.35134 z m -509.94725,16.08594 c 3.59703,11.61154 8.70855,22.7436 15.06439,33.10128 7.00072,-2.85938 -2.96453,-9.97908 -3.74478,-15.24321 -2.99125,-6.16124 -5.48293,-12.56161 -7.51753,-19.10077 -1.26736,0.41423 -2.53472,0.82847 -3.80208,1.2427 z m 485.08205,41.29297 c -6.5036,9.15724 -14.02691,17.55042 -22.06531,25.38083 4.43122,6.14721 8.9839,-5.10649 13.13761,-7.89179 4.792,-5.30646 9.2331,-10.9269 13.344,-16.77604 -1.7335,-0.51447 -3.3393,-4.31705 -4.4163,-0.713 z m -453.31838,14.68945 c 7.93122,9.15088 16.69614,17.57638 26.13264,25.16407 5.70349,-5.15738 -6.58289,-8.52531 -9.07922,-13.19866 -5.40972,-3.40014 -10.09528,-13.12564 -15.15154,-13.6576 l -1.08598,0.96624 -0.8159,0.72595 z m 408.42383,29.58399 c -9.14162,6.57212 -18.7731,12.44604 -28.71904,17.71699 2.83947,7.17722 10.85283,-2.99068 15.96921,-4.48262 5.72325,-3.45466 11.24748,-7.22573 16.68488,-11.11164 -1.46776,-1.05365 -1.73705,-5.17819 -3.93505,-2.12273 z m -359.49023,11.78906 c 9.41652,6.46804 13.66536,19.06791 10.2324,29.93945 6.70628,2.82064 4.97725,-7.98897 4.86299,-12.4121 -1.13327,-8.22707 -5.85085,-15.77649 -12.56425,-20.62304 -0.84371,1.0319 -1.68743,2.06379 -2.53114,3.09569 z m 303.77344,18.4082 c -10.45814,4.20082 -21.13167,7.86836 -31.97069,10.95727 0.92113,7.35263 9.9083,0.006 14.87071,-0.42092 6.89754,-2.26766 13.68832,-4.84571 20.42633,-7.54735 -1.1791,-1.36993 -0.47068,-5.44174 -3.32635,-2.989 z m -60.94922,17.94532 c -11.06038,2.17872 -22.22449,3.84031 -33.44341,4.94591 -0.33638,7.45055 10.03674,1.70948 15.08919,2.20838 7.06183,-0.97713 14.08626,-2.21212 21.077,-3.60746 -0.90877,-1.56071 0.53172,-5.43653 -2.72278,-3.54683 z m -142.15821,-0.29493 c -6.62372,0.1535 -13.07054,2.65471 -18.28507,6.70006 3.65049,6.76573 11.43318,-5.08992 18.34765,-2.69918 5.71072,-0.10784 11.21039,1.73785 16.84966,2.38289 2.53677,-6.67207 -7.72847,-4.24824 -11.97071,-6.12766 -1.63672,-0.21966 -3.29091,-0.30419 -4.94153,-0.25611 z m 44.8418,9.75391 c 12.01942,1.01247 24.09211,1.39394 36.15216,1.18949 0.4794,-8.08638 -13.07781,-1.87048 -18.67647,-4.17424 -5.12729,1.64783 -18.46241,-5.15432 -17.47569,2.98475 z m -142.86719,13.08203 c -2.83847,10.97629 -5.61936,21.96677 -8.37114,32.96508 8.05089,2.13785 5.55236,-13.31015 8.92396,-19.02517 0.23492,-3.95297 7.86637,-20.56789 -0.55282,-13.93991 z m 56.57227,3.19336 c -8.71588,7.24517 -17.43774,14.48472 -26.15048,21.73247 5.00793,6.71452 11.91297,-7.25447 17.74829,-9.55028 2.52223,-3.16708 19.2755,-12.61538 8.40219,-12.18219 z m -49.19531,40.94531 c -7.2045,5.00548 -13.61669,13.43064 -21.31583,16.3012 -6.28187,7.9805 -2.05849,11.61916 5.52026,2.12302 6.63156,-5.54656 13.26445,-11.09152 19.89518,-16.63906 -1.55064,-0.92538 -2.16696,-5.01333 -4.09961,-1.78516 z m -38.08008,88.90039 c 8.82318,3.14504 1.5507,-5.36365 0,0 z"
         id="path4858"
         inkscape:connector-curvature="0" />
    </g>
    <g
       id="g4533">
      <path
         inkscape:connector-curvature="0"
         style="color:#000000;clip-rule:nonzero;display:inline;overflow:visible;visibility:visible;opacity:1;isolation:auto;mix-blend-mode:normal;color-interpolation:sRGB;color-interpolation-filters:linearRGB;solid-color:#000000;solid-opacity:1;fill:#f3f3f3;fill-opacity:1;fill-rule:evenodd;stroke:none;stroke-width:4;stroke-linecap:square;stroke-linejoin:miter;stroke-miterlimit:4;stroke-dasharray:32, 32;stroke-dashoffset:0;stroke-opacity:1;color-rendering:auto;image-rendering:auto;shape-rendering:auto;text-rendering:auto;enable-background:accumulate"
         d="m 1163.1354,368.77689 a 256.92707,168.84023 0 0 1 256.9268,168.84001 256.92707,168.84023 0 0 1 -87.4237,126.69568 c 16.4745,56.73815 42.7068,150.45492 33.7374,142.2843 -8.2906,-7.55236 -84.9396,-65.68903 -138.1163,-105.86788 a 256.92707,168.84023 0 0 1 -65.1242,5.72792 A 256.92707,168.84023 0 0 1 906.20679,537.6169 256.92707,168.84023 0 0 1 1163.1354,368.77689 Z"
         id="path4767" />
      <path
         d="m 1128.5784,591.14726 q 0,5.15098 -3.434,8.96652 -3.4339,3.81554 -9.348,3.81554 -5.9141,0 -9.3481,-3.81554 -3.434,-3.81554 -3.434,-8.96652 0,-5.15097 3.434,-8.96651 3.434,-3.81554 9.3481,-3.81554 5.9141,0 9.348,3.81554 3.434,3.81554 3.434,8.96651 z"
         style="font-style:normal;font-variant:normal;font-weight:normal;font-stretch:normal;font-size:medium;line-height:125%;font-family:Ubuntu;-inkscape-font-specification:Ubuntu;letter-spacing:0px;word-spacing:0px;fill:#000000;fill-opacity:1;stroke:none;stroke-width:1px;stroke-linecap:butt;stroke-linejoin:miter;stroke-opacity:1"
         id="path4463"
         inkscape:connector-curvature="0" />
      <path
         d="m 1175.5274,591.14726 q 0,5.15098 -3.4339,8.96652 -3.434,3.81554 -9.3481,3.81554 -5.9141,0 -9.3481,-3.81554 -3.434,-3.81554 -3.434,-8.96652 0,-5.15097 3.434,-8.96651 3.434,-3.81554 9.3481,-3.81554 5.9141,0 9.3481,3.81554 3.4339,3.81554 3.4339,8.96651 z"
         style="font-style:normal;font-variant:normal;font-weight:normal;font-stretch:normal;font-size:medium;line-height:125%;font-family:Ubuntu;-inkscape-font-specification:Ubuntu;letter-spacing:0px;word-spacing:0px;fill:#000000;fill-opacity:1;stroke:none;stroke-width:1px;stroke-linecap:butt;stroke-linejoin:miter;stroke-opacity:1"
         id="path4465"
         inkscape:connector-curvature="0" />
      <path
         d="m 1222.4765,591.14726 q 0,5.15098 -3.434,8.96652 -3.434,3.81554 -9.3481,3.81554 -5.9141,0 -9.3481,-3.81554 -3.434,-3.81554 -3.434,-8.96652 0,-5.15097 3.434,-8.96651 3.434,-3.81554 9.3481,-3.81554 5.9141,0 9.3481,3.81554 3.434,3.81554 3.434,8.96651 z"
         style="font-style:normal;font-variant:normal;font-weight:normal;font-stretch:normal;font-size:medium;line-height:125%;font-family:Ubuntu;-inkscape-font-specification:Ubuntu;letter-spacing:0px;word-spacing:0px;fill:#000000;fill-opacity:1;stroke:none;stroke-width:1px;stroke-linecap:butt;stroke-linejoin:miter;stroke-opacity:1"
         id="path4467"
         inkscape:connector-curvature="0" />
      <path
         style="color:#000000;font-style:normal;font-variant:normal;font-weight:normal;font-stretch:normal;font-size:medium;line-height:normal;font-family:sans-serif;text-indent:0;text-align:start;text-decoration:none;text-decoration-line:none;text-decoration-style:solid;text-decoration-color:#000000;letter-spacing:normal;word-spacing:normal;text-transform:none;direction:ltr;block-progression:tb;writing-mode:lr-tb;baseline-shift:baseline;text-anchor:start;white-space:normal;clip-rule:nonzero;display:inline;overflow:visible;visibility:visible;opacity:1;isolation:auto;mix-blend-mode:normal;color-interpolation:sRGB;color-interpolation-filters:linearRGB;solid-color:#000000;solid-opacity:1;fill:#3f3f3f;fill-opacity:1;fill-rule:evenodd;stroke:none;stroke-width:4;stroke-linecap:square;stroke-linejoin:miter;stroke-miterlimit:4;stroke-dasharray:32, 32;stroke-dashoffset:0;stroke-opacity:1;color-rendering:auto;image-rendering:auto;shape-rendering:auto;text-rendering:auto;enable-background:accumulate"
         d="m 1161.1523,395.29102 c -10.7342,0.048 -21.4645,0.62698 -32.1466,1.67798 -0.6017,7.80718 10.5255,1.49702 15.5609,2.82034 12.7218,-0.69512 25.4771,-0.68742 38.1962,0.0644 2.1676,-6.49201 -6.1938,-3.61401 -10.2016,-4.43842 -3.8239,-0.10622 -7.6698,-0.178 -11.4089,-0.12431 z m 49.3067,7.26953 c 11.8241,1.63282 23.5602,3.86223 35.1458,6.73095 3.2749,-6.48187 -7.013,-4.72775 -11.0103,-6.60725 -7.8061,-1.64157 -15.673,-2.9918 -23.5745,-4.08512 -0.187,1.32047 -0.374,2.64095 -0.561,3.96142 z m -111.3418,-1.35352 c -11.1991,2.08157 -22.2914,4.72781 -33.2305,7.90327 0.354,7.52925 8.947,0.2518 13.5359,0.48458 7.4155,-1.87844 14.8999,-3.43007 22.4155,-4.84067 -0.835,-1.69491 0.4364,-5.27415 -2.7209,-3.54718 z m 173.166,15.85352 c 11.2598,3.91679 22.346,8.372 33.0208,13.69149 4.6059,-5.42227 -5.1948,-5.94656 -8.6101,-8.44358 -7.5433,-3.35985 -15.2709,-6.28591 -23.0619,-9.01564 -0.4496,1.25591 -0.8992,2.51182 -1.3488,3.76773 z m -234.9219,1.95703 c -10.5923,4.28558 -20.9401,9.20588 -30.841,14.91651 1.9846,6.98641 8.2008,-1.41202 12.516,-2.22464 7.0727,-3.56505 14.3067,-6.81002 21.6736,-9.71884 -1.1404,-1.5157 -0.5656,-5.2584 -3.3486,-2.97303 z m 291.9649,25.55078 c 9.8666,6.58577 19.1859,14.04086 27.508,22.50647 6.1667,-3.5102 -2.7447,-7.04743 -5.0719,-10.33012 -6.368,-5.61965 -13.1291,-10.7916 -20.2008,-15.49417 -0.7451,1.10594 -1.4902,2.21188 -2.2353,3.31782 z m -347.85159,6.32617 c -8.97224,7.14752 -17.25695,15.17735 -24.49791,24.08197 4.02274,5.77534 6.64737,-3.32216 10.19313,-5.55165 5.65514,-6.01715 11.82866,-11.54048 18.34457,-16.60889 -1.516,-1.13273 -2.01064,-4.89724 -4.03979,-1.92143 z m 392.62499,37.57031 c 6.363,9.93464 11.1579,20.89902 13.7244,32.43002 7.1966,0.0642 1.1348,-7.95952 0.7192,-12.03714 -2.7595,-7.90302 -6.5485,-15.42197 -11.0335,-22.48221 -1.1367,0.69644 -2.2734,1.39289 -3.4101,2.08933 z M 940.91992,500.875 c -4.75846,10.54187 -7.69037,21.95944 -8.15466,33.53513 7.28855,2.07075 3.0836,-8.83226 5.64463,-13.05693 1.45366,-7.14675 3.89791,-14.06703 6.97745,-20.66966 -1.86876,-0.29069 -4.07067,-3.39055 -4.46742,0.19146 z m 447.61328,49.05664 c -1.7444,10.98776 -5.814,21.5019 -11.2277,31.18596 5.05,4.79138 5.9967,-4.41116 8.2959,-7.67082 3.5215,-7.91572 6.0124,-16.30906 7.2037,-24.89566 -1.8841,0.21546 -4.8164,-2.16688 -4.2719,1.38052 z M 936.54297,562.7793 c 3.57869,11.67549 9.39572,22.57962 16.56254,32.43735 6.53055,-2.2878 -1.19255,-6.97232 -2.4209,-10.86803 -4.36266,-7.14434 -7.8692,-14.81714 -10.3417,-22.81762 -1.26665,0.4161 -2.53329,0.8322 -3.79994,1.2483 z m 423.25583,41.99023 c -7.6083,8.23608 -16.1666,15.55799 -25.2637,22.09801 2.4645,6.54721 7.235,-1.44465 10.7865,-3.19081 6.7011,-5.38809 13.0034,-11.27863 18.7682,-17.66059 -1.6759,-0.86969 -2.7734,-4.51255 -4.291,-1.24661 z m -387.68357,11.54492 c 8.89733,8.22732 18.71899,15.40767 28.99577,21.81059 5.4521,-5.57012 -6.90859,-7.15266 -9.5674,-11.19177 -5.84441,-4.18441 -11.45332,-8.70324 -16.73719,-13.57792 -0.89706,0.98637 -1.79412,1.97273 -2.69118,2.9591 z m 337.60747,27.88672 c -8.3584,9.08836 -9.3747,22.76033 -4.8552,33.88682 7.3063,-0.15465 0.5514,-7.49981 1.3455,-11.91034 -0.5541,-7.6044 2.3696,-15.35767 7.8039,-20.70504 -1.676,-0.88887 -2.7441,-4.52334 -4.2942,-1.27144 z m -283.6211,7.17578 c 10.9865,5.01091 22.2946,9.30961 33.8172,12.91794 3.6771,-6.65916 -8.1554,-5.33111 -12.0429,-8.30926 -6.819,-2.48992 -13.5361,-5.25499 -20.1436,-8.26103 -0.5436,1.21745 -1.0871,2.4349 -1.6307,3.65235 z m 61.0468,20.21875 c 11.7746,2.59059 23.6747,4.60274 35.6485,6.01232 2.2387,-7.56149 -10.1414,-3.73726 -14.8714,-6.11955 -6.688,-1.0562 -13.3304,-2.37871 -19.948,-3.80675 -0.2764,1.30466 -0.5527,2.60932 -0.8291,3.91398 z m 140.4825,-1.35742 c -4.4503,0.1386 -8.7944,1.25602 -13.1912,1.85806 -0.2549,7.84248 9.5231,0.71437 14.471,2.14928 6.9035,0.0298 13.3119,3.29119 18.4509,7.71226 5.3836,-4.04303 -2.944,-6.68242 -6.1402,-8.83194 -4.2308,-1.986 -8.9175,-2.98425 -13.5905,-2.88766 z m -42.8047,4.98047 c -11.2559,0.71501 -22.5456,0.92574 -33.8184,0.52736 -2.0621,7.21826 8.0275,2.95334 12.0961,4.21287 7.9885,-0.0358 15.9723,-0.34927 23.9441,-0.85946 -0.5989,-1.79509 1.142,-5.16705 -2.2218,-3.88077 z m 84.8613,23.64063 c 9.5715,7.23479 19.122,14.49364 28.6699,21.7598 5.7393,-5.77201 -8.0033,-8.89305 -11.0984,-13.46246 -5.043,-3.83898 -10.1058,-7.65809 -15.1594,-11.48685 -0.804,1.06317 -1.6081,2.12634 -2.4121,3.18951 z m 42.832,6.14453 c 2.9948,10.85477 6.5894,23.36153 9.0462,33.26054 8.0959,8.45929 3.717,-1.55344 2.3212,-7.1447 -2.4667,-9.07342 -4.9916,-18.13003 -7.5143,-27.1881 -1.2844,0.35742 -2.5687,0.71484 -3.8531,1.07226 z"
         id="path4863"
         inkscape:connector-curvature="0" />
    </g>
    <g
       id="g4540">
      <path
         id="path4881"
         d="M 420.64453 563.76758 C 404.1902 563.44159 385.74355 571.25571 369.72852 582.78906 L 0 849.05273 L 0 934.76758 L 0 1080 L 531.87891 1080 L 638.81445 1080 L 805.88086 946.08789 C 825.5677 930.30779 834.80421 849.63927 822.04297 823.98438 C 820.90157 814.16503 815.71555 805.21213 806.91797 799.67578 L 441.43164 569.67383 C 435.19031 565.74613 428.12377 563.91575 420.64453 563.76758 z "
         style="color:#000000;clip-rule:nonzero;display:inline;overflow:visible;visibility:visible;opacity:1;isolation:auto;mix-blend-mode:normal;color-interpolation:sRGB;color-interpolation-filters:linearRGB;solid-color:#000000;solid-opacity:1;fill:#ffffff;fill-opacity:1;fill-rule:evenodd;stroke:none;stroke-width:4.822;stroke-linecap:square;stroke-linejoin:miter;stroke-miterlimit:4;stroke-dasharray:28.932, 28.93199999999999861;stroke-dashoffset:0;stroke-opacity:1;color-rendering:auto;image-rendering:auto;shape-rendering:auto;text-rendering:auto;enable-background:accumulate" />
      <path
         id="path4481"
         d="m 817.21978,820.3115 c 4.29859,6.55467 5.37705,13.44817 7.10834,20.89944 l 4.7461,-0.85156 c -2.18444,-7.43186 -3.85711,-16.43634 -7.18555,-21.25782 z m 8.23334,44.49123 c -0.15131,11.14164 -1.34306,22.24383 -3.13693,33.23245 l 4.75976,0.77539 c 1.90588,-11.20475 2.97894,-22.5507 3.20006,-33.91386 z m -8.46484,56.27539 c -3.18954,11.02196 -8.20232,19.58971 -17.12923,26.7461 l 3.01562,3.76367 c 10.31684,-6.92036 14.5777,-17.62139 18.64655,-28.8689 z m -35.9414,41.82618 c -9.08434,7.27914 -18.52414,14.84737 -26.3379,21.11132 l 3.01563,3.76172 c 9.08502,-7.2784 18.5212,-14.85099 26.33789,-21.11132 z m -45.1504,36.18945 c -8.77885,7.03765 -17.55901,14.07375 -26.33789,21.11135 l 3.01563,3.7617 c 8.77862,-7.0373 17.55932,-14.072 26.33789,-21.1094 z m -45.15039,36.19145 c -8.7786,7.0373 -17.55934,14.0719 -26.33789,21.1093 l 3.01563,3.7637 c 8.77891,-7.0376 17.55901,-14.0737 26.33789,-21.1113 z m -45.15039,36.1894 c -3.52399,2.8225 -7.02005,5.6798 -10.52539,8.5254 l 7.59766,0 c 1.98125,-1.5877 3.96237,-3.1756 5.94336,-4.7637 z"
         style="color:#000000;font-style:normal;font-variant:normal;font-weight:normal;font-stretch:normal;font-size:medium;line-height:normal;font-family:sans-serif;text-indent:0;text-align:start;text-decoration:none;text-decoration-line:none;text-decoration-style:solid;text-decoration-color:#000000;letter-spacing:normal;word-spacing:normal;text-transform:none;direction:ltr;block-progression:tb;writing-mode:lr-tb;baseline-shift:baseline;text-anchor:start;white-space:normal;clip-rule:nonzero;display:inline;overflow:visible;visibility:visible;opacity:1;isolation:auto;mix-blend-mode:normal;color-interpolation:sRGB;color-interpolation-filters:linearRGB;solid-color:#000000;solid-opacity:1;fill:#3f3f3f;fill-opacity:1;fill-rule:evenodd;stroke:none;stroke-width:4.82200003;stroke-linecap:square;stroke-linejoin:miter;stroke-miterlimit:4;stroke-dasharray:28.932, 28.932;stroke-dashoffset:0;stroke-opacity:1;color-rendering:auto;image-rendering:auto;shape-rendering:auto;text-rendering:auto;enable-background:accumulate"
         inkscape:connector-curvature="0"
         sodipodi:nodetypes="ccccccccccccccccccccccccccccccccccc" />
      <ellipse
         ry="10.253872"
         rx="15.079224"
         cy="744.47131"
         cx="629.47266"
         id="path4773"
         style="color:#000000;clip-rule:nonzero;display:inline;overflow:visible;visibility:visible;opacity:1;isolation:auto;mix-blend-mode:normal;color-interpolation:sRGB;color-interpolation-filters:linearRGB;solid-color:#000000;solid-opacity:1;fill:#000000;fill-opacity:1;fill-rule:evenodd;stroke:none;stroke-width:4;stroke-linecap:square;stroke-linejoin:miter;stroke-miterlimit:4;stroke-dasharray:48, 48;stroke-dashoffset:0;stroke-opacity:1;color-rendering:auto;image-rendering:auto;shape-rendering:auto;text-rendering:auto;enable-background:accumulate" />
      <ellipse
         ry="17.601753"
         rx="24.27828"
         cy="772.70032"
         cx="674.16187"
         id="path4775"
         style="color:#000000;clip-rule:nonzero;display:inline;overflow:visible;visibility:visible;opacity:1;isolation:auto;mix-blend-mode:normal;color-interpolation:sRGB;color-interpolation-filters:linearRGB;solid-color:#000000;solid-opacity:1;fill:#000000;fill-opacity:1;fill-rule:evenodd;stroke:none;stroke-width:4;stroke-linecap:square;stroke-linejoin:miter;stroke-miterlimit:4;stroke-dasharray:48, 48;stroke-dashoffset:0;stroke-opacity:1;color-rendering:auto;image-rendering:auto;shape-rendering:auto;text-rendering:auto;enable-background:accumulate" />
      <rect
         transform="matrix(0.83451343,0.5509876,-0.76694969,0.64170724,0,0)"
         ry="10.062955"
         rx="7.3728914"
         y="277.49561"
         x="886.46082"
         height="20.92063"
         width="100.29986"
         id="rect4777"
         style="color:#000000;clip-rule:nonzero;display:inline;overflow:visible;visibility:visible;opacity:1;isolation:auto;mix-blend-mode:normal;color-interpolation:sRGB;color-interpolation-filters:linearRGB;solid-color:#000000;solid-opacity:1;fill:#000000;fill-opacity:1;fill-rule:evenodd;stroke:none;stroke-width:4;stroke-linecap:square;stroke-linejoin:miter;stroke-miterlimit:4;stroke-dasharray:48, 48;stroke-dashoffset:0;stroke-opacity:1;color-rendering:auto;image-rendering:auto;shape-rendering:auto;text-rendering:auto;enable-background:accumulate" />
      <path
         id="path4473"
         d="m 389.4218,568.51677 1.82226,4.46485 c 12.5739,-5.58053 26.2598,-8.57839 39.82227,-5.30077 l 1.13086,-4.6875 c -16.0708,-2.63482 -29.86684,0.24474 -42.77539,5.52342 z m 64.59968,6.23128 -2.56836,4.08203 c 9.52249,5.9933 19.04966,11.97919 28.56836,17.97851 l 2.56836,-4.08203 c -9.52173,-5.99452 -19.04296,-11.98984 -28.56836,-17.97851 z m -85.87304,6.20703 c -9.13095,6.57539 -18.2592,13.15455 -27.39258,19.72656 l 2.81836,3.91406 c 9.13095,-6.57539 18.2592,-13.15455 27.39258,-19.72656 z m 134.84961,24.61328 -2.56836,4.08203 c 9.52219,5.99379 19.04707,11.98329 28.56836,17.97852 l 2.56836,-4.08203 c -9.52247,-5.99334 -19.04967,-11.97917 -28.56836,-17.97852 z m -181.80664,9.20312 c -9.13093,6.57542 -18.25922,13.15452 -27.39258,19.72657 l 2.81836,3.91406 c 9.13095,-6.5754 18.25918,-13.15457 27.39258,-19.72656 z m 230.78125,21.61719 -2.56836,4.08203 c 9.52247,5.99334 19.04966,11.97919 28.56836,17.97852 l 2.56836,-4.08203 c -9.52218,-5.9938 -19.04709,-11.98327 -28.56836,-17.97852 z m -277.73828,12.19922 c -9.12924,6.57687 -18.26078,13.15054 -27.39063,19.72656 l 2.81641,3.91407 c 9.13093,-6.57542 18.25921,-13.15453 27.39257,-19.72657 z m 326.71289,18.62109 -2.56836,4.08204 c 9.52402,5.99191 19.04854,11.98303 28.57031,17.97851 l 2.56836,-4.08203 c -9.52401,-5.99192 -19.04857,-11.98298 -28.57031,-17.97852 z m -373.66993,15.19727 c -9.1312,6.57348 -18.26108,13.14881 -27.39062,19.72461 l 2.8164,3.91406 c 9.13096,-6.57538 18.2592,-13.15455 27.39258,-19.72656 z m 422.64649,15.62305 -2.56836,4.08203 c 9.52354,5.99164 19.04706,11.98332 28.56836,17.97851 l 2.56836,-4.08203 c -9.52354,-5.99163 -19.04707,-11.9833 -28.56836,-17.97851 z m -469.60352,18.19336 c -9.1312,6.5735 -18.26111,13.14878 -27.39062,19.72461 l 2.81836,3.91406 c 9.12887,-6.57738 18.25767,-13.15486 27.39062,-19.72656 z m 518.57813,12.62695 -2.56836,4.08203 c 9.52568,5.98928 19.04447,11.9895 28.57031,17.97852 l 2.56836,-4.08204 c -9.52401,-5.99192 -19.04857,-11.98297 -28.57031,-17.97851 z m -565.53516,21.18945 c -9.13246,6.57174 -18.25798,13.15313 -27.39062,19.72461 l 2.81836,3.91406 c 9.13112,-6.57425 18.25769,-13.15482 27.39062,-19.72656 z m 614.51172,9.63086 -2.56836,4.08203 c 9.52307,5.99239 19.04295,11.98985 28.56836,17.97852 l 2.56836,-4.08203 C 766.91983,771.65678 757.39628,765.66515 747.875,759.66992 Z M 86.40625,783.85547 c -9.13085,6.57398 -18.257978,13.15313 -27.390625,19.72461 l 2.818359,3.91406 c 9.129381,-6.57667 18.261984,-13.14886 27.390625,-19.72656 z m 710.44336,6.63672 -2.56836,4.08008 c 10.09614,5.43349 18.32184,11.16847 23.38477,21.48046 l 4.33007,-2.125 c -4.83304,-11.64141 -14.88381,-16.98332 -25.14648,-23.43554 z M 39.449219,817.67188 c -9.130849,6.57398 -18.25798,13.15312 -27.390625,19.7246 l 2.818359,3.91407 c 9.130983,-6.57445 18.262005,-13.14884 27.390625,-19.72657 z M 818.65625,837.8418 c -3.23176,10.9651 -11.15937,18.15082 -19.75586,25.03515 l 3.01563,3.76367 c 9.18597,-6.91629 17.21056,-17.11029 21.23828,-27.05859 z m -38.56836,40.11523 C 771.309,884.99465 762.52886,892.0307 753.75,899.06836 l 3.01562,3.76367 c 8.77888,-7.03763 17.55906,-14.07364 26.3379,-21.11133 z m -45.15234,36.19141 c -8.77888,7.03763 -17.55906,14.07364 -26.33789,21.11133 l 3.01562,3.76367 c 8.77888,-7.03763 17.55903,-14.07367 26.33789,-21.11133 z m -45.15039,36.1914 c -8.77964,7.03814 -17.56472,14.06951 -26.33985,21.11328 l 3.01563,3.76172 c 8.7826,-7.03379 17.55703,-14.07779 26.33984,-21.11132 z m -45.15235,36.19141 c -8.77743,7.04008 -17.56303,14.06995 -26.33789,21.11325 l 3.01563,3.7617 c 8.77889,-7.0376 17.55904,-14.07363 26.33789,-21.11128 z m -45.15234,36.19145 c -8.77919,7.0379 -17.55871,14.0753 -26.33789,21.1132 l 3.01562,3.7618 c 8.7788,-7.0378 17.559,-14.0738 26.33789,-21.1114 z m -45.15039,36.1914 c -8.7004,7.0628 -17.5831,13.9035 -26.18555,21.0859 l 7.58789,0 c 7.20532,-5.773 14.4066,-11.551 21.61328,-17.3223 z"
         style="color:#000000;font-style:normal;font-variant:normal;font-weight:normal;font-stretch:normal;font-size:medium;line-height:normal;font-family:sans-serif;text-indent:0;text-align:start;text-decoration:none;text-decoration-line:none;text-decoration-style:solid;text-decoration-color:#000000;letter-spacing:normal;word-spacing:normal;text-transform:none;direction:ltr;block-progression:tb;writing-mode:lr-tb;baseline-shift:baseline;text-anchor:start;white-space:normal;clip-rule:nonzero;display:inline;overflow:visible;visibility:visible;opacity:1;isolation:auto;mix-blend-mode:normal;color-interpolation:sRGB;color-interpolation-filters:linearRGB;solid-color:#000000;solid-opacity:1;fill:#3f3f3f;fill-opacity:1;fill-rule:evenodd;stroke:none;stroke-width:4.82218599;stroke-linecap:square;stroke-linejoin:miter;stroke-miterlimit:4;stroke-dasharray:28.93311596, 28.93311596;stroke-dashoffset:0;stroke-opacity:1;color-rendering:auto;image-rendering:auto;shape-rendering:auto;text-rendering:auto;enable-background:accumulate"
         inkscape:connector-curvature="0"
         sodipodi:nodetypes="cccccccccccccccccccccccccccccccccccccccccccccccccccccccccccccccccccccccccccccccccccccccccccccccccccccccccccccccccccccccc" />
      <path
         id="path4477"
         d="m 350.58789,650.33008 1.53906,3.76758 c 20.36617,-8.92771 31.16631,-7.38244 49.37305,4.07422 l 2.16797,-3.44532 c -17.08048,-12.93409 -33.95982,-12.21119 -53.08008,-4.39648 z m -17.88477,10.62109 c -7.7089,5.54441 -15.40629,11.10484 -23.11718,16.64649 l 2.3789,3.30273 c 7.70616,-5.54888 15.41343,-11.09623 23.11719,-16.64844 z m 88.18555,4.61133 -2.16601,3.44531 c 8.03599,5.05971 16.07395,10.1163 24.11132,15.17383 L 445,680.73633 c -8.036,-5.0597 -16.07395,-10.11632 -24.11133,-15.17383 z m -127.81445,23.92773 c -7.70724,5.54828 -15.41182,11.10027 -23.11914,16.64844 l 2.3789,3.30274 c 7.70554,-5.54974 15.41341,-11.09626 23.11719,-16.64844 z m 169.14844,2.08399 -2.16797,3.44531 c 8.0363,5.05924 16.07653,10.11222 24.11133,15.17383 l 2.16796,-3.44531 c -8.03734,-5.05757 -16.07395,-10.1163 -24.11132,-15.17383 z m 41.33398,26.01172 -2.16797,3.44531 1.72266,1.08398 20.66601,13.00586 1.72266,1.08399 2.16797,-3.44531 -1.72266,-1.08399 -20.66601,-13.00586 z m -250.11328,0.44336 c -7.70392,5.55199 -15.41341,11.09625 -23.11719,16.64843 l 2.37891,3.30274 c 7.70519,-5.55022 15.41028,-11.1006 23.11719,-16.64844 z m 291.44726,25.56836 -2.16796,3.44531 1.72265,1.08398 20.66602,13.00586 1.72265,1.08399 2.16797,-3.44532 -1.72265,-1.08398 -20.66602,-13.00586 z m -331.07812,2.97265 c -7.70518,5.55024 -15.41028,11.1006 -23.11719,16.64844 l 2.37891,3.30273 c 7.70392,-5.55199 15.41341,-11.09625 23.11719,-16.64843 z m 372.41211,23.03907 -2.16797,3.44531 c 8.03876,5.05466 16.07014,10.12107 24.11133,15.17187 l 2.16797,-3.44336 c -8.03631,-5.05922 -16.07654,-10.11219 -24.11133,-15.17382 z m -412.04102,5.5 c -7.70554,5.54974 -15.4134,11.09625 -23.11718,16.64843 l 2.37695,3.30274 c 7.70553,-5.54975 15.41341,-11.09626 23.11719,-16.64844 z m 453.37305,20.51171 -2.16602,3.44532 c 8.03588,5.05821 16.07125,10.11724 24.10938,15.17187 l 2.16797,-3.44336 c -8.036,-5.0597 -16.07397,-10.11629 -24.11133,-15.17383 z m -493.00391,8.0293 c -7.70392,5.55199 -15.4134,11.09626 -23.11718,16.64844 l 2.3789,3.30078 c 7.70891,-5.54441 15.40629,-11.10484 23.11719,-16.64649 z m 534.33789,17.98242 -2.16796,3.44531 c 8.03874,5.0547 16.07014,10.12106 24.11132,15.17188 l 2.16797,-3.44336 c -8.03735,-5.05756 -16.07397,-10.11629 -24.11133,-15.17383 z M 94.923828,832.18945 c -7.707246,5.54828 -15.411816,11.10027 -23.11914,16.64844 l 2.378906,3.30273 C 81.887515,846.58863 89.597,841.04437 97.300781,835.49219 Z m 613.814452,18.99805 -3.75781,1.5625 c 4.28155,8.59981 3.40734,17.33631 0.0469,26.02344 l 3.79493,1.46875 c 4.43811,-9.66581 3.91919,-19.42703 -0.084,-29.05469 z m -653.445311,9.54297 c -7.709265,5.54391 -15.409396,11.10052 -23.117188,16.64648 l 2.376953,3.30274 c 7.707247,-5.54828 15.411815,-11.10027 23.119141,-16.64844 z m -39.63086,28.53906 C 10.442374,893.03064 5.2208614,896.78928 0,900.54883 l 0,5.02539 c 5.8815688,-4.21967 12.01981,-8.66242 18.041016,-13.00195 z m 676.623051,3.76172 c -7.4121,5.93556 -14.81623,11.88108 -22.22852,17.81641 l 2.54492,3.17578 c 7.40826,-5.94101 14.82035,-11.87723 22.22852,-17.81836 z m -38.10743,30.54297 c -7.40826,5.941 -14.82035,11.87724 -22.22851,17.81836 l 2.54492,3.17578 c 7.40868,-5.9413 14.82191,-11.87692 22.23047,-17.81836 z m -38.10546,30.54492 c -7.40826,5.94101 -14.82035,11.87723 -22.22852,17.81836 l 2.54492,3.17578 c 7.40826,-5.94101 14.82035,-11.87723 22.22852,-17.81836 z m -38.10743,30.54492 c -7.41208,5.93559 -14.81624,11.88108 -22.22851,17.81644 l 2.54492,3.1757 c 7.41074,-5.93725 14.8198,-11.87659 22.22852,-17.81636 z m -38.10546,30.54494 c -7.41063,5.9374 -14.81982,11.8766 -22.22852,17.8164 l 2.54492,3.1758 c 7.40823,-5.9411 14.82026,-11.8774 22.22852,-17.8184 z m -38.10743,30.543 c -7.40834,5.9409 -14.82027,11.8773 -22.22851,17.8183 l 2.54492,3.1758 c 7.40827,-5.941 14.82047,-11.8771 22.22852,-17.8184 z"
         style="color:#000000;font-style:normal;font-variant:normal;font-weight:normal;font-stretch:normal;font-size:medium;line-height:normal;font-family:sans-serif;text-indent:0;text-align:start;text-decoration:none;text-decoration-line:none;text-decoration-style:solid;text-decoration-color:#000000;letter-spacing:normal;word-spacing:normal;text-transform:none;direction:ltr;block-progression:tb;writing-mode:lr-tb;baseline-shift:baseline;text-anchor:start;white-space:normal;clip-rule:nonzero;display:inline;overflow:visible;visibility:visible;opacity:1;isolation:auto;mix-blend-mode:normal;color-interpolation:sRGB;color-interpolation-filters:linearRGB;solid-color:#000000;solid-opacity:1;fill:#3f3f3f;fill-opacity:1;fill-rule:evenodd;stroke:none;stroke-width:4.06976557;stroke-linecap:square;stroke-linejoin:miter;stroke-miterlimit:4;stroke-dasharray:24.41859341, 24.41859341;stroke-dashoffset:0;stroke-opacity:1;color-rendering:auto;image-rendering:auto;shape-rendering:auto;text-rendering:auto;enable-background:accumulate"
         inkscape:connector-curvature="0"
         sodipodi:nodetypes="cccccccccccccccccccccccccccccccccccccccccccccccccccccccccccccccccccccccccccccccccccccccccccccccccccccccccccccccccccccccccccccccc" />
    </g>
    <g
       id="g4549">
      <path
         id="path4883"
         d="M 1572.4746 723.85938 C 1564.7126 724.01315 1557.3777 725.9121 1550.9004 729.98828 L 1171.5977 968.68555 C 1162.4645 974.43309 1157.0822 983.72928 1155.9004 993.92383 C 1147.6601 1010.5022 1148.2713 1049.1905 1154.8359 1080 L 1232.9609 1080 L 1920 1080 L 1920 1044.7754 L 1920 955.82031 L 1625.3145 743.59961 C 1608.6939 731.63023 1589.551 723.52106 1572.4746 723.85938 z "
         style="color:#000000;clip-rule:nonzero;display:inline;overflow:visible;visibility:visible;opacity:1;isolation:auto;mix-blend-mode:normal;color-interpolation:sRGB;color-interpolation-filters:linearRGB;solid-color:#000000;solid-opacity:1;fill:#ffffff;fill-opacity:1;fill-rule:evenodd;stroke:none;stroke-width:5.00429726;stroke-linecap:square;stroke-linejoin:miter;stroke-miterlimit:4;stroke-dasharray:30.02578375, 30.02578374999999866;stroke-dashoffset:0;stroke-opacity:1;color-rendering:auto;image-rendering:auto;shape-rendering:auto;text-rendering:auto;enable-background:accumulate" />
      <ellipse
         transform="scale(-1,1)"
         style="color:#000000;clip-rule:nonzero;display:inline;overflow:visible;visibility:visible;opacity:1;isolation:auto;mix-blend-mode:normal;color-interpolation:sRGB;color-interpolation-filters:linearRGB;solid-color:#000000;solid-opacity:1;fill:#000000;fill-opacity:1;fill-rule:evenodd;stroke:none;stroke-width:4;stroke-linecap:square;stroke-linejoin:miter;stroke-miterlimit:4;stroke-dasharray:48, 48;stroke-dashoffset:0;stroke-opacity:1;color-rendering:auto;image-rendering:auto;shape-rendering:auto;text-rendering:auto;enable-background:accumulate"
         id="ellipse4887"
         cx="-1464.3231"
         cy="845.67993"
         rx="15.649299"
         ry="10.641523" />
      <ellipse
         transform="scale(-1,1)"
         style="color:#000000;clip-rule:nonzero;display:inline;overflow:visible;visibility:visible;opacity:1;isolation:auto;mix-blend-mode:normal;color-interpolation:sRGB;color-interpolation-filters:linearRGB;solid-color:#000000;solid-opacity:1;fill:#000000;fill-opacity:1;fill-rule:evenodd;stroke:none;stroke-width:4;stroke-linecap:square;stroke-linejoin:miter;stroke-miterlimit:4;stroke-dasharray:48, 48;stroke-dashoffset:0;stroke-opacity:1;color-rendering:auto;image-rendering:auto;shape-rendering:auto;text-rendering:auto;enable-background:accumulate"
         id="ellipse4889"
         cx="-1507.3629"
         cy="815.43152"
         rx="25.196129"
         ry="18.267193" />
      <rect
         style="color:#000000;clip-rule:nonzero;display:inline;overflow:visible;visibility:visible;opacity:1;isolation:auto;mix-blend-mode:normal;color-interpolation:sRGB;color-interpolation-filters:linearRGB;solid-color:#000000;solid-opacity:1;fill:#000000;fill-opacity:1;fill-rule:evenodd;stroke:none;stroke-width:4;stroke-linecap:square;stroke-linejoin:miter;stroke-miterlimit:4;stroke-dasharray:48, 48;stroke-dashoffset:0;stroke-opacity:1;color-rendering:auto;image-rendering:auto;shape-rendering:auto;text-rendering:auto;enable-background:accumulate"
         id="rect4891"
         width="104.09173"
         height="21.71154"
         x="-279.38229"
         y="1565.217"
         rx="7.6516261"
         ry="10.443388"
         transform="matrix(-0.83451343,0.5509876,0.76694969,0.64170724,0,0)" />
      <path
         id="path4485"
         d="m 1591.543,817.34766 2.25,3.57617 c 10.2237,-6.57237 20.5808,-9.64946 30.5312,-9.05664 l 0.291,-4.21485 c -12.535,-1.92695 -22.5144,3.06056 -33.0722,9.69532 z m 54.0234,-3.44727 -1.8691,3.78711 c 8.9263,4.00757 16.7626,9.87371 24.6601,15.55859 l 2.4668,-3.42578 c -7.8974,-6.15918 -16.2829,-11.50642 -25.2578,-15.91992 z m -71.9023,14.69531 c -8.3405,5.25035 -16.683,10.49762 -25.0235,15.74805 l 2.25,3.57422 c 8.3414,-5.24719 16.6777,-10.5027 25.0215,-15.74609 z m 114.2988,13.56446 -2.4668,3.42773 c 7.9951,5.76132 15.9952,11.51587 23.9902,17.27734 l 2.4688,-3.42773 c -7.9991,-5.75676 -15.9937,-11.51975 -23.9922,-17.27734 z m -157.1953,13.43164 c -8.3403,5.25014 -16.6833,10.49584 -25.0235,15.74609 l 2.25,3.57422 c 8.3413,-5.24842 16.6807,-10.50005 25.0235,-15.74609 z m 198.3242,16.1875 -2.4688,3.42773 c 7.9973,5.75932 15.9967,11.51553 23.9922,17.27735 l 2.4688,-3.42774 c -7.9973,-5.75929 -15.9967,-11.51555 -23.9922,-17.27734 z m -241.2207,10.80664 c -8.3419,5.24747 -16.6791,10.50238 -25.0234,15.74609 l 2.25,3.57617 c 8.3416,-5.24863 16.6803,-10.50183 25.0234,-15.74804 z m 282.3496,18.8125 -2.4687,3.42773 c 7.9967,5.76002 15.9936,11.51975 23.9921,17.27735 l 2.4668,-3.42774 c -7.9952,-5.7613 -15.9952,-11.51587 -23.9902,-17.27734 z m -325.2461,8.18164 c -8.3405,5.25034 -16.6829,10.49762 -25.0234,15.74804 l 2.25,3.57422 c 8.3419,-5.24747 16.6791,-10.50238 25.0234,-15.74609 z m 366.375,21.4375 -2.4687,3.42773 c 7.9974,5.75819 15.9952,11.51584 23.9902,17.27735 l 2.4687,-3.42774 c -7.9951,-5.76142 -15.9952,-11.51587 -23.9902,-17.27734 z m -409.2715,5.55859 c -8.3402,5.25012 -16.6832,10.49587 -25.0234,15.7461 l 2.25,3.57421 c 8.3402,-5.25012 16.6832,-10.49586 25.0234,-15.74609 z m 450.3985,24.06055 -2.4668,3.42578 c 7.9969,5.75888 15.9909,11.52186 23.9902,17.27734 l 2.4688,-3.42578 c -7.9986,-5.75745 -15.9894,-11.52575 -23.9922,-17.27734 z m -493.295,2.93359 c -8.3419,5.24747 -16.6791,10.50239 -25.0234,15.7461 l 2.25,3.57617 c 8.3405,-5.25034 16.6829,-10.49763 25.0234,-15.74805 z m 534.4239,26.6836 -2.4688,3.42773 c 7.9972,5.75935 15.9968,11.51546 23.9922,17.27736 l 2.4688,-3.4258 c -7.9975,-5.7596 -15.9964,-11.51728 -23.9922,-17.27929 z m -577.3203,0.31054 c -8.3406,5.25024 -16.683,10.49765 -25.0235,15.74805 l 2.25,3.5742 c 8.342,-5.2474 16.6791,-10.50257 25.0235,-15.74608 z m -41.879,29.98045 c -4.4075,9.0458 -4.3938,21.387 -1.7675,30.0899 l 4.0195,-1.2989 c -3.6971,-9.2396 -2.7543,-18.1764 1.541,-26.9297 z m 14.8282,43.959 -2.6426,3.2949 c 5.0726,4.0683 10.147,8.1343 15.2207,12.2012 l 6.4531,0 c -6.3592,-5.1462 -12.649,-10.3784 -19.0312,-15.4961 z"
         style="color:#000000;font-style:normal;font-variant:normal;font-weight:normal;font-stretch:normal;font-size:medium;line-height:normal;font-family:sans-serif;text-indent:0;text-align:start;text-decoration:none;text-decoration-line:none;text-decoration-style:solid;text-decoration-color:#000000;letter-spacing:normal;word-spacing:normal;text-transform:none;direction:ltr;block-progression:tb;writing-mode:lr-tb;baseline-shift:baseline;text-anchor:start;white-space:normal;clip-rule:nonzero;display:inline;overflow:visible;visibility:visible;opacity:1;isolation:auto;mix-blend-mode:normal;color-interpolation:sRGB;color-interpolation-filters:linearRGB;solid-color:#000000;solid-opacity:1;fill:#3f3f3f;fill-opacity:1;fill-rule:evenodd;stroke:none;stroke-width:4.22362423;stroke-linecap:square;stroke-linejoin:miter;stroke-miterlimit:4;stroke-dasharray:25.34174634, 25.34174634;stroke-dashoffset:0;stroke-opacity:1;color-rendering:auto;image-rendering:auto;shape-rendering:auto;text-rendering:auto;enable-background:accumulate"
         inkscape:connector-curvature="0"
         sodipodi:nodetypes="ccccccccccccccccccccccccccccccccccccccccccccccccccccccccccccccccccccccccccccccccccccc" />
      <path
         id="path4490"
         d="m 1574.8555,721.23828 c -13.2313,-0.51666 -22.8783,5.12403 -33.5996,11.86328 l 2.666,4.23633 c 9.6746,-7.30217 19.1001,-10.51466 31.1758,-11.09961 z m 17.6894,3.00977 -1.5312,4.76367 c 11.0888,3.15429 21.1343,8.80506 30.709,15.08984 l 2.748,-4.18164 c -9.792,-6.86619 -20.5577,-12.03777 -31.9258,-15.67187 z m -72.4687,22.18164 c -9.8819,6.22096 -19.769,12.43346 -29.6485,18.6582 l 2.6661,4.23438 c 9.8817,-6.22109 19.769,-12.43345 29.6484,-18.65821 z m 124.789,8.16601 -2.9238,4.0625 c 9.4795,6.81854 18.948,13.65243 28.4277,20.47071 l 2.9239,-4.06055 c -9.4759,-6.82428 -18.9519,-13.64837 -28.4278,-20.47266 z M 1469.25,778.41406 c -9.8813,6.22172 -19.7649,12.43997 -29.6484,18.65821 l 2.664,4.23632 c 9.8864,-6.21475 19.7639,-12.44369 29.6504,-18.6582 z m 224.3477,11.27735 -2.9239,4.06054 c 9.4742,6.82659 18.9519,13.64837 28.4278,20.47266 l 2.9238,-4.06055 c -9.4758,-6.82436 -18.952,-13.64816 -28.4277,-20.47265 z m -275.1739,20.70898 c -9.8864,6.21478 -19.7637,12.4439 -29.6504,18.6582 l 2.6661,4.23633 c 9.8813,-6.2218 19.7648,-12.43999 29.6484,-18.6582 z m 323.9063,14.38477 -2.9239,4.0625 c 9.4762,6.82227 18.9495,13.64852 28.4258,20.4707 l 2.9258,-4.06055 c -9.4757,-6.82447 -18.952,-13.64816 -28.4277,-20.47265 z m -374.7344,17.60156 c -9.8818,6.22094 -19.769,12.43348 -29.6484,18.6582 l 2.666,4.23438 c 9.8818,-6.22096 19.769,-12.43345 29.6484,-18.65821 z m 423.4668,17.49414 -2.9238,4.06055 c 9.4725,6.8281 18.9535,13.64425 28.4258,20.47265 l 2.9257,-4.06054 c -9.4758,-6.8244 -18.9518,-13.64839 -28.4277,-20.47266 z m -474.293,14.49023 c -9.8828,6.22106 -19.7675,12.43916 -29.6504,18.66016 l 2.6661,4.23437 c 9.8834,-6.2184 19.7648,-12.43999 29.6484,-18.6582 z m 523.0254,20.60547 -2.9258,4.06055 c 9.4759,6.82428 18.9519,13.64837 28.4278,20.47266 l 2.9238,-4.0625 c -9.4762,-6.82228 -18.9495,-13.64853 -28.4258,-20.47071 z m -573.8535,11.38086 c -9.8813,6.22171 -19.7648,12.43999 -29.6484,18.6582 l 2.666,4.23633 c 9.8814,-6.22169 19.7648,-12.43999 29.6484,-18.6582 z m 622.5859,23.71289 -2.9257,4.06055 c 9.4758,6.8244 18.9519,13.64836 28.4277,20.47266 l 2.9238,-4.06055 c -9.4725,-6.8281 -18.9535,-13.64426 -28.4258,-20.47266 z m -673.4121,8.27344 c -9.8835,6.21829 -19.7648,12.43999 -29.6484,18.6582 l 2.6641,4.23633 c 9.8828,-6.22113 19.7676,-12.43893 29.6503,-18.66016 z m -51.0371,32.97656 c -9.0304,9.38516 -12.0779,21.57191 -10.2793,34.25389 l 4.9551,-0.7031 c -2.0928,-11.58095 2.1867,-22.21898 9.1094,-30.27735 z m 5.2891,54.00389 -3.4336,3.6387 c 8.7168,8.2759 19.0825,15.8146 27.2264,22.3439 l 3.1308,-3.9043 c -9.9655,-8.4104 -17.983,-13.6437 -26.9236,-22.0783 z m 46.4492,37.7266 -3.1309,3.9043 c 5.4263,4.3468 10.8505,8.6963 16.2754,13.0449 l 7.6856,0 c -6.5608,-5.7556 -14.5691,-11.9294 -20.8301,-16.9492 z"
         style="color:#000000;font-style:normal;font-variant:normal;font-weight:normal;font-stretch:normal;font-size:medium;line-height:normal;font-family:sans-serif;text-indent:0;text-align:start;text-decoration:none;text-decoration-line:none;text-decoration-style:solid;text-decoration-color:#000000;letter-spacing:normal;word-spacing:normal;text-transform:none;direction:ltr;block-progression:tb;writing-mode:lr-tb;baseline-shift:baseline;text-anchor:start;white-space:normal;clip-rule:nonzero;display:inline;overflow:visible;visibility:visible;opacity:1;isolation:auto;mix-blend-mode:normal;color-interpolation:sRGB;color-interpolation-filters:linearRGB;solid-color:#000000;solid-opacity:1;fill:#3f3f3f;fill-opacity:1;fill-rule:evenodd;stroke:none;stroke-width:5.00449038;stroke-linecap:square;stroke-linejoin:miter;stroke-miterlimit:4;stroke-dasharray:30.0269419, 30.0269419;stroke-dashoffset:0;stroke-opacity:1;color-rendering:auto;image-rendering:auto;shape-rendering:auto;text-rendering:auto;enable-background:accumulate"
         inkscape:connector-curvature="0"
         sodipodi:nodetypes="cccccccccccccccccccccccccccccccccccccccccccccccccccccccccccccccccccccccccccccccccccccccccc" />
      <path
         id="path4494"
         d="m 1148.1895,1014.7715 c -1.2602,11.7616 -1.0023,23.6231 -0.1446,35.4023 l 4.9922,-0.3652 c -0.9608,-11.5029 -0.9647,-23.0687 0.1348,-34.5586 z m 8.0371,59.5234 -4.9024,1 c 0.3176,1.5688 0.6383,3.1369 0.959,4.7051 l 5.1875,0 c -0.3348,-1.9801 -0.8279,-3.6632 -1.2441,-5.7051 z"
         style="color:#000000;font-style:normal;font-variant:normal;font-weight:normal;font-stretch:normal;font-size:medium;line-height:normal;font-family:sans-serif;text-indent:0;text-align:start;text-decoration:none;text-decoration-line:none;text-decoration-style:solid;text-decoration-color:#000000;letter-spacing:normal;word-spacing:normal;text-transform:none;direction:ltr;block-progression:tb;writing-mode:lr-tb;baseline-shift:baseline;text-anchor:start;white-space:normal;clip-rule:nonzero;display:inline;overflow:visible;visibility:visible;opacity:1;isolation:auto;mix-blend-mode:normal;color-interpolation:sRGB;color-interpolation-filters:linearRGB;solid-color:#000000;solid-opacity:1;fill:#3f3f3f;fill-opacity:1;fill-rule:evenodd;stroke:none;stroke-width:5.00429726;stroke-linecap:square;stroke-linejoin:miter;stroke-miterlimit:4;stroke-dasharray:30.02578375, 30.02578375;stroke-dashoffset:0;stroke-opacity:1;color-rendering:auto;image-rendering:auto;shape-rendering:auto;text-rendering:auto;enable-background:accumulate"
         inkscape:connector-curvature="0"
         sodipodi:nodetypes="cccccccccc" />
    </g>
  </g>
</svg>
