<?xml version="1.0" encoding="UTF-8" standalone="no"?>
<svg id="svg24" xmlns="http://www.w3.org/2000/svg" height="500" width="1e3" version="1.1" viewBox="0 0 1000 500">
 <rect id="rect2" style="stroke-width:2.762;fill:#fff" ry="0" height="500" width="1e3" y="0" x="0"/>
 <g id="g4780" transform="translate(0 42.05)">
  <path id="path4" d="m247.9 149.5h10.84v42.15q0 7.571 4.638 12.62 4.638 5.046 11.19 5.046 6.684 0 11.53-5.046 4.91-5.116 4.91-12.62v-42.15h10.78v42.15q0 11.53-7.843 19.78-7.777 8.252-19.1 8.252t-19.16-8.252q-7.777-8.252-7.777-19.78z" style="stroke-width:3.492"/>
  <path id="path6" d="m323.5 218.7h-10.5l21.01-102.7 37.3 76.79 37.99-76.79 20.46 102.7h-10.98l-13.78-66.56-34.03 67.61-33.15-67.61z" style="stroke-width:3.492"/>
  <path id="path8" d="m499.3 218.7h-11.9q-1.978-4.501-1.978-9.481-10.64 10.64-23.33 10.64-6.003 0-10.71-1.841-4.707-1.842-7.501-4.844-2.728-3.001-4.159-6.412-1.364-3.478-1.364-7.026 0-3.684 1.159-6.684 1.159-3.069 2.933-5.252 1.773-2.251 4.707-3.957 2.933-1.773 5.594-2.865 2.728-1.091 6.618-1.91 3.957-0.8186 6.754-1.159 2.865-0.4093 7.026-0.6139 4.159-0.2046 6.342-0.2046 2.183-0.068 5.731-0.068-0.9548-8.524-6.275-13.5-5.252-4.98-11.87-4.98-1.637 0-3.137 0.2727-1.501 0.2727-2.796 0.8186-1.296 0.5455-2.387 1.091t-2.183 1.432q-1.023 0.8866-1.773 1.501-0.682 0.5455-1.501 1.569-0.8186 0.9548-1.159 1.432-0.3412 0.4093-0.9547 1.228-0.6139 0.8186-0.6139 0.8867l-8.866-5.455q1.228-1.841 2.046-2.933 0.8867-1.091 3.41-3.684 2.592-2.592 5.046-4.159 2.523-1.569 6.548-2.865 4.023-1.364 8.322-1.364 5.525 0 10.71 2.114 5.252 2.114 9.345 5.933t6.548 9.82q2.523 6.003 2.523 13.17v22.85q0 4.638 0.8867 9.345 0.8866 4.638 2.183 7.162zm-37.16-9.139q6.684 0 13.23-4.295 6.548-4.295 10.1-10.16v-9.209q-5.731 0.068-10.3 0.4093-4.501 0.3412-9.617 1.228-5.116 0.8866-8.524 2.319-3.41 1.432-5.661 3.957-2.251 2.524-2.251 5.933 0 3.548 3.274 6.684 3.274 3.137 9.753 3.137z" style="stroke-width:3.492"/>
  <path id="path10" d="m526.5 218.7h-10.84v-58.88h-5.933v-10.16h5.933v-15.28h10.84v15.28h19.71l-3.614 10.16h-16.1z" style="stroke-width:3.492"/>
  <path id="path12" d="m566.4 159.7q7.298-8.186 16.71-11.53l13.57 9.481q-5.867 0-10.64 1.228-4.774 1.159-7.843 3.001-3.069 1.773-5.388 4.295-2.319 2.523-3.478 4.844-1.159 2.319-1.91 4.98-0.682 2.592-0.8866 4.159-0.1366 1.569-0.1366 3.001v35.55h-10.64v-48.89q0-5.116-0.9547-11.59-0.8866-6.478-2.114-8.866h11.94q1.773 4.844 1.773 10.3z" style="stroke-width:3.492"/>
  <path id="path14" d="m611 126.8q3.206 0 5.455 2.183 2.319 2.183 2.319 5.318 0 3.069-2.319 5.182-2.251 2.114-5.455 2.114-3.342 0-5.594-2.114-2.251-2.114-2.251-5.182 0-3.137 2.251-5.318 2.319-2.183 5.594-2.183zm5.252 91.74h-10.78v-69.14h10.78z" style="stroke-width:3.492"/>
  <path id="path16" d="m646.3 218.7h-10.84v-101.8h10.84v55.8l26.74-23.26h16.16l-31.44 27.35 37.71 41.94h-13.98l-31.65-35.27-3.548 3.069z" style="stroke-width:3.492"/>
  <path id="path18" d="m747.2 164.5-10.1 3.548-0.7501-2.319q-1.296-3.548-4.023-5.318-2.66-1.841-5.731-1.841-3.614 0-5.933 2.114t-2.319 5.455q0 2.183 1.773 4.023 1.773 1.773 4.638 3.137 2.865 1.296 6.275 2.66 3.478 1.364 6.89 3.206 3.478 1.842 6.342 4.159 2.865 2.319 4.638 6.003t1.773 8.322q0 9.684-7.229 15.96-7.229 6.275-17.12 6.275-5.661 0-10.57-2.183-4.91-2.251-8.594-7.229-3.684-5.046-4.707-12.14l-0.3412-2.319 10.71-1.296 0.3412 2.183q0.8866 6.412 4.571 9.547 3.684 3.137 8.73 3.137 5.388 0 9.481-3.274 4.093-3.342 4.093-8.66 0-3.001-1.841-5.252-1.773-2.319-4.638-3.82-2.865-1.569-6.342-2.933-3.41-1.432-6.89-3.069-3.478-1.637-6.342-3.614-2.865-2.046-4.707-5.318-1.773-3.274-1.773-7.501 0-8.116 5.594-12.96 5.661-4.844 13.5-4.844 3.614 0 7.162 1.159t7.162 4.501q3.684 3.342 5.525 8.388z" style="stroke-width:3.492"/>
 </g>
 <path id="path20" style="stroke-width:3.492" d="m191.3 55.37v368.3h48.58v24.55h-73.2v-417.2h73.12v24.55z"/>
 <path id="path22" style="stroke-width:3.492" d="m808.7 53.97h-48.9v-24.55h73.4v417.2h-73.33v-24.55h48.82z"/>
</svg>
