<?xml version="1.0" encoding="UTF-8" standalone="no"?>
<svg xmlns="http://www.w3.org/2000/svg" height="500" width="1e3" version="1.0">
 <path style="stroke-width:22.1;fill:#ffb84f" d="m0.000005 0.0000025v500h1e3v-500z"/>
 <rect style="color-rendering:auto;color:#000000;isolation:auto;mix-blend-mode:normal;paint-order:stroke fill markers;shape-rendering:auto;solid-color:#000000;image-rendering:auto;fill:#e7e7df" rx="6.371" ry="10.83" height="617.8" width="589.5" y="90.7" x="205.3"/>
 <path d="m0 0.0000025v500h500v-500z" style="opacity:.05;stroke-width:15.63"/>
 <rect style="color-rendering:auto;color:#000000;isolation:auto;mix-blend-mode:normal;paint-order:stroke fill markers;shape-rendering:auto;solid-color:#000000;image-rendering:auto;fill:#cbc7ba" ry="23.66" height="47.33" width="475.1" y="155.9" x="262.5"/>
 <rect style="color-rendering:auto;color:#000000;isolation:auto;mix-blend-mode:normal;paint-order:stroke fill markers;shape-rendering:auto;solid-color:#000000;image-rendering:auto;fill:#cbc7ba" ry="23.66" height="47.33" width="475.1" y="275.9" x="262.5"/>
 <path d="m506.1 330.4 212.1-75.99v-25.51l-169.4 0.0141c-3.642 9.95-13.16 17.07-24.37 17.07-14.35 0.003-25.98-11.63-25.98-25.98s11.63-25.98 25.98-25.98c11.21 0.003 20.74 7.12 24.37 17.07h169.4v-25.51l-212.1-76-116.8 55.2v110.4l116.8 55.19z" style="clip-rule:evenodd;stroke-width:19.63;fill:#3d3b34;fill-rule:evenodd"/>
 <rect style="color-rendering:auto;color:#000000;isolation:auto;mix-blend-mode:normal;paint-order:stroke fill markers;shape-rendering:auto;solid-color:#000000;image-rendering:auto;fill:#3d3b34" ry="26.31" height="127.4" width="451.4" y="156.3" x="-56.7"/>
 <rect style="color-rendering:auto;color:#000000;isolation:auto;mix-blend-mode:normal;paint-order:stroke fill markers;shape-rendering:auto;solid-color:#000000;image-rendering:auto;fill:#cbc7ba" ry="23.66" height="47.33" width="392.7" y="375.9" x="262.5"/>
 <rect style="color-rendering:auto;color:#000000;isolation:auto;mix-blend-mode:normal;paint-order:stroke fill markers;shape-rendering:auto;solid-color:#000000;image-rendering:auto;fill:#cbc7ba" ry="23.66" height="47.33" width="475.1" y="475.9" x="262.5"/>
</svg>
