<svg xmlns="http://www.w3.org/2000/svg" width="96" height="96" viewBox="0 0 96 96"><path color="#000" overflow="visible" fill="none" d="M96 0v96H0V0z"/><path style="line-height:125%;-inkscape-font-specification:Ubuntu;text-align:center" d="M48.002 20.46c-1.95 0-3.843.825-5.232 2.288-1.39 1.463-2.186 3.477-2.186 5.56v.008c.003.833.08 1.733.44 2.625.957 2.37 2.362 4.243 3.714 5.755l1.117 1.25H24.75v4.063h3.71c2.084 0 3.855.3 5.313.94 1.433.594 2.608 1.472 3.47 2.62.886 1.102 1.5 2.428 1.845 3.946.347 1.528.397 3.142.504 4.85l.002.023v21.15h4.443V62.32c0-.576.074-1.123.23-1.632v-.002c.154-.518.403-.988.74-1.38.34-.404.78-.716 1.28-.925h.004c.514-.216 1.09-.314 1.712-.314.623 0 1.2.097 1.717.313h.003c.495.21.93.52 1.275.92l.004.003.002.004c.33.392.577.856.736 1.37v.007l.002.004c.15.508.223 1.055.223 1.632v.75h-.006v12.467h4.448V54.41c0-1.77.17-3.403.508-4.896.346-1.52.96-2.85 1.848-3.95.863-1.147 2.037-2.025 3.468-2.62 1.458-.636 3.228-.936 5.31-.936h3.706v-4.063H50.145l1.12-1.25c1.352-1.512 2.756-3.383 3.714-5.754.36-.89.437-1.792.44-2.624v-.007c0-2.085-.798-4.1-2.188-5.562-1.39-1.463-3.28-2.287-5.23-2.287z" font-size="15" font-family="Ubuntu" letter-spacing="0" word-spacing="0" text-anchor="middle" fill="gray"/><path style="line-height:normal;font-variant-ligatures:none;font-variant-position:normal;font-variant-caps:normal;font-variant-numeric:normal;font-variant-alternates:normal;font-feature-settings:normal;text-indent:0;text-align:start;text-decoration-line:none;text-decoration-style:solid;text-decoration-color:#000000;text-transform:none;block-progression:tb;shape-padding:0;isolation:auto;mix-blend-mode:normal" d="M48 6C24.83 6 6 24.828 6 48 6 71.17 24.83 89.997 48 89.997c23.174 0 42-18.827 42-42C90 24.83 71.175 6 48 6zm0 3.998c21.01 0 38 16.99 38 38C86 69.01 69.01 86 48 86S10 69.01 10 48C10 26.987 26.99 9.997 48 9.997z" color="#000" font-family="sans-serif" white-space="normal" overflow="visible" solid-color="#000000" fill="gray"/></svg>