<svg xmlns="http://www.w3.org/2000/svg" width="96" height="96" viewBox="0 0 96 96"><path color="#000" overflow="visible" fill="none" d="M96 0v96H0V0z"/><path d="M34.854 11.338c-17.515 0-31.852 11.94-31.854 27.1 0 8.748 4.768 15.93 12.742 21.505l-3.185 9.586 11.136-5.587c3.987.786 7.19 1.596 11.16 1.596.998 0 1.994-.05 2.977-.13-.624-2.122-.982-4.357-.982-6.67 0-13.915 11.945-25.217 27.08-25.217 1.038 0 2.055.076 3.072.19-2.753-12.836-16.48-22.375-32.146-22.375zm-10.346 13.55c2.386 0 3.976 1.576 3.978 3.973 0 2.39-1.592 3.994-3.978 3.994s-4.803-1.604-4.803-3.993c0-2.396 2.417-3.97 4.803-3.97zm22.293 0c2.398 0 3.985 1.576 3.985 3.973 0 2.39-1.587 3.994-3.984 3.994-2.39 0-4.782-1.604-4.782-3.993 0-2.396 2.392-3.97 4.783-3.97zm19.14 10.346c-15.157 0-27.09 10.384-27.09 23.12 0 12.76 11.933 23.117 27.09 23.117 3.17 0 6.375-.796 9.562-1.6l8.738 4.792-2.392-7.965C88.242 71.907 93.002 65.54 93 58.354c0-12.734-12.744-23.12-27.06-23.12zm-8.778 12.762c2.408 0 3.988 1.598 3.988 3.184 0 1.61-1.58 3.187-3.988 3.187-1.588 0-3.185-1.578-3.185-3.187 0-1.584 1.595-3.184 3.185-3.184zm17.524 0c2.384 0 3.98 1.598 3.98 3.184 0 1.61-1.596 3.187-3.98 3.187-1.58 0-3.168-1.578-3.168-3.187 0-1.584 1.59-3.184 3.168-3.184zm-.497 15.28a1.5 1.5 0 0 1 1.552 1.49 1.5 1.5 0 0 1-1.045 1.44c-5.817 1.94-9.433 3.064-17.88.118a1.5 1.5 0 0 1 .988-2.834c8.03 2.8 10.095 1.82 15.943-.13a1.5 1.5 0 0 1 .44-.083z" fill="gray"/></svg>