<svg xmlns="http://www.w3.org/2000/svg" width="96" height="96" viewBox="0 0 96 96"><g transform="translate(67.857146,-78.50504)" color="#000"><path overflow="visible" fill="none" d="M28.143 78.505v96h-96v-96z"/><path style="isolation:auto;mix-blend-mode:normal" d="M-53.145 100.926a70 70 0 0 1 66.59.007l-33.302 61.572zM-47.01 111.38a57.296 57.357 0 0 1 54.41.056" overflow="visible" solid-color="#000000" fill="none" stroke="gray" stroke-width="4"/><circle style="isolation:auto;mix-blend-mode:normal" cx="-31.233" cy="115.195" r="2" overflow="visible" solid-color="#000000" fill="gray"/><circle r="2" cy="128.608" cx="-17.851" style="isolation:auto;mix-blend-mode:normal" overflow="visible" solid-color="#000000" fill="gray"/><circle style="isolation:auto;mix-blend-mode:normal" cx="-21.069" cy="143.608" r="2" overflow="visible" solid-color="#000000" fill="gray"/><path style="isolation:auto;mix-blend-mode:normal" d="M-35.448 131.663a6 6 0 0 1 6.912-1.338 6 6 0 0 1 3.425 6.152 6 6 0 0 1-4.78 5.17" overflow="visible" solid-color="#000000" fill="none" stroke="gray" stroke-width="4"/><circle style="isolation:auto;mix-blend-mode:normal" cx="-9.857" cy="116.505" r="6" overflow="visible" solid-color="#000000" fill="none" stroke="gray" stroke-width="4"/></g></svg>