<svg xmlns="http://www.w3.org/2000/svg" width="96" height="96" viewBox="0 0 96 96"><g transform="translate(67.857146,-78.50504) matrix(0,-1,-1,0,373.50506,516.50504) matrix(-0.9996045,0,0,1,575.94296,-611.00001) matrix(-1,0,0,1,575.99999,611)" color="#000"><path overflow="visible" fill="none" d="M438.002 345.362h-96.038v96h96.038z"/><path style="line-height:normal;font-variant-ligatures:normal;font-variant-position:normal;font-variant-caps:normal;font-variant-numeric:normal;font-variant-alternates:normal;font-feature-settings:normal;text-indent:0;text-align:start;text-decoration-line:none;text-decoration-style:solid;text-decoration-color:#000000;text-transform:none;text-orientation:mixed;shape-padding:0;isolation:auto;mix-blend-mode:normal" d="M381.98 345.36c-13.235.002-24.01 10.77-24.01 24v.005c.008 6.803 2.974 13.208 8.005 17.74v12.503c-5.034 4.535-8 10.946-8.004 17.753 0 13.233 10.775 24.003 24.01 24.003 13.236 0 24.01-10.77 24.01-24.002v-48c0-13.23-10.774-23.998-24.01-24zm0 4.003c11.075 0 20.008 8.93 20.008 19.998v48c0 11.07-8.933 20-20.008 20-11.074 0-20.008-8.93-20.007-20 .004-5.966 2.67-11.615 7.275-15.413l.727-.6v-15.98l-.727-.6c-4.602-3.796-7.27-9.443-7.275-15.406 0-11.068 8.933-19.997 20.007-19.997z" font-family="sans-serif" white-space="normal" overflow="visible" solid-color="#000000" fill="gray"/><path style="line-height:normal;font-variant-ligatures:normal;font-variant-position:normal;font-variant-caps:normal;font-variant-numeric:normal;font-variant-alternates:normal;font-feature-settings:normal;text-indent:0;text-align:start;text-decoration-line:none;text-decoration-style:solid;text-decoration-color:#000000;text-transform:none;text-orientation:mixed;shape-padding:0;isolation:auto;mix-blend-mode:normal" d="M369.975 415.36v4.003h24.01v-4.002z" font-family="sans-serif" white-space="normal" overflow="visible" solid-color="#000000" fill="gray"/><path style="line-height:normal;font-variant-ligatures:normal;font-variant-position:normal;font-variant-caps:normal;font-variant-numeric:normal;font-variant-alternates:normal;font-feature-settings:normal;text-indent:0;text-align:start;text-decoration-line:none;text-decoration-style:solid;text-decoration-color:#000000;text-transform:none;text-orientation:mixed;shape-padding:0;isolation:auto;mix-blend-mode:normal" d="M379.98 405.36v24h4v-24z" font-family="sans-serif" white-space="normal" overflow="visible" solid-color="#000000" fill="gray"/><ellipse cx="369.362" cy="-391.984" transform="rotate(90)" rx="4" ry="4.002" overflow="visible" fill="gray"/><ellipse ry="4.002" rx="4" transform="rotate(90)" cy="-381.98" cx="379.362" overflow="visible" fill="gray"/><ellipse cx="369.362" cy="-371.976" transform="rotate(90)" rx="4" ry="4.002" overflow="visible" fill="gray"/><ellipse ry="4.002" rx="4" transform="rotate(90)" cy="-381.98" cx="359.362" overflow="visible" fill="gray"/></g></svg>