<svg xmlns="http://www.w3.org/2000/svg" width="96" height="96" viewBox="0 0 96 96"><g color="#000"><path overflow="visible" fill="none" d="M96 0v96H0V0z"/><path style="line-height:normal;font-variant-ligatures:normal;font-variant-position:normal;font-variant-caps:normal;font-variant-numeric:normal;font-variant-alternates:normal;font-feature-settings:normal;text-indent:0;text-align:start;text-decoration-line:none;text-decoration-style:solid;text-decoration-color:#000000;text-transform:none;text-orientation:mixed;shape-padding:0;isolation:auto;mix-blend-mode:normal" d="M19.977 20c-5.033.058-8.716-.118-11.727 1.543-1.506.83-2.697 2.236-3.355 3.99-.66 1.755-.897 3.837-.897 6.467v44c0 2.63.238 4.714.897 6.47.658 1.753 1.85 3.156 3.355 3.987 3.01 1.66 6.694 1.485 11.727 1.543H76.02c5.034-.058 8.717.118 11.728-1.543 1.506-.83 2.697-2.234 3.356-3.988.658-1.756.896-3.84.896-6.47V32c0-2.63-.238-4.712-.896-6.467-.66-1.754-1.85-3.16-3.356-3.99-1.585-.874-3.362-1.234-5.418-1.393l-3.957 3.9c3.68.096 6.23.326 7.44.995.735.405 1.154.853 1.544 1.893.39 1.04.64 2.692.64 5.062v44c0 2.37-.25 4.023-.64 5.063s-.81 1.487-1.543 1.892c-1.464.808-4.778.986-9.816 1.045H20c-5.04-.06-8.352-.237-9.816-1.045-.734-.405-1.153-.853-1.543-1.892C8.25 80.023 8 78.37 8 76V32c0-2.37.25-4.023.64-5.062.39-1.04.81-1.488 1.544-1.893 1.467-.81 4.783-.99 9.837-1.047h37.703L61.663 20H19.98z" font-family="sans-serif" white-space="normal" overflow="visible" solid-color="#000000" fill="gray"/><path d="M33.152 43.14L68.944 6.842l8.214 8.216-36.3 35.79z" overflow="visible" fill="gray"/><path style="line-height:normal;font-variant-ligatures:normal;font-variant-position:normal;font-variant-caps:normal;font-variant-numeric:normal;font-variant-alternates:normal;font-feature-settings:normal;text-indent:0;text-align:start;text-decoration-line:none;text-decoration-style:solid;text-decoration-color:#000000;text-transform:none;text-orientation:mixed;shape-padding:0;isolation:auto;mix-blend-mode:normal" d="M79.997 15.07l-37.89 37.355-.186.117c-.394.247-1.794 1.082-4.35 2.34-2.557 1.257-6.056 2.803-9.997 4.052L23.897 60.1l1.164-3.675c1.25-3.937 2.798-7.435 4.056-9.992 1.258-2.556 2.094-3.96 2.342-4.355l.115-.186 37.36-37.89L70.36 5.43zm-5.678-.023L68.953 9.68 34.77 44.346c.018-.023-.914 1.515-2.064 3.852-.66 1.34-1.385 3.412-2.115 5.21 1.8-.73 3.873-1.457 5.212-2.115 2.333-1.148 3.864-2.075 3.845-2.06z" font-family="sans-serif" white-space="normal" overflow="visible" solid-color="#000000" fill="gray"/><path style="line-height:normal;font-variant-ligatures:normal;font-variant-position:normal;font-variant-caps:normal;font-variant-numeric:normal;font-variant-alternates:normal;font-feature-settings:normal;text-indent:0;text-align:start;text-decoration-line:none;text-decoration-style:solid;text-decoration-color:#000000;text-transform:none;text-orientation:mixed;shape-padding:0;isolation:auto;mix-blend-mode:normal" d="M80 76H16V64h4v8h56V32h4z" font-family="sans-serif" white-space="normal" overflow="visible" solid-color="#000000" fill="gray"/></g></svg>