<svg xmlns="http://www.w3.org/2000/svg" width="96" height="96" viewBox="0 0 96 96"><g color="#000"><path overflow="visible" fill="none" d="M96 0v96H0V0z"/><path d="M49.732 4.014c-2.468-.164-5.174 1.227-8.816 4.87l-.986.983-.026-.027-.052-.053c-1.395-1.395-2.73-2.31-3.98-2.79l-.01-.005-.01-.004c-.942-.386-1.84-.567-2.717-.562-.29.002-.582.024-.873.068l-.016.004-.017.002c-1.175.136-2.36.583-3.574 1.375l-.01.006-.01.01c-1.243.766-2.482 1.766-3.722 3.006l-2.812 2.813c-1.24 1.24-2.244 2.48-3.01 3.72l-.008.01-.006.01c-.792 1.214-1.236 2.4-1.373 3.573l-.002.018-.004.017c-.176 1.16-.02 2.334.493 3.59l.004.01.004.01c.484 1.25 1.397 2.587 2.792 3.98.085.086.213.188.387.363l.706.707-.014.013 20.88 20.88-6 6.003L35.337 55c-3.37 2.198-6.64 4.494-9.815 6.887-3.215 2.434-6.542 5.37-9.98 8.808L4 82.238 13.762 92l11.543-11.543c3.438-3.438 6.374-6.766 8.808-9.98 2.393-3.174 4.69-6.446 6.887-9.815l-1.613-1.613 5.588-5.59h.002l2.85-2.85-3.143-3.143-21.606-21.865c-.513-.587-1.07-1.14-1.336-1.862-.3-.82-.45-1.75-.215-2.71.18-.917.625-1.813 1.284-2.72.616-.914 1.44-1.88 2.485-2.923l1.234-1.235c1.042-1.043 2.006-1.867 2.917-2.482.91-.66 1.807-1.105 2.725-1.285.92-.227 1.878-.14 2.746.238.86.33 1.67.892 2.443 1.666.024.02.047.054.07.077l-1.04 1.04c-8.327 8.326-4.888 11.764 1.987 18.64l25.576 25.576c6.876 6.875 10.314 10.314 18.64 1.988l4.524-4.526c8.325-8.325 4.887-11.763-1.988-18.64L59.552 10.872c-3.868-3.866-6.647-6.646-9.82-6.856zm-.634 3.957c.26-.032.467.01.728.073 1.046.257 3.473 2.205 6.91 5.643l25.576 25.576c2.15 2.148 3.84 3.887 4.75 5.174.907 1.286 1.015 1.803.94 2.45-.09.774-.87 2.552-3.7 5.384l-4.53 4.527c-1.886 1.887-3.362 2.93-4.313 3.37-.952.44-1.26.413-1.782.284-1.046-.256-3.473-2.206-6.91-5.643L41.193 29.23c-3.437-3.437-5.385-5.86-5.642-6.908-.128-.523-.156-.832.284-1.783.44-.952 1.484-2.428 3.37-4.315a3.983 3.982 0 0 0 .003-.002l4.523-4.526c1.888-1.887 3.364-2.93 4.315-3.37.475-.22.792-.324 1.053-.356zm22.888 62.49c-3.238 6.308-5.47 13.34-5.623 13.823l-.058.174c-.195.567-.305 1.17-.305 1.8C66 89.428 68.68 92 71.98 92c3.302 0 5.98-2.57 5.98-5.74 0-.63-.107-1.234-.302-1.8h.002s-2.2-7.1-5.66-13.99h-.004l-.004-.005c0-.002 0-.003-.002-.004h-.004z" overflow="visible" fill="gray"/></g></svg>