<svg xmlns="http://www.w3.org/2000/svg" width="96" height="96" viewBox="0 0 96 96"><g transform="translate(67.857146,-78.50504) matrix(0,-1,-1,0,373.50506,516.50504) matrix(-0.9996045,0,0,1,575.94296,-611.00001) matrix(-1,0,0,1,575.99999,611)" color="#000"><path overflow="visible" fill="none" d="M438.002 345.362h-96.038v96h96.038z"/><path style="line-height:normal;font-variant-ligatures:normal;font-variant-position:normal;font-variant-caps:normal;font-variant-numeric:normal;font-variant-alternates:normal;font-feature-settings:normal;text-indent:0;text-align:start;text-decoration-line:none;text-decoration-style:solid;text-decoration-color:#000000;text-transform:none;text-orientation:mixed;shape-padding:0;isolation:auto;mix-blend-mode:normal" d="M429.997 437.362h-4v-10.21l-54.02-6v-55.79h4v52.21l6.003.667v-59.335l32.013-10.285v73.176l16.004 1.777v13.79zm-20.006-16.01v-67.244l-24.008 7.713v56.864l24.01 2.667z" font-family="sans-serif" white-space="normal" overflow="visible" solid-color="#000000" fill="gray"/><ellipse cx="-413.362" cy="-357.971" transform="matrix(0,-1,-1,0,0,0)" rx="8" ry="8.003" overflow="visible" fill="gray"/><ellipse ry="8.003" rx="8" transform="matrix(0,-1,-1,0,0,0)" cy="-357.971" cx="-373.362" overflow="visible" fill="gray"/></g></svg>