<?xml version="1.0" encoding="UTF-8"?>
<svg width="1920" height="1080" version="1.1" viewBox="0 0 507.88 285.77" xmlns="http://www.w3.org/2000/svg" xmlns:xlink="http://www.w3.org/1999/xlink">
 <defs>
  <linearGradient id="linearGradient6747" x1="-2.0571" x2="510.09" y1="-.75068" y2="285.47" gradientUnits="userSpaceOnUse">
   <stop style="stop-color:#ffa742" offset="0"/>
   <stop style="stop-color:#f09731" offset="1"/>
  </linearGradient>
 </defs>
 <path d="m-1.4513-1.0901h510.93c1.4139 19.884 0.20169 40.378 0.60584 60.497v226.06c-35.495 0.79207-72.079 0.11299-107.99 0.33938h-403.55c-1.4139-19.884-0.20171-40.378-0.60584-60.497v-226.06z" style="fill:url(#linearGradient6747);"/>
 <path transform="matrix(.2646 0 0 .2646 -.077778 0)" d="m934.99 350.41c-68.454 7.606-117.89 60.847-117.89 129.3v11.408l-194.31 137.45c26.621 114.09 175.3 151.58 289.38 178.2 11.409-11.409 19.015-22.817 30.424-38.029 34.227-49.439 49.439-102.68 49.439-159.73 0-45.636 15.211-87.468 41.832-121.7 26.621-38.03 64.651-53.24 110.29-53.24 26.621 0 49.438 3.8022 72.256 11.408-22.818-15.212-49.438-26.621-76.059-34.227-15.212-3.803-30.425-3.8027-45.637-3.8027-11.409 0-22.818-2.3e-4 -34.226 3.8027-22.818-38.03-64.651-60.848-110.29-60.848zm64.65 41.832c10.502-3.7e-4 19.016 8.5134 19.016 19.016-7e-4 10.501-8.5142 19.014-19.016 19.014-10.501 4e-4 -19.015-8.5122-19.016-19.014-4e-4 -10.502 8.5134-19.016 19.016-19.016z" style="fill:#fff"/>
 <path d="m-1.6774 108.5 511.76 176.97-511.54 0.33938z" style="fill:#ffba6c"/>
</svg>
