<?xml version="1.0" encoding="UTF-8" standalone="no"?>
<svg
   xmlns:dc="http://purl.org/dc/elements/1.1/"
   xmlns:cc="http://creativecommons.org/ns#"
   xmlns:rdf="http://www.w3.org/1999/02/22-rdf-syntax-ns#"
   xmlns:svg="http://www.w3.org/2000/svg"
   xmlns="http://www.w3.org/2000/svg"
   id="svg2"
   viewBox="0 0 507.88 285.77"
   version="1.1"
   height="1080"
   width="1920">
  <metadata
     id="metadata21">
    <rdf:RDF>
      <cc:Work
         rdf:about="">
        <dc:format>image/svg+xml</dc:format>
        <dc:type
           rdf:resource="http://purl.org/dc/dcmitype/StillImage" />
        <dc:title></dc:title>
      </cc:Work>
    </rdf:RDF>
  </metadata>
  <defs
     id="defs4">
    <radialGradient
       gradientUnits="userSpaceOnUse"
       gradientTransform="matrix(8.1169 5.867 -5.7182 2.5031 220.98 -206.98)"
       r="35.057"
       cy="54.858"
       cx="21.732"
       id="radialGradient1053">
      <stop
         id="stop7"
         offset="0"
         style="stop-color:#3eb34f" />
      <stop
         id="stop9"
         offset="1"
         style="stop-color:#45c659" />
    </radialGradient>
    <clipPath
       id="clipPath4236"
       clipPathUnits="userSpaceOnUse">
      <rect
         y="24.000248"
         x="-5.0491281"
         height="23.010078"
         width="41.169033"
         id="rect4238"
         style="color:#000000;clip-rule:nonzero;display:inline;overflow:visible;visibility:visible;opacity:1;isolation:auto;mix-blend-mode:normal;color-interpolation:sRGB;color-interpolation-filters:linearRGB;solid-color:#000000;solid-opacity:1;fill:#ffffff;fill-opacity:1;fill-rule:evenodd;stroke:none;stroke-width:4.59030151;stroke-linecap:butt;stroke-linejoin:round;stroke-miterlimit:4;stroke-dasharray:27.54180805, 4.59030134;stroke-dashoffset:0;stroke-opacity:1;color-rendering:auto;image-rendering:auto;shape-rendering:auto;text-rendering:auto;enable-background:accumulate" />
    </clipPath>
    <clipPath
       id="clipPath4240"
       clipPathUnits="userSpaceOnUse">
      <rect
         y="-557.47906"
         x="-58.10714"
         height="1094.026"
         width="1952.9371"
         id="rect4242"
         style="color:#000000;clip-rule:nonzero;display:inline;overflow:visible;visibility:visible;opacity:1;isolation:auto;mix-blend-mode:normal;color-interpolation:sRGB;color-interpolation-filters:linearRGB;solid-color:#000000;solid-opacity:1;fill:#ffffff;fill-opacity:1;fill-rule:evenodd;stroke:none;stroke-width:4.59030151;stroke-linecap:butt;stroke-linejoin:round;stroke-miterlimit:4;stroke-dasharray:27.54180805, 4.59030134;stroke-dashoffset:0;stroke-opacity:1;color-rendering:auto;image-rendering:auto;shape-rendering:auto;text-rendering:auto;enable-background:accumulate" />
    </clipPath>
  </defs>
  <g
     clip-path="url(#clipPath4240)"
     id="g6"
     transform="matrix(0.26520689,0,0,0.26460184,13.683166,147.50998)">
    <path
       style="color:#000000;clip-rule:nonzero;display:inline;overflow:visible;visibility:visible;opacity:1;isolation:auto;mix-blend-mode:normal;color-interpolation:sRGB;color-interpolation-filters:linearRGB;solid-color:#000000;solid-opacity:1;fill:#ffa742;fill-opacity:1;fill-rule:evenodd;stroke:none;stroke-width:4.59030151;stroke-linecap:butt;stroke-linejoin:round;stroke-miterlimit:4;stroke-dasharray:27.54180805, 4.59030134;stroke-dashoffset:0;stroke-opacity:1;color-rendering:auto;image-rendering:auto;shape-rendering:auto;text-rendering:auto;enable-background:accumulate"
       mask="none"
       clip-path="none"
       d="m -57.066617,-561.59876 c 642.181127,0 1284.362317,0 1926.543417,0 5.3313,75.1481 0.7605,152.5993 2.2844,228.633 0,284.785153 0,569.57044 0,854.3557 -133.8407,2.99346 -271.7829,0.42704 -407.2006,1.28262 -507.20904,0 -1014.41812,0 -1521.627217,0 -5.331437,-75.14813 -0.760562,-152.59927 -2.284387,-228.63293 0,-284.785261 0,-569.57055 0,-854.35569 l 2.284387,-1.2827 z"
       id="rect4150" />
    <path
       style="fill:#ffba6c;fill-opacity:1;fill-rule:evenodd;stroke:none;stroke-width:1px;stroke-linecap:butt;stroke-linejoin:miter;stroke-opacity:1"
       mask="none"
       clip-path="none"
       d="M 2664.1774,-975.41677 C 2116.2306,-613.99291 -305.21405,349.11443 -853.16094,710.53822 31.232738,588.84926 1050.6794,677.72374 1888.5624,581.82159 l 340.146,-121.17214 -4.1493,-735.20403 c 0,0 -384.9278,-489.28115 -384.9844,-489.28115 z"
       id="path4152" />
  </g>
  <g
     clip-path="url(#clipPath4236)"
     transform="matrix(12.58063,0,0,12.58063,61.793961,-301.93824)"
     id="g4142">
    <path
       style="fill:#ffffff;fill-opacity:1"
       id="path4150"
       d="m 8.706088,35.838554 3.5,-2.299999 0,-0.300001 c 0,-1.8 1.3,-3.2 3.1,-3.4 l 0.4,0 c 1.2,0 2.3,0.6 2.9,1.6 0.3,-0.1 0.6,-0.1 0.9,-0.1 0.4,0 0.8,0 1.2,0.1 0.7,0.2 1.4,0.5 2,0.9 -0.6,-0.2 -1.2,-0.3 -1.9,-0.3 -1.2,0 -2.2,0.4 -2.9,1.4 -0.7,0.9 -1.1,2 -1.1,3.200001 0,1.499999 -0.4,2.899999 -1.3,4.2 -0.3,0.399999 -0.5,0.7 -0.8,0.999999 -3,-0.7 -5.3,-2.999999 -6,-6 z" />
    <path
       style="fill:#ffb60c;fill-opacity:1;stroke:none"
       mask="none"
       clip-path="none"
       d="m 17.462027,31.431865 c 0.03214,0.556702 -0.835518,0.719812 -1.007314,0.188924 -0.227738,-0.49876 0.500493,-0.968066 0.859952,-0.552168 0.09385,0.09592 0.147851,0.229063 0.147362,0.363244 z"
       id="circle16" />
  </g>
</svg>
