<?xml version="1.0" encoding="UTF-8" standalone="no"?>
<svg xmlns="http://www.w3.org/2000/svg" xmlns:osb="http://www.openswatchbook.org/uri/2009/osb" height="1080" width="1920" version="1.1" xmlns:xlink="http://www.w3.org/1999/xlink" viewBox="0 0 507.88392 285.76815">
 <defs>
  <linearGradient id="c">
   <stop stop-color="#ffecf0" offset="0"/>
   <stop stop-color="#ffecf0" stop-opacity="0" offset="1"/>
  </linearGradient>
  <filter id="a" style="color-interpolation-filters:sRGB" height="1" width="1" y="-.00001920" x="-.00001920">
   <feGaussianBlur stdDeviation="0.00054186664"/>
  </filter>
  <filter id="ad" style="color-interpolation-filters:sRGB" height="1" width="1" y="-.00001920" x="-.00001920">
   <feGaussianBlur stdDeviation="0.00054186664"/>
  </filter>
  <filter id="ab" style="color-interpolation-filters:sRGB" height="1" width="1" y="-.00001920" x="-.00001920">
   <feGaussianBlur stdDeviation="0.00054186664"/>
  </filter>
  <filter id="z" style="color-interpolation-filters:sRGB" height="1" width="1" y="-.00001920" x="-.00001920">
   <feGaussianBlur stdDeviation="0.00054186664"/>
  </filter>
  <filter id="x" style="color-interpolation-filters:sRGB" height="1" width="1" y="-.00001920" x="-.00001920">
   <feGaussianBlur stdDeviation="0.00054186664"/>
  </filter>
  <filter id="w" style="color-interpolation-filters:sRGB" height="1" width="1" y="-.00001920" x="-.00001920">
   <feGaussianBlur stdDeviation="0.00054186664"/>
  </filter>
  <filter id="t" style="color-interpolation-filters:sRGB" height="1" width="1" y="-.00001920" x="-.00001920">
   <feGaussianBlur stdDeviation="0.00054186664"/>
  </filter>
  <filter id="ak" style="color-interpolation-filters:sRGB" height="1" width="1" y="-.00001920" x="-.00001920">
   <feGaussianBlur stdDeviation="0.00054186664"/>
  </filter>
  <linearGradient id="b" y2="28.42" xlink:href="#c" gradientUnits="userSpaceOnUse" y1="-53.8" x2="89.69" x1="89.3"/>
  <filter id="aj" style="color-interpolation-filters:sRGB" height="1" width="1" y="-.00001920" x="-.00001920">
   <feGaussianBlur stdDeviation="0.00054186664"/>
  </filter>
  <filter id="ai" style="color-interpolation-filters:sRGB" height="1" width="1" y="-.00001920" x="-.00001920">
   <feGaussianBlur stdDeviation="0.00054186664"/>
  </filter>
  <filter id="ah" style="color-interpolation-filters:sRGB" height="1" width="1" y="-.00001920" x="-.00001920">
   <feGaussianBlur stdDeviation="0.00054186664"/>
  </filter>
  <filter id="ag" style="color-interpolation-filters:sRGB" height="1" width="1" y="-.00001920" x="-.00001920">
   <feGaussianBlur stdDeviation="0.00054186664"/>
  </filter>
  <filter id="af" style="color-interpolation-filters:sRGB" height="1" width="1" y="-.00001920" x="-.00001920">
   <feGaussianBlur stdDeviation="0.00054186664"/>
  </filter>
  <filter id="ae" style="color-interpolation-filters:sRGB" height="1" width="1" y="-.00001920" x="-.00001920">
   <feGaussianBlur stdDeviation="0.00054186664"/>
  </filter>
  <filter id="s" style="color-interpolation-filters:sRGB" height="1" width="1" y="-.00001920" x="-.00001920">
   <feGaussianBlur stdDeviation="0.00054186664"/>
  </filter>
  <filter id="r" style="color-interpolation-filters:sRGB" height="1" width="1" y="-.00001920" x="-.00001920">
   <feGaussianBlur stdDeviation="0.00054186664"/>
  </filter>
  <filter id="q" style="color-interpolation-filters:sRGB" height="1" width="1" y="-.00001920" x="-.00001920">
   <feGaussianBlur stdDeviation="0.00054186664"/>
  </filter>
  <filter id="p" style="color-interpolation-filters:sRGB" height="1" width="1" y="-.00001920" x="-.00001920">
   <feGaussianBlur stdDeviation="0.00054186664"/>
  </filter>
  <filter id="o" style="color-interpolation-filters:sRGB" height="1" width="1" y="-.00001920" x="-.00001920">
   <feGaussianBlur stdDeviation="0.00054186664"/>
  </filter>
  <filter id="n" style="color-interpolation-filters:sRGB" height="1" width="1" y="-.00001920" x="-.00001920">
   <feGaussianBlur stdDeviation="0.00054186664"/>
  </filter>
  <filter id="m" style="color-interpolation-filters:sRGB" height="1" width="1" y="-.00001920" x="-.00001920">
   <feGaussianBlur stdDeviation="0.00054186664"/>
  </filter>
  <filter id="l" style="color-interpolation-filters:sRGB" height="1" width="1" y="-.00001920" x="-.00001920">
   <feGaussianBlur stdDeviation="0.00054186664"/>
  </filter>
  <filter id="k" style="color-interpolation-filters:sRGB" height="1" width="1" y="-.00001920" x="-.00001920">
   <feGaussianBlur stdDeviation="0.00054186664"/>
  </filter>
  <filter id="aq" style="color-interpolation-filters:sRGB" height="1" width="1" y="-.00001920" x="-.00001920">
   <feGaussianBlur stdDeviation="0.00054186664"/>
  </filter>
  <filter id="j" style="color-interpolation-filters:sRGB" height="1" width="1" y="-.00001920" x="-.00001920">
   <feGaussianBlur stdDeviation="0.00054186664"/>
  </filter>
  <filter id="ac" style="color-interpolation-filters:sRGB" height="1" width="1" y="-.00001920" x="-.00001920">
   <feGaussianBlur stdDeviation="0.00054186664"/>
  </filter>
  <filter id="aa" style="color-interpolation-filters:sRGB" height="1" width="1" y="-.00001920" x="-.00001920">
   <feGaussianBlur stdDeviation="0.00054186664"/>
  </filter>
  <filter id="y" style="color-interpolation-filters:sRGB" height="1" width="1" y="-.00001920" x="-.00001920">
   <feGaussianBlur stdDeviation="0.00054186664"/>
  </filter>
  <filter id="u" style="color-interpolation-filters:sRGB" height="1" width="1" y="-.00001920" x="-.00001920">
   <feGaussianBlur stdDeviation="0.00054186664"/>
  </filter>
  <filter id="v" style="color-interpolation-filters:sRGB" height="1" width="1" y="-.00001920" x="-.00001920">
   <feGaussianBlur stdDeviation="0.00054186664"/>
  </filter>
  <linearGradient id="i" y2="20.37" gradientUnits="userSpaceOnUse" y1="-13.49" x2="7.22" x1="8.247">
   <stop stop-color="#28dba9" stop-opacity=".765" offset="0"/>
   <stop stop-color="#28dba9" offset="1"/>
  </linearGradient>
  <linearGradient id="h" y2="13.67" gradientUnits="userSpaceOnUse" y1=".03243" x2="8.082" x1="8.491">
   <stop stop-color="#33d584" offset="0"/>
   <stop stop-color="#33d584" stop-opacity="0" offset="1"/>
  </linearGradient>
  <linearGradient id="g" y2="20.41" gradientUnits="userSpaceOnUse" y1=".4064" x2="7.729" x1="8.22">
   <stop stop-color="#3bc964" offset="0"/>
   <stop stop-color="#3bc964" stop-opacity="0" offset="1"/>
  </linearGradient>
  <linearGradient id="f" y2="15.86" gradientUnits="userSpaceOnUse" y1=".7282" x2="7.532" x1="7.31">
   <stop stop-color="#6ac934" offset="0"/>
   <stop stop-color="#6ac934" stop-opacity="0" offset="1"/>
  </linearGradient>
  <linearGradient id="e" y2="14.82" gradientUnits="userSpaceOnUse" y1=".4597" x2="7.376" x1="7.314">
   <stop stop-color="#abc022" offset="0"/>
   <stop stop-color="#abc022" stop-opacity="0" offset="1"/>
  </linearGradient>
  <linearGradient id="d" y2="30" gradientUnits="userSpaceOnUse" y1="-.2610" x2="15" x1="7.002">
   <stop stop-color="#d46e2d" offset="0"/>
   <stop stop-color="#d46e2d" stop-opacity="0" offset="1"/>
  </linearGradient>
  <filter id="av" style="color-interpolation-filters:sRGB" height="1" width="1" y="-.00001920" x="-.00001920">
   <feGaussianBlur stdDeviation="0.00054186664"/>
  </filter>
  <filter id="au" style="color-interpolation-filters:sRGB" height="1" width="1" y="-.00001920" x="-.00001920">
   <feGaussianBlur stdDeviation="0.00054186664"/>
  </filter>
  <filter id="as" style="color-interpolation-filters:sRGB" height="1" width="1" y="-.00001920" x="-.00001920">
   <feGaussianBlur stdDeviation="0.00054186664"/>
  </filter>
  <filter id="ar" style="color-interpolation-filters:sRGB" height="1" width="1" y="-.00001920" x="-.00001920">
   <feGaussianBlur stdDeviation="0.00054186664"/>
  </filter>
  <filter id="at" style="color-interpolation-filters:sRGB" height="1" width="1" y="-.00001920" x="-.00001920">
   <feGaussianBlur stdDeviation="0.00054186664"/>
  </filter>
  <filter id="ap" style="color-interpolation-filters:sRGB" height="1" width="1" y="-.00001920" x="-.00001920">
   <feGaussianBlur stdDeviation="0.00054186664"/>
  </filter>
  <filter id="ao" style="color-interpolation-filters:sRGB" height="1" width="1" y="-.00001920" x="-.00001920">
   <feGaussianBlur stdDeviation="0.00054186664"/>
  </filter>
  <filter id="an" style="color-interpolation-filters:sRGB" height="1" width="1" y="-.00001920" x="-.00001920">
   <feGaussianBlur stdDeviation="0.00054186664"/>
  </filter>
  <filter id="am" style="color-interpolation-filters:sRGB" height="1" width="1" y="-.00001920" x="-.00001920">
   <feGaussianBlur stdDeviation="0.00054186664"/>
  </filter>
  <filter id="al" style="color-interpolation-filters:sRGB" height="1" width="1" y="-.00001920" x="-.00001920">
   <feGaussianBlur stdDeviation="0.00054186664"/>
  </filter>
 </defs>
 <rect ry=".1961" fill-rule="evenodd" fill-opacity=".9984" rx="0" transform="matrix(.03655 0 0 1.315 218.4 -123.3)" height="51.5" filter="url(#m)" width="181" display="none" y="4.263e-14" x="0"/>
 <rect ry=".1961" fill-rule="evenodd" fill-opacity=".9984" rx="0" transform="matrix(.03655 0 0 1.315 210.4 -123.3)" height="51.5" filter="url(#n)" width="181" display="none" y="4.263e-14" x="0"/>
 <rect ry=".1961" fill-rule="evenodd" fill-opacity=".9984" rx="0" transform="matrix(.03655 0 0 1.315 202.5 -123.3)" height="51.5" filter="url(#o)" width="181" display="none" y="4.263e-14" x="0"/>
 <rect ry=".1961" fill-rule="evenodd" fill-opacity=".9984" rx="0" transform="matrix(.03655 0 0 1.315 194.6 -123.3)" height="51.5" filter="url(#p)" width="181" display="none" y="4.263e-14" x="0"/>
 <rect ry=".1961" fill-rule="evenodd" fill-opacity=".9984" rx="0" transform="matrix(.03655 0 0 1.315 186.6 -123.3)" height="51.5" filter="url(#q)" width="181" display="none" y="4.263e-14" x="0"/>
 <rect ry=".1961" fill-rule="evenodd" fill-opacity=".9984" rx="0" transform="matrix(.03655 0 0 1.315 178.7 -123.3)" height="51.5" filter="url(#r)" width="181" y="4.263e-14" x="0"/>
 <rect ry=".1961" fill-rule="evenodd" fill-opacity=".9984" rx="0" transform="matrix(.03655 0 0 1.315 170.8 -123.3)" height="51.5" filter="url(#s)" width="181" display="none" y="4.263e-14" x="0"/>
 <rect opacity=".5790" ry=".1961" fill-rule="evenodd" rx="0" transform="matrix(.07309 0 0 .4624 164.1 -79.4)" height="51.5" filter="url(#ak)" width="181" display="none" y="4.263e-14" x="0" fill="url(#b)"/>
 <rect opacity=".6040" ry=".1961" fill-rule="evenodd" rx="0" transform="matrix(.1169 0 0 .5651 164.1 -84.69)" height="51.5" filter="url(#aj)" width="181" display="none" y="4.263e-14" x="0" fill="url(#b)"/>
 <rect opacity=".5920" ry=".1961" fill-rule="evenodd" rx="0" transform="matrix(.1608 0 0 .5908 164.1 -86.02)" height="51.5" filter="url(#ai)" width="181" display="none" y="4.263e-14" x="0" fill="url(#b)"/>
 <rect opacity=".6010" ry=".1961" fill-rule="evenodd" rx="0" transform="matrix(.2047 0 0 .6679 164.1 -89.98)" height="51.5" filter="url(#ah)" width="181" display="none" y="4.263e-14" x="0" fill="url(#b)"/>
 <rect opacity=".6070" ry=".1961" fill-rule="evenodd" rx="0" transform="matrix(.2485 0 0 .6936 164.1 -91.31)" height="51.5" filter="url(#ag)" width="181" display="none" y="4.263e-14" x="0" fill="url(#b)"/>
 <rect opacity=".5950" ry=".1961" fill-rule="evenodd" rx="0" transform="matrix(.2924 0 0 .8477 164.1 -99.24)" height="51.5" filter="url(#af)" width="181" display="none" y="4.263e-14" x="0" fill="url(#b)"/>
 <rect opacity=".6040" ry=".1961" fill-rule="evenodd" rx="0" transform="matrix(.3362 0 0 .9762 164.1 -105.9)" height="51.5" filter="url(#ae)" width="181" display="none" y="4.263e-14" x="0" fill="url(#b)"/>
 <path d="m82.06 145.8-2.021 7.152 4.322 0.0284z" transform="translate(164.1 -265.6)" filter="url(#a)" display="none" fill="#2f4d69"/>
 <path d="m7.639 0-7.639 27.03 16.33 0.11z" transform="matrix(-.002996 .2646 -.2646 -.002996 248 -85.55)" filter="url(#a)" display="none" fill="#244460"/>
 <rect ry=".1961" fill-rule="evenodd" rx="0" transform="matrix(.2770 0 0 .02683 215.8 -138.5)" height="51.5" filter="url(#av)" width="181" display="none" y="4.263e-14" x="0" fill="#244460"/>
 <rect opacity=".25" ry=".1961" fill-rule="evenodd" rx="0" transform="matrix(.007987 0 0 .3553 243.8 -156.8)" height="51.5" filter="url(#au)" width="181" display="none" y="4.263e-14" x="0" fill="#bacbda"/>
 <rect opacity=".9760" ry=".1961" fill-rule="evenodd" rx="0" transform="matrix(.03645 0 0 .02683 268.3 -108.2)" height="51.5" filter="url(#as)" width="181" display="none" y="4.263e-14" x="0" fill="#2f4d69"/>
 <rect ry=".1961" fill-rule="evenodd" rx="0" transform="matrix(.07894 0 0 .02683 237.1 -102.4)" height="51.5" filter="url(#ar)" width="181" display="none" y="4.263e-14" x="0" fill="#244460"/>
 <rect opacity=".25" ry=".1961" fill-rule="evenodd" rx="0" transform="matrix(.1442 0 0 .02518 225.1 -148.1)" height="51.5" filter="url(#at)" width="181" display="none" y="4.263e-14" x="0" fill="#bacbda"/>
 <flowRoot style="word-spacing:0px;letter-spacing:0px" xml:space="preserve" transform="matrix(1.16 0 0 1.16 136.1 -19.08)" line-height="1.25" filter="url(#a)" font-size="40px" font-family="sans-serif" fill="#000000"><flowRegion><rect y="27.26" width="32.42" x="-29.82" height="43.57"/></flowRegion><flowPara>00000000000000000000000  00ee</flowPara><flowPara/></flowRoot>
 <flowRoot style="word-spacing:0px;letter-spacing:0px" xml:space="preserve" transform="matrix(1.16 0 0 1.16 136.1 -19.08)" line-height="1.25" filter="url(#a)" font-size="21.33px" font-family="sans-serif" fill="#000000"><flowRegion font-size="21.33px"><rect height="28.53" width="114.1" y="155.4" x="21.78"/></flowRegion><flowPara/></flowRoot>
 <rect transform="matrix(7.972 0 0 4.484 -16.05 -647)" fill-rule="evenodd" ry="0" height="67.73" filter="url(#a)" width="67.73" y="142.3" x="0" fill="#123759"/>
 <rect transform="matrix(4.383 0 0 4.383 64.99 -642.7)" fill-rule="evenodd" fill-opacity=".9984" ry="0" height="14.15" filter="url(#a)" width="6.615" y="185.3" x="6.615" fill="#19c7fb"/>
 <rect ry=".1961" fill-rule="evenodd" rx="0" transform="matrix(2.008 0 0 .1176 -.07417 51.41)" height="51.5" filter="url(#a)" width="181" y="4.263e-14" x="0" fill="#f2f2f2"/>
 <rect transform="matrix(1.933 0 0 1.452 140.6 144.3)" fill-rule="evenodd" ry="0" height="60" filter="url(#a)" width="15" y="0" x="0" fill="#00ffb7"/>
 <rect transform="matrix(1.933 0 0 1.836 187.3 121.2)" fill-rule="evenodd" ry="0" height="60" filter="url(#ad)" width="15" y=".001152" x=".0002880" fill="#00ff81"/>
 <rect transform="matrix(1.933 0 0 2.126 233.9 103.8)" fill-rule="evenodd" ry="0" height="60" filter="url(#ab)" width="15" y=".001152" x=".0002880" fill="#00ff4a"/>
 <rect transform="matrix(1.933 0 0 2.184 280.6 100.4)" fill-rule="evenodd" ry="0" height="60" filter="url(#z)" width="15" y=".001152" x=".0002880" fill="#5cff00"/>
 <rect transform="matrix(1.933 0 0 2.547 327.2 78.57)" fill-rule="evenodd" ry="0" height="60" filter="url(#x)" width="15" y=".001152" x=".0002880" fill="#deff02"/>
 <rect transform="matrix(1.933 0 0 3.286 373.9 34.27)" fill-rule="evenodd" fill-opacity=".9903" ry="0" height="60" filter="url(#w)" width="15" y=".001152" x=".0002880" fill="#ff6401"/>
 <rect ry="14.93" fill-rule="evenodd" fill-opacity=".9984" rx="50.45" transform="matrix(.1608 0 0 .5629 373.9 28.47)" height="51.5" filter="url(#t)" width="181" y="4.263e-14" x="0" fill="#f00"/>
 <rect ry=".1961" fill-rule="evenodd" fill-opacity=".9984" rx="0" transform="matrix(.1279 0 0 -.3875 379.8 57.46)" height="51.5" filter="url(#l)" width="181" y="4.263e-14" x="0" fill="#f00"/>
 <rect ry=".1961" fill-rule="evenodd" fill-opacity=".9984" rx="0" transform="matrix(.1191 0 0 -.4680 373.5 52.52)" height="51.5" filter="url(#k)" width="181" y="4.263e-14" x="0" fill="#f00"/>
 <rect ry=".1961" fill-rule="evenodd" rx="0" transform="matrix(.1651 0 0 .1176 373.4 51.31)" height="51.5" filter="url(#aq)" width="181" y="4.263e-14" x="0" fill="#123759"/>
 <rect transform="matrix(1.933 0 0 1.03 140.6 169.6)" fill-rule="evenodd" ry="0" height="60" filter="url(#j)" width="15" y="0" x="0" fill="url(#i)"/>
 <rect transform="matrix(1.913 0 0 1.455 187.4 144.2)" fill-rule="evenodd" ry="0" height="60" filter="url(#ac)" width="15" y=".001152" x=".0002880" fill="url(#h)"/>
 <rect transform="matrix(1.903 0 0 1.85 234.1 120)" fill-rule="evenodd" ry="0" height="60" filter="url(#aa)" width="15" y=".001152" x=".0002880" fill="url(#g)"/>
 <rect transform="matrix(1.893 0 0 2.106 280.8 104.7)" fill-rule="evenodd" ry="0" height="60" filter="url(#y)" width="15" y=".001152" x=".0002880" fill="url(#f)"/>
 <rect transform="matrix(1.933 0 0 2.179 327.1 100.2)" fill-rule="evenodd" ry="0" height="60" filter="url(#u)" width="15" y=".001152" x=".0002880" fill="url(#e)"/>
 <rect transform="matrix(1.933 0 0 2.534 373.8 78.43)" fill-rule="evenodd" ry="0" height="60" filter="url(#v)" width="15" y=".001152" x=".0002880" fill="url(#d)"/>
 <circle opacity=".9760" fill-rule="evenodd" cx="9.859" transform="matrix(4.383 0 0 4.383 64.99 -642.7)" filter="url(#a)" cy="202.5" r="1.921" fill="#5987b0"/>
 <circle opacity=".9760" fill-rule="evenodd" cx="7.262" transform="matrix(1.16 0 0 1.16 146.4 236.6)" filter="url(#a)" cy="7.262" r="7.262" fill="#5987b0"/>
 <circle opacity=".9760" fill-rule="evenodd" cx="7.262" transform="matrix(1.16 0 0 1.16 193.1 236.6)" filter="url(#ap)" cy="7.262" r="7.262" fill="#5987b0"/>
 <circle opacity=".9760" fill-rule="evenodd" cx="7.262" transform="matrix(1.16 0 0 1.16 240.7 236.6)" filter="url(#ao)" cy="7.262" r="7.262" fill="#5987b0"/>
 <circle opacity=".9760" fill-rule="evenodd" cx="7.262" transform="matrix(1.16 0 0 1.16 286.4 236.6)" filter="url(#an)" cy="7.262" r="7.262" fill="#5987b0"/>
 <circle opacity=".9760" fill-rule="evenodd" cx="7.262" transform="matrix(1.16 0 0 1.16 333 236.6)" filter="url(#am)" cy="7.262" r="7.262" fill="#5987b0"/>
 <circle opacity=".9760" fill-rule="evenodd" cx="7.262" transform="matrix(1.16 0 0 1.16 379.7 236.6)" filter="url(#al)" cy="7.262" r="7.262" fill="#f00"/>
</svg>
