<?xml version="1.0" encoding="UTF-8"?>
<svg width="1920" height="1080" version="1.1" viewBox="0 0 507.88 285.77" xmlns="http://www.w3.org/2000/svg" xmlns:xlink="http://www.w3.org/1999/xlink">
 <defs>
  <radialGradient id="radialGradient1053" cx="21.732" cy="54.858" r="35.057" gradientTransform="matrix(8.1169 5.867 -5.7182 2.5031 220.98 -206.98)" gradientUnits="userSpaceOnUse">
   <stop style="stop-color:#3eb34f" offset="0"/>
   <stop style="stop-color:#45c659" offset="1"/>
  </radialGradient>
 </defs>
 <rect x="-.074173" y="2.8422e-14" width="508.03" height="285.77" rx="0" ry="0" style="fill:url(#radialGradient1053)"/>
 <path d="m224.07 0.0037736 283.63-0.0037736v285.77l-234.34-0.0686z" style="opacity:.096133"/>
 <path d="m243.74 81.876c-5.7928 1.8931-10.255 4.5118-9.9131 7.9931l14.24 86.612c-5.1966-2.0249-11.252-3.1021-17.439-3.1023-17.749 9e-5 -32.137 8.6775-32.137 19.382-1.3e-4 10.704 14.388 19.382 32.137 19.382 17.749-1e-4 32.137-8.6775 32.137-19.382-3.1528-23.398-8.5382-45.529-12.396-68.997 14.973-4.4306 34.598-2.625 46.478 4.6074 1.529 0.93518 3.5273-0.27841 4.4631-1.813 0.93519-1.5296 0.45273-4.2246-1.0775-5.1592-17.965-9.0325-33.876-8.9644-50.917-5.4708l-1.3653-8.3059c15.804-4.4222 38.747-4.0746 52.612 4.3106 1.9083 1.1733 4.4066 0.57367 5.5843-1.3371 1.1733-1.9064 0.57301-4.4055-1.3353-5.5807-18.846-8.9588-39.671-10.384-58.187-5.4519l-1.307-7.9488c15.001-6.0794 42.532-7.2691 59.696 3.3916 2.3087 1.3742 5.3007 0.61106 6.6737-1.7033 1.3717-2.3106 0.61258-5.2995-1.7024-6.6737-21.709-9.7085-45.029-11.474-66.244-4.7529z" style="fill:#f7f7f7"/>
 <path d="m270.39 77.85c-9.0643-0.03437-18.03 1.2951-26.648 4.0256-5.7928 1.8931-10.255 4.5126-9.9126 7.9939l1e-3 0.0043c0.28511-3.1297 4.5194-5.5217 9.9112-7.2837 21.215-6.7212 44.535-4.9546 66.244 4.7539 1.42 0.84291 2.2514 2.2931 2.3679 3.8219 0.12621-1.7791-0.72785-3.5627-2.3679-4.5363-12.89-5.7644-26.348-8.7293-39.596-8.7795zm-24.961 14.436c-0.0359 0.01431-0.0745 0.02735-0.11025 0.04185l1.3074 7.9493c18.516-4.9323 39.34-3.5072 58.186 5.4516 1.1369 0.70015 1.8059 1.8714 1.9158 3.106 0.13093-1.4836-0.56058-2.9859-1.9158-3.8205-18.846-8.9588-39.67-10.384-58.186-5.4516zm2.6358 16.021c-0.0372 0.0103-0.0759 0.0189-0.11303 0.0293l1.3646 8.3051c17.041-3.4935 32.952-3.5614 50.918 5.4712 0.90688 0.55386 1.4354 1.7264 1.5293 2.9079 0.10908-1.3963-0.43768-2.9556-1.5293-3.6223-17.965-9.0325-33.877-8.9647-50.918-5.4712zm2.4209 16.139c-0.0382 0.0113-0.0776 0.0208-0.11581 0.0321 3.8492 23.413 9.2181 45.496 12.374 68.832 8e-3 -0.18337 0.0238-0.36518 0.0238-0.54978-3.1222-23.17-8.432-45.101-12.282-68.315zm-19.856 48.932c-17.749 9e-5 -32.136 8.6787-32.136 19.383 0 0.11994 0.0119 0.2378 0.0154 0.35721 0.31689-10.539 14.571-19.025 32.121-19.026 6.1869 2e-4 12.242 1.0784 17.439 3.1032l-0.12418-0.75906c-5.1693-1.9944-11.176-3.0584-17.315-3.0586z" style="fill:#fff"/>
</svg>
