<?xml version="1.0" encoding="UTF-8"?>
<svg width="1920" height="1080" version="1.1" viewBox="0 0 507.88 285.77" xml:space="preserve" xmlns="http://www.w3.org/2000/svg"><defs><linearGradient id="linearGradient6747" x1="-2.0571" x2="510.09" y1="-.75068" y2="285.47" gradientUnits="userSpaceOnUse"><stop style="stop-color:#fff" offset="0"/><stop style="stop-color:#f0f0f0" offset="1"/></linearGradient><linearGradient id="SVGID_1_" x1="369.03" x2="441.69" y1="171.88" y2="262.58" gradientUnits="userSpaceOnUse"><stop style="stop-color:#7CC099" offset=".1296"/><stop style="stop-color:#6FB594" offset=".3785"/><stop style="stop-color:#4E9688" offset=".835"/><stop style="stop-color:#408A83" offset="1"/></linearGradient><linearGradient id="SVGID_2_" x1="936.14" x2="918.56" y1="154.45" y2="154.45" gradientTransform="matrix(.9669 .2553 -.2553 .9669 -399.66 -163.1)" gradientUnits="userSpaceOnUse"><stop style="stop-color:#DBE6E0" offset="0"/><stop style="stop-color:#BCDED3" offset="1"/></linearGradient><linearGradient id="SVGID_3_" x1="451.02" x2="442.74" y1="201.95" y2="243.38" gradientUnits="userSpaceOnUse"><stop style="stop-color:#7CC099" offset="0"/><stop style="stop-color:#78BC98" offset=".2568"/><stop style="stop-color:#6CB193" offset=".5165"/><stop style="stop-color:#589F8C" offset=".7767"/><stop style="stop-color:#408A83" offset="1"/></linearGradient><linearGradient id="SVGID_4_" x1="457.62" x2="457.48" y1="234.57" y2="234.57" gradientUnits="userSpaceOnUse"><stop style="stop-color:#DBE6E0" offset="0"/><stop style="stop-color:#BCDED3" offset="1"/></linearGradient><linearGradient id="SVGID_5_" x1="467.88" x2="457.62" y1="223.49" y2="223.49" gradientUnits="userSpaceOnUse"><stop style="stop-color:#DBE6E0" offset="0"/><stop style="stop-color:#BCDED3" offset="1"/></linearGradient><linearGradient id="SVGID_6_" x1="457.48" x2="452.44" y1="235.82" y2="235.82" gradientUnits="userSpaceOnUse"><stop style="stop-color:#DBE6E0" offset="0"/><stop style="stop-color:#BCDED3" offset="1"/></linearGradient><linearGradient id="SVGID_7_" x1="452.19" x2="460.47" y1="227.28" y2="227.28" gradientUnits="userSpaceOnUse"><stop style="stop-color:#6AA583" offset="0"/><stop style="stop-color:#4C9E96" offset="1"/></linearGradient><linearGradient id="SVGID_8_" x1="473.17" x2="455.24" y1="268.9" y2="283.95" gradientTransform="matrix(.9997 .0227 -.0227 .9997 -36.401 -7.9207)" gradientUnits="userSpaceOnUse"><stop style="stop-color:#7CC099" offset="0"/><stop style="stop-color:#57BAAE" offset="1"/></linearGradient><linearGradient id="SVGID_9_" x1="447.13" x2="470.95" y1="274.66" y2="274.66" gradientTransform="matrix(.9997 .0227 -.0227 .9997 -36.401 -7.9207)" gradientUnits="userSpaceOnUse"><stop style="stop-color:#7CC099" offset="0"/><stop style="stop-color:#76BA97" offset=".2327"/><stop style="stop-color:#65AB90" offset=".5485"/><stop style="stop-color:#489186" offset=".9106"/><stop style="stop-color:#408A83" offset="1"/></linearGradient><linearGradient id="SVGID_10_" x1="415.22" x2="422.05" y1="260.94" y2="252.79" gradientUnits="userSpaceOnUse"><stop style="stop-color:#4C9E96" offset="0"/><stop style="stop-color:#489790" offset=".4859"/><stop style="stop-color:#408A83" offset="1"/></linearGradient><linearGradient id="SVGID_11_" x1="425.61" x2="393.75" y1="203.17" y2="239.43" gradientUnits="userSpaceOnUse"><stop style="stop-color:#7CC099" offset="0"/><stop style="stop-color:#77BF9C" offset=".3183"/><stop style="stop-color:#6ABDA3" offset=".6757"/><stop style="stop-color:#57BAAE" offset="1"/></linearGradient></defs><path d="m-1.4513-1.0901h510.93c1.4139 19.884 0.20169 40.378 0.60584 60.497v226.06c-35.495 0.79207-72.079 0.11299-107.99 0.33938h-403.55c-1.4139-19.884-0.20171-40.378-0.60584-60.497v-226.06z" style="fill:url(#linearGradient6747)"/><g transform="matrix(.75819 0 0 .75819 -63.799 -36.279)"><path d="m433.7 212.6c-5.9-10.1-19-17.9-27.5-21-8.5-3.2-18-10.1-18-10.1-7.5-5-9.7-9-13.7-14-1.2 2.6-2.2 5.8-3 9.6 1.8 3.1 8.7 13.4 28.1 21.5 1.7 0.7 6.9 2.8 7 2.9l6.5 2.6-6.7-1.9c-0.2-0.1-5.5-1.6-7.3-2.2-17.3-6.3-25-15.1-28-19.9-0.8 4.9-1.1 10.6-0.7 16.5 5.2 4.7 14 11 26.9 15.4 0.9 0.3 3.6 1.3 3.6 1.3l3.4 1.2-3.5-0.5c-0.1 0-3-0.4-4-0.6-12.1-2.9-20.5-8.4-26.1-13.3 0.5 4.3 1.4 8.6 2.8 13 0.3 1 0.7 2.1 1.1 3 4.4 2 9.6 3.9 15.4 5.2 1.1 0.2 4.3 1.1 4.3 1.1l3.8 1-4-0.2c-0.1 0-3.4-0.2-4.5-0.4-5.1-0.7-9.8-2-13.9-3.6 6.6 13.7 18.8 21.4 35.2 27.5 18.7 7 19.4 25 19.4 25s5.1-3.8 9.6-18.4c5.1-16.2-0.3-30.6-6.2-40.7z" style="fill:url(#SVGID_1_)"/><path d="m458.6 233.8c4.9-3.6 6.9-7.8 8.5-12.5 0.7-2.1 1.3-5 0.3-8.1-0.8-2.5-6.5-6.2-11.2-4.7-5.1 1.7-6.1 8.1-6.5 10.9-0.6 4.3 0.4 10.9 2.8 17.6-0.1 0 2.1-0.2 6.1-3.2z" style="fill:url(#SVGID_2_)"/><path d="m449.7 219.4c0.4-2.8 1.4-9.2 6.5-10.9 4.2-1.4 9.3 1.5 10.8 3.9-1.5-3.9-5.6-6.6-9-8.3-4.8-2.5-10.8-2.9-15.7-1.7-4.6 1.1-7 3.6-10.9 6.9 0.8 1.1 1.6 2.2 2.2 3.3 4.6 8 9 18.6 8.2 30.6 3-5 9.7-6.1 10.6-6.2-2.4-6.6-3.4-13.3-2.7-17.6z" style="fill:url(#SVGID_3_)"/><path d="m457.6 234.5c-0.1 0-0.1 0.1-0.1 0.1s0.1 0 0.1-0.1z" style="fill:url(#SVGID_4_)"/><path d="m467.4 213.2c-0.1-0.2-0.2-0.5-0.4-0.8 0.7 1.7 0.8 3.7 0.1 5.9-1.5 4.9-1.8 7.1-6.1 12.9-1 1.3-2.2 2.4-3.4 3.2 0.3-0.2 0.6-0.4 1-0.7 4.9-3.6 6.9-7.8 8.5-12.5 0.7-2 1.2-4.9 0.3-8z" style="fill:url(#SVGID_5_)"/><path d="m452.4 237s1.8-0.2 5-2.4c-2.5 1.7-4.9 2.4-4.9 2.4h-0.1z" style="fill:url(#SVGID_6_)"/><path d="m458.2 217.6c-1-0.3-2 0-2.8 0.6-0.2 0.3-0.3 0.6-0.4 0.9-0.4 1.6 0.5 3.3 2.2 3.7 0.7 0.2 1.3 0.1 1.9-0.1-0.9 6.9-5.9 12.4-6.9 13.5 0.1 0.4 0.2 0.5 0.2 0.7 0.3 0 0.4-0.1 0.9-0.2 1.7-1.9 6.7-7.9 7-15.5 0.5-1.5-0.5-3.1-2.1-3.6z" style="fill:url(#SVGID_7_)"/><path d="m405.5 261.4c1.5 12.7 7.5 31.7 27.8 47.9 0 0 10.1-15.4 0.4-32.5s-23.8-22.7-28.8-24.5c-0.2 3.6 0.4 6.8 0.6 9.1z" style="fill:url(#SVGID_8_)"/><path d="m423.7 272.8c-5.7-10-12.8-16.8-18.8-20.5-0.1 3.2 0.4 7 0.6 9.1 1.2 10.8 5.8 26.1 19.6 40.4 2.4-5.5 5.5-16.8-1.4-29z" style="fill:url(#SVGID_9_)"/><path d="m411.9 246.7c-2-0.8-4.9-1.6-6.8-2.4-0.3 2.5-0.2 5.1-0.2 8.1 4.4 1.6 16.1 6.2 25.5 19.3v-0.3c-0.2-2.3-1.1-18.3-18.5-24.7z" style="fill:url(#SVGID_10_)"/><path d="m433.7 212.6c-5.9-10.1-19-17.9-27.5-21-8.5-3.2-18-10.1-18-10.1-2.1-1.4-3.8-2.7-5.2-4-0.4 3.6-0.6 7.5-0.4 11.6 4.2 3.2 9.7 6.5 16.9 9.5 1.7 0.7 6.9 2.8 7 2.9l6.5 2.6-6.7-1.9c-0.2-0.1-5.5-1.6-7.3-2.2-6.8-2.5-12.1-5.3-16.2-8.2 0.4 5 1.3 10.1 2.9 15.2 3.4 1.8 7.2 3.4 11.6 4.9 0.9 0.3 3.6 1.3 3.6 1.3l3.4 1.2-3.5-0.5c-0.1 0-3-0.4-4-0.6-3.7-0.9-7-2-10-3.3 1.9 4.8 4.4 8.8 7.4 12.3h0.1l3.8 1-3.2-0.2c6.9 7.7 16.3 13.3 26.3 21.3 13.5 10.8 9.2 27.2 9.2 27.2s0.8-0.6 1.5-1.5c1.8-2.1 5.1-7 8.1-16.9 5-16.1-0.4-30.5-6.3-40.6z" style="fill:url(#SVGID_11_)"/></g></svg>
