<?xml version="1.0" encoding="UTF-8" standalone="no"?>
<svg
   xmlns:dc="http://purl.org/dc/elements/1.1/"
   xmlns:cc="http://creativecommons.org/ns#"
   xmlns:rdf="http://www.w3.org/1999/02/22-rdf-syntax-ns#"
   xmlns:svg="http://www.w3.org/2000/svg"
   xmlns="http://www.w3.org/2000/svg"
   xmlns:sodipodi="http://sodipodi.sourceforge.net/DTD/sodipodi-0.dtd"
   xmlns:inkscape="http://www.inkscape.org/namespaces/inkscape"
   height="1080"
   width="1920"
   version="1.1"
   viewBox="0 0 507.88392 285.76815"
   id="svg19"
   sodipodi:docname="tuxracer-banner.svg"
   inkscape:version="0.92.5 (0.92.5+68)">
  <metadata
     id="metadata23">
    <rdf:RDF>
      <cc:Work
         rdf:about="">
        <dc:format>image/svg+xml</dc:format>
        <dc:type
           rdf:resource="http://purl.org/dc/dcmitype/StillImage" />
        <dc:title></dc:title>
      </cc:Work>
    </rdf:RDF>
  </metadata>
  <sodipodi:namedview
     pagecolor="#ffffff"
     bordercolor="#666666"
     borderopacity="1"
     objecttolerance="10"
     gridtolerance="10"
     guidetolerance="10"
     inkscape:pageopacity="0"
     inkscape:pageshadow="2"
     inkscape:window-width="1859"
     inkscape:window-height="1056"
     id="namedview21"
     showgrid="false"
     inkscape:zoom="0.36786989"
     inkscape:cx="487.01794"
     inkscape:cy="758.08453"
     inkscape:window-x="61"
     inkscape:window-y="24"
     inkscape:window-maximized="1"
     inkscape:current-layer="svg19">
    <sodipodi:guide
       position="0,0"
       orientation="0,1920"
       id="guide4859"
       inkscape:locked="false" />
    <sodipodi:guide
       position="507.88392,0"
       orientation="-1080,0"
       id="guide4861"
       inkscape:locked="false" />
    <sodipodi:guide
       position="507.88392,285.76815"
       orientation="0,-1920"
       id="guide4863"
       inkscape:locked="false" />
    <sodipodi:guide
       position="0,285.76815"
       orientation="1080,0"
       id="guide4865"
       inkscape:locked="false" />
  </sodipodi:namedview>
  <defs
     id="defs7">
    <radialGradient
       id="a"
       gradientUnits="userSpaceOnUse"
       cy="146.2"
       cx="253.9"
       gradientTransform="matrix(.9451 0 0 .9815 13.93 6.405)"
       r="107.3">
      <stop
         style="stop-color:#111"
         offset="0"
         id="stop2" />
      <stop
         style="stop-color:#111;stop-opacity:0"
         offset="1"
         id="stop4" />
    </radialGradient>
    <clipPath
       clipPathUnits="userSpaceOnUse"
       id="clipPath4793">
      <rect
         style="color:#000000;clip-rule:nonzero;display:inline;overflow:visible;visibility:visible;opacity:1;isolation:auto;mix-blend-mode:normal;color-interpolation:sRGB;color-interpolation-filters:linearRGB;solid-color:#000000;solid-opacity:1;vector-effect:none;fill:#0b0725;fill-opacity:1;fill-rule:nonzero;stroke:none;stroke-width:0.26501682;stroke-linecap:round;stroke-linejoin:round;stroke-miterlimit:4;stroke-dasharray:none;stroke-dashoffset:0;stroke-opacity:1;marker:none;paint-order:stroke fill markers;color-rendering:auto;image-rendering:auto;shape-rendering:auto;text-rendering:auto;enable-background:accumulate"
         id="rect4795"
         width="144.75754"
         height="103.62553"
         x="-4.2720933"
         y="116.35931"
         rx="1.52361" />
    </clipPath>
    <clipPath
       clipPathUnits="userSpaceOnUse"
       id="clipPath4797">
      <rect
         style="color:#000000;clip-rule:nonzero;display:inline;overflow:visible;visibility:visible;opacity:1;isolation:auto;mix-blend-mode:normal;color-interpolation:sRGB;color-interpolation-filters:linearRGB;solid-color:#000000;solid-opacity:1;vector-effect:none;fill:#0b0725;fill-opacity:1;fill-rule:nonzero;stroke:none;stroke-width:0.26501682;stroke-linecap:round;stroke-linejoin:round;stroke-miterlimit:4;stroke-dasharray:none;stroke-dashoffset:0;stroke-opacity:1;marker:none;paint-order:stroke fill markers;color-rendering:auto;image-rendering:auto;shape-rendering:auto;text-rendering:auto;enable-background:accumulate"
         id="rect4799"
         width="144.75754"
         height="103.62553"
         x="-4.2720933"
         y="116.35931"
         rx="1.52361" />
    </clipPath>
    <clipPath
       clipPathUnits="userSpaceOnUse"
       id="clipPath4801">
      <rect
         style="color:#000000;clip-rule:nonzero;display:inline;overflow:visible;visibility:visible;opacity:1;isolation:auto;mix-blend-mode:normal;color-interpolation:sRGB;color-interpolation-filters:linearRGB;solid-color:#000000;solid-opacity:1;vector-effect:none;fill:#0b0725;fill-opacity:1;fill-rule:nonzero;stroke:none;stroke-width:0.26501682;stroke-linecap:round;stroke-linejoin:round;stroke-miterlimit:4;stroke-dasharray:none;stroke-dashoffset:0;stroke-opacity:1;marker:none;paint-order:stroke fill markers;color-rendering:auto;image-rendering:auto;shape-rendering:auto;text-rendering:auto;enable-background:accumulate"
         id="rect4803"
         width="144.75754"
         height="103.62553"
         x="-4.2720933"
         y="116.35931"
         rx="1.52361" />
    </clipPath>
    <clipPath
       clipPathUnits="userSpaceOnUse"
       id="clipPath4805">
      <rect
         style="color:#000000;clip-rule:nonzero;display:inline;overflow:visible;visibility:visible;opacity:1;isolation:auto;mix-blend-mode:normal;color-interpolation:sRGB;color-interpolation-filters:linearRGB;solid-color:#000000;solid-opacity:1;vector-effect:none;fill:#0b0725;fill-opacity:1;fill-rule:nonzero;stroke:none;stroke-width:0.26501682;stroke-linecap:round;stroke-linejoin:round;stroke-miterlimit:4;stroke-dasharray:none;stroke-dashoffset:0;stroke-opacity:1;marker:none;paint-order:stroke fill markers;color-rendering:auto;image-rendering:auto;shape-rendering:auto;text-rendering:auto;enable-background:accumulate"
         id="rect4807"
         width="144.75754"
         height="103.62553"
         x="-4.2720933"
         y="116.35931"
         rx="1.52361" />
    </clipPath>
    <clipPath
       clipPathUnits="userSpaceOnUse"
       id="clipPath4809">
      <rect
         style="color:#000000;clip-rule:nonzero;display:inline;overflow:visible;visibility:visible;opacity:1;isolation:auto;mix-blend-mode:normal;color-interpolation:sRGB;color-interpolation-filters:linearRGB;solid-color:#000000;solid-opacity:1;vector-effect:none;fill:#0b0725;fill-opacity:1;fill-rule:nonzero;stroke:none;stroke-width:0.26501682;stroke-linecap:round;stroke-linejoin:round;stroke-miterlimit:4;stroke-dasharray:none;stroke-dashoffset:0;stroke-opacity:1;marker:none;paint-order:stroke fill markers;color-rendering:auto;image-rendering:auto;shape-rendering:auto;text-rendering:auto;enable-background:accumulate"
         id="rect4811"
         width="144.75754"
         height="103.62553"
         x="-4.2720933"
         y="116.35931"
         rx="1.52361" />
    </clipPath>
    <clipPath
       clipPathUnits="userSpaceOnUse"
       id="clipPath4813">
      <rect
         style="color:#000000;clip-rule:nonzero;display:inline;overflow:visible;visibility:visible;opacity:1;isolation:auto;mix-blend-mode:normal;color-interpolation:sRGB;color-interpolation-filters:linearRGB;solid-color:#000000;solid-opacity:1;vector-effect:none;fill:#0b0725;fill-opacity:1;fill-rule:nonzero;stroke:none;stroke-width:0.26501682;stroke-linecap:round;stroke-linejoin:round;stroke-miterlimit:4;stroke-dasharray:none;stroke-dashoffset:0;stroke-opacity:1;marker:none;paint-order:stroke fill markers;color-rendering:auto;image-rendering:auto;shape-rendering:auto;text-rendering:auto;enable-background:accumulate"
         id="rect4815"
         width="144.75754"
         height="103.62553"
         x="-4.2720933"
         y="116.35931"
         rx="1.52361" />
    </clipPath>
    <clipPath
       clipPathUnits="userSpaceOnUse"
       id="clipPath4821">
      <rect
         style="color:#000000;clip-rule:nonzero;display:inline;overflow:visible;visibility:visible;opacity:1;isolation:auto;mix-blend-mode:normal;color-interpolation:sRGB;color-interpolation-filters:linearRGB;solid-color:#000000;solid-opacity:1;vector-effect:none;fill:#0b0725;fill-opacity:1;fill-rule:nonzero;stroke:none;stroke-width:0.26501682;stroke-linecap:round;stroke-linejoin:round;stroke-miterlimit:4;stroke-dasharray:none;stroke-dashoffset:0;stroke-opacity:1;marker:none;paint-order:stroke fill markers;color-rendering:auto;image-rendering:auto;shape-rendering:auto;text-rendering:auto;enable-background:accumulate"
         id="rect4823"
         width="144.75754"
         height="103.62553"
         x="-4.2720933"
         y="116.35931"
         rx="1.52361" />
    </clipPath>
  </defs>
  <g
     id="g4773"
     transform="translate(41.959932,43.485747)">
    <rect
       style="color:#000000;clip-rule:nonzero;display:inline;overflow:visible;visibility:visible;opacity:1;isolation:auto;mix-blend-mode:normal;color-interpolation:sRGB;color-interpolation-filters:linearRGB;solid-color:#000000;solid-opacity:1;vector-effect:none;fill:#c5dbe7;fill-opacity:1;fill-rule:nonzero;stroke:none;stroke-width:0.26501682;stroke-linecap:round;stroke-linejoin:round;stroke-miterlimit:4;stroke-dasharray:none;stroke-dashoffset:0;stroke-opacity:1;marker:none;paint-order:stroke fill markers;color-rendering:auto;image-rendering:auto;shape-rendering:auto;text-rendering:auto;enable-background:accumulate"
       id="rect4867"
       width="508.03226"
       height="285.76816"
       x="-42.034103"
       y="-43.485748"
       rx="1.52361" />
    <path
       style="fill:#8fcfff;fill-opacity:1;fill-rule:evenodd;stroke:none;stroke-width:0.26460013px;stroke-linecap:butt;stroke-linejoin:miter;stroke-opacity:1"
       d="m -85.95745,-95.305053 c 0,0 -67.75235,101.367486 -16.55372,105.259002 C 159.78512,-7.8715989 503.8737,250.67799 506.77381,-83.549815 Z"
       id="path4883"
       inkscape:connector-curvature="0"
       sodipodi:nodetypes="cccc" />
    <path
       style="fill:#efefef;fill-opacity:1;fill-rule:evenodd;stroke:none;stroke-width:0.26460013px;stroke-linecap:butt;stroke-linejoin:miter;stroke-opacity:1"
       d="m -71.568127,32.889265 c 0,0 -9.154895,-127.151308 -9.154895,-131.220149 0,-4.068836 151.599279,10.019886 151.599279,10.019886 C 312.0046,164.67787 188.06709,153.81397 -71.568127,32.889265 Z"
       id="path4892"
       inkscape:connector-curvature="0"
       sodipodi:nodetypes="cscc" />
    <g
       id="g4890"
       transform="matrix(1.226951,0,0,1.226951,-12.638389,-39.968282)">
      <path
         inkscape:connector-curvature="0"
         id="path4879"
         d="m 124.11875,137.62769 c 0,0 15.1048,30.92888 52.86682,28.05178 37.76201,-2.87711 42.4373,-4.6753 42.4373,-4.6753 l 23.01686,-20.13974 9.35057,-39.91984 V 66.059682 l -59.69993,-4.675297 c 0,0 -32.72708,62.217415 -35.24455,65.454155 -2.51746,3.23674 -32.72707,10.78915 -32.72707,10.78915 z"
         style="fill:#fffdf7;fill-opacity:1;fill-rule:evenodd;stroke:none;stroke-width:0.26460013px;stroke-linecap:butt;stroke-linejoin:miter;stroke-opacity:1" />
      <path
         transform="matrix(1.7177733,0,0,1.7177733,52.654171,-183.10637)"
         clip-path="url(#clipPath4805)"
         sodipodi:nodetypes="ccsscssccsccccccssscsssccccscccccscccsccsccccccscccssccccscccsccccsccscssccccccscccccccsscccccccccccssc"
         inkscape:connector-curvature="0"
         id="path4781"
         d="m 89.304237,201.64237 c 0.07277,-0.0784 1.101779,-0.51532 2.286695,-0.97091 4.04336,-1.55466 8.437178,-4.63493 12.156578,-8.52233 2.82787,-2.9556 3.58439,-4.52266 4.21714,-8.73543 0.2365,-1.57459 0.81497,-3.70951 1.49044,-5.50068 0.60717,-1.61002 1.02952,-3.00173 0.93856,-3.09269 -0.091,-0.091 -0.76892,0.37725 -1.50657,1.04046 -1.76674,1.58845 -3.43758,2.14423 -5.92393,1.97048 -2.41643,-0.16886 -4.132118,-0.83761 -7.864379,-3.06545 -3.06203,-1.82776 -5.851638,-3.21849 -6.455831,-3.21849 -0.18301,0 -0.842629,0.6609 -1.465816,1.46866 -0.623189,0.80777 -2.224877,2.28929 -3.559311,3.29227 -3.149718,2.36738 -4.007387,3.2627 -6.355644,6.63463 -1.070969,1.53783 -2.461033,3.31228 -3.08903,3.94322 -2.393567,2.40477 -7.196724,4.96418 -15.234336,8.11778 -14.762181,5.792 -25.337248,7.66337 -27.893995,4.93612 -0.51457,-0.54888 -0.610292,-0.92399 -0.590614,-2.31439 0.03962,-2.79937 1.524772,-5.49681 5.711905,-10.37442 1.284202,-1.49597 2.334913,-2.79866 2.334913,-2.89485 0,-0.0962 -0.412194,-1.20515 -0.915987,-2.46435 -1.463638,-3.65824 -2.260103,-7.34822 -2.432744,-11.27078 -0.124368,-2.8257 -0.284268,-3.82348 -0.895669,-5.58897 -1.048626,-3.02802 -3.340521,-7.50873 -3.840737,-7.50873 -0.645566,0 -6.392615,1.05291 -8.716971,1.59703 -1.16424,0.27254 -4.379132,1.15774 -7.144203,1.96712 -5.9404518,1.73884 -7.49925,1.98951 -8.4594413,1.36037 -0.8693289,-0.56961 -0.8439744,-1.10562 0.1245372,-2.63281 1.061993,-1.67458 1.0382047,-2.6436 -0.091011,-3.70732 -0.4866462,-0.45842 -1.2801195,-1.07163 -1.7632743,-1.36269 -1.2821506,-0.77239 -1.5387569,-1.30457 -1.0536742,-2.18524 0.4028028,-0.73128 1.2383756,-1.20458 6.367534,-3.6068 2.2870376,-1.07113 2.6216346,-1.3226 3.4398026,-2.58525 1.017289,-1.56995 2.188439,-2.46533 3.788005,-2.89605 1.642261,-0.44222 2.93496,-0.13268 6.032718,1.44455 3.578471,1.82199 5.424986,2.43295 9.350048,3.09371 3.705971,0.62387 5.214134,1.34882 5.668182,2.72461 0.16097,0.48774 0.215437,1.08807 0.121039,1.33406 -0.189446,0.49369 0.59762,2.80871 0.954912,2.80871 0.123585,0 0.484293,-0.36457 0.801572,-0.81015 l 0.576873,-0.81014 -0.718016,-2.16661 c -1.74671,-5.27068 -0.867513,-11.37095 1.984734,-13.77095 1.236116,-1.04013 2.460696,-1.28415 4.63622,-0.92385 2.417726,0.4004 3.238595,0.0602 3.819654,-1.58324 0.222862,-0.63032 0.623705,-1.26702 0.890763,-1.4149 0.637797,-0.35316 2.209482,0.0461 4.763757,1.2101 2.558131,1.16578 3.675706,1.34054 5.334688,0.83423 3.839451,-1.17178 5.688903,0.23563 5.688903,4.32919 0,1.18655 0.118049,1.92078 0.33075,2.05717 0.309503,0.19847 9.563164,1.30375 11.114713,1.34532 8.406092,-11.8597 8.217305,-13.97796 19.248215,-15.36887 5.795716,-0.0227 9.232046,1.35005 13.097706,5.23243 2.62127,2.63261 4.06914,5.01283 5.24636,8.62477 1.39773,4.28852 2.13917,11.45298 1.73728,16.78714 -0.13158,1.74636 -0.29387,3.90459 -0.36065,4.79607 -0.10434,1.39282 -0.78222,5.63918 -1.35773,8.50502 -0.35668,1.77612 0.45919,3.05359 4.77079,7.47002 2.20218,2.25571 4.89018,5.1134 5.97334,6.3504 1.08317,1.23701 2.77236,3.1086 3.75377,4.15911 2.96746,3.17638 3.8097,5.65105 2.59321,7.61938 -0.75572,1.22278 -1.7329,1.54584 -4.16913,1.37832 -2.3518,-0.16172 -9.3921,-2.21784 -15.14434,-4.42291 -4.88711,-1.87343 -4.62468,-1.85803 -6.3504,-0.37271 -4.5489,3.91517 -11.759961,7.32717 -16.272909,7.69972 -1.018711,0.0841 -1.792666,0.0887 -1.719901,0.0103 z m 0.08189,-40.54274 c 0.517177,-0.21609 0.999532,-0.4887 1.0719,-0.60579 0.07237,-0.1171 -0.217162,-0.73217 -0.643404,-1.36683 -0.63893,-0.95134 -0.774987,-1.42796 -0.774987,-2.71485 0,-2.31558 1.047192,-3.91083 2.919788,-4.44788 2.472159,-0.70901 5.018215,1.70449 5.018215,4.75694 0,0.5868 0.109198,1.0669 0.242663,1.0669 0.133467,0 0.80444,-0.24081 1.491053,-0.53512 l 1.248389,-0.53512 -0.136439,-1.69972 c -0.157323,-1.95993 -1.250709,-4.53853 -2.5537,-6.02255 -2.634751,-3.00082 -7.021006,-2.65792 -9.326382,0.7291 -2.074407,3.04767 -2.322912,7.68769 -0.591085,11.03667 0.432756,0.83686 0.724523,0.88538 2.033989,0.33825 z m 24.411433,-3.20846 c 0.69998,-2.58595 0.4434,-5.85915 -0.62303,-7.94802 -0.91345,-1.78923 -1.76784,-2.60227 -3.1298,-2.97832 -2.80888,-0.77557 -5.69102,2.61324 -6.05451,7.11889 -0.0881,1.09147 -0.0551,2.13755 0.0733,2.32462 0.12838,0.18707 0.6703,0.41103 1.20427,0.49767 l 0.97083,0.15755 v -1.36612 c 0,-4.81821 4.61649,-6.28523 5.83422,-1.85398 0.38949,1.41733 0.0278,3.5663 -0.79453,4.72121 -0.70491,0.98995 -0.68475,1.18911 0.18617,1.83954 l 0.72765,0.54344 0.57975,-0.7046 c 0.31887,-0.38753 0.78041,-1.44588 1.02566,-2.35188 z m -22.391907,-3.4439 c 0.31135,-0.5277 0.506849,-1.01869 0.434447,-1.09109 -0.43618,-0.43618 -1.953858,1.22918 -1.616956,1.7743 0.296596,0.4799 0.599515,0.30489 1.182509,-0.68321 z m 17.078777,-0.6229 c 0.80144,-1.26957 0.83035,-1.59285 0.14241,-1.59285 -0.56894,0 -1.32979,1.20362 -1.32979,2.10366 0,0.84131 0.45828,0.64416 1.18738,-0.51081 z"
         style="fill:#fad005;stroke-width:0.26460013" />
      <path
         transform="matrix(1.7177733,0,0,1.7177733,52.654171,-183.10637)"
         clip-path="url(#clipPath4801)"
         sodipodi:nodetypes="ccsscssccsccccccssscsssccccscccccscccsccsccccccsccccccssccccscccscccccccccscccsccccscccccccccsccscssccccccscccccccssccccccccsccccscscccccccssccscsccccccscc"
         inkscape:connector-curvature="0"
         id="path4779"
         d="m 89.304237,201.64237 c 0.07277,-0.0784 1.101779,-0.51532 2.286695,-0.97091 4.04336,-1.55466 8.437178,-4.63493 12.156578,-8.52233 2.82787,-2.9556 3.58439,-4.52266 4.21714,-8.73543 0.2365,-1.57459 0.81497,-3.70951 1.49044,-5.50068 0.60717,-1.61002 1.02952,-3.00173 0.93856,-3.09269 -0.091,-0.091 -0.76892,0.37725 -1.50657,1.04046 -1.76674,1.58845 -3.43758,2.14423 -5.92393,1.97048 -2.41643,-0.16886 -4.132118,-0.83761 -7.864379,-3.06545 -3.06203,-1.82776 -5.851638,-3.21849 -6.455831,-3.21849 -0.18301,0 -0.842629,0.6609 -1.465816,1.46866 -0.623189,0.80777 -2.224877,2.28929 -3.559311,3.29227 -3.149718,2.36738 -4.007387,3.2627 -6.355644,6.63463 -1.070969,1.53783 -2.461033,3.31228 -3.08903,3.94322 -2.393567,2.40477 -7.196724,4.96418 -15.234336,8.11778 -14.762181,5.792 -25.337248,7.66337 -27.893995,4.93612 -0.51457,-0.54888 -0.610292,-0.92399 -0.590614,-2.31439 0.03962,-2.79937 1.524772,-5.49681 5.711905,-10.37442 1.284202,-1.49597 2.334913,-2.79866 2.334913,-2.89485 0,-0.0962 -0.412194,-1.20515 -0.915987,-2.46435 -1.463638,-3.65824 -2.260103,-7.34822 -2.432744,-11.27078 -0.124368,-2.8257 -0.284268,-3.82348 -0.895669,-5.58897 -1.048626,-3.02802 -3.340521,-7.50873 -3.840737,-7.50873 -0.645566,0 -6.392615,1.05291 -8.716971,1.59703 -1.16424,0.27254 -4.379132,1.15774 -7.144203,1.96712 -5.9404518,1.73884 -7.49925,1.98951 -8.4594413,1.36037 -0.8693289,-0.56961 -0.8439744,-1.10562 0.1245372,-2.63281 1.061993,-1.67458 1.0382047,-2.6436 -0.091011,-3.70732 -0.4866462,-0.45842 -1.2801195,-1.07163 -1.7632743,-1.36269 -1.2821506,-0.77239 -1.5387569,-1.30457 -1.0536742,-2.18524 0.4028028,-0.73128 1.2383756,-1.20458 6.367534,-3.6068 2.2870376,-1.07113 2.6216346,-1.3226 3.4398026,-2.58525 1.017289,-1.56995 2.188439,-2.46533 3.788005,-2.89605 1.642261,-0.44222 2.93496,-0.13268 6.032718,1.44455 3.578471,1.82199 5.424986,2.43295 9.350048,3.09371 3.705971,0.62387 5.214134,1.34882 5.668182,2.72461 0.16097,0.48774 0.215437,1.08807 0.121039,1.33406 -0.189446,0.49369 0.59762,2.80871 0.954912,2.80871 0.123585,0 0.484293,-0.36457 0.801572,-0.81015 l 0.576873,-0.81014 -0.718016,-2.16661 c -1.74671,-5.27068 -0.867513,-11.37095 1.984734,-13.77095 1.236116,-1.04013 2.460696,-1.28415 4.63622,-0.92385 2.417726,0.4004 3.238595,0.0602 3.819654,-1.58324 0.222862,-0.63032 0.623705,-1.26702 0.890763,-1.4149 0.637797,-0.35316 2.209482,0.0461 4.763757,1.2101 2.558131,1.16578 3.675706,1.34054 5.334688,0.83423 3.839451,-1.17178 5.688903,0.23563 5.688903,4.32919 0,1.18655 0.118049,1.92078 0.33075,2.05717 0.309503,0.19847 7.157481,1.08169 8.70903,1.12326 0.601214,0.0161 0.849856,-0.24036 1.690655,-1.74385 3.821845,-6.24014 3.609223,-6.00718 10.735062,-11.31908 0.636832,-0.35483 2.229507,-0.96594 3.539278,-1.35803 2.017163,-0.60384 2.887285,-0.71486 5.688903,-0.72585 5.795716,-0.0227 9.232046,1.35005 13.097706,5.23243 2.62127,2.63261 4.06914,5.01283 5.24636,8.62477 1.39773,4.28852 2.13917,11.45298 1.73728,16.78714 -0.13158,1.74636 -0.29387,3.90459 -0.36065,4.79607 -0.10434,1.39282 -0.78222,5.63918 -1.35773,8.50502 -0.35668,1.77612 0.45919,3.05359 4.77079,7.47002 2.20218,2.25571 4.89018,5.1134 5.97334,6.3504 1.08317,1.23701 2.77236,3.1086 3.75377,4.15911 2.96746,3.17638 3.8097,5.65105 2.59321,7.61938 -0.75572,1.22278 -1.7329,1.54584 -4.16913,1.37832 -2.3518,-0.16172 -9.3921,-2.21784 -15.14434,-4.42291 -4.88711,-1.87343 -4.62468,-1.85803 -6.3504,-0.37271 -4.5489,3.91517 -11.759961,7.32717 -16.272909,7.69972 -1.018711,0.0841 -1.792666,0.0887 -1.719901,0.0103 z m 12.568503,-29.29376 c -0.29106,-0.12171 -1.35134,-0.47609 -2.356185,-0.7875 -2.433519,-0.75419 -3.984549,-1.50906 -7.304093,-3.55482 -3.811514,-2.34896 -3.905884,-2.42531 -3.506224,-2.83674 0.408513,-0.42055 1.400737,0.0156 4.412157,1.93941 4.080335,2.60668 7.665825,3.90917 10.761195,3.90917 h 1.66586 l 1.41261,-1.52146 c 0.77694,-0.83679 1.72386,-2.15274 2.10427,-2.92433 0.61599,-1.24941 0.65882,-1.51249 0.39146,-2.40485 -0.50998,-1.70215 -1.73681,-3.14194 -2.95723,-3.47057 -0.63818,-0.17184 -1.47922,-0.69984 -2.05776,-1.29186 -1.18278,-1.21031 -3.13848,-2.01843 -4.31519,-1.78309 -0.45809,0.0916 -2.016982,0.76821 -3.464199,1.50353 -1.447214,0.73531 -3.697437,1.68533 -5.000492,2.11115 -2.993729,0.97831 -3.318523,1.15769 -3.807244,2.10277 -1.176936,2.27595 0.217424,4.11694 4.435595,5.85637 1.036031,0.42723 2.425893,1.0843 3.088582,1.46017 2.063275,1.17025 4.303991,1.92418 5.703088,1.91892 0.95813,-0.004 1.17705,-0.066 0.7938,-0.22627 z m -3.660298,-11.82629 c -0.451749,-0.45175 -0.145194,-1.35921 0.551249,-1.63181 2.305489,-0.90242 3.318859,-0.0715 1.394409,1.14339 -1.063132,0.67113 -1.622528,0.81155 -1.945658,0.48842 z m -8.826314,0.57731 c 0.517177,-0.21609 0.999532,-0.4887 1.0719,-0.60579 0.07237,-0.1171 -0.217162,-0.73217 -0.643404,-1.36683 -0.63893,-0.95134 -0.774987,-1.42796 -0.774987,-2.71485 0,-2.31558 1.047192,-3.91083 2.919788,-4.44788 2.472159,-0.70901 5.018215,1.70449 5.018215,4.75694 0,0.5868 0.109198,1.0669 0.242663,1.0669 0.133467,0 0.80444,-0.24081 1.491053,-0.53512 l 1.248389,-0.53512 -0.136439,-1.69972 c -0.157323,-1.95993 -1.250709,-4.53853 -2.5537,-6.02255 -2.634751,-3.00082 -7.021006,-2.65792 -9.326382,0.7291 -2.074407,3.04767 -2.322912,7.68769 -0.591085,11.03667 0.432756,0.83686 0.724523,0.88538 2.033989,0.33825 z m 24.411432,-3.20846 c 0.69998,-2.58595 0.4434,-5.85915 -0.62303,-7.94802 -0.91345,-1.78923 -1.76784,-2.60227 -3.1298,-2.97832 -2.80888,-0.77557 -5.69102,2.61324 -6.05451,7.11889 -0.0881,1.09147 -0.0551,2.13755 0.0733,2.32462 0.12838,0.18707 0.6703,0.41103 1.20427,0.49767 l 0.97083,0.15755 v -1.36612 c 0,-4.81821 4.61649,-6.28523 5.83422,-1.85398 0.38949,1.41733 0.0278,3.5663 -0.79453,4.72121 -0.70491,0.98995 -0.68475,1.18911 0.18617,1.83954 l 0.72765,0.54344 0.57975,-0.7046 c 0.31887,-0.38753 0.78041,-1.44588 1.02566,-2.35188 z M 18.055421,156.7462 c 2.003915,-0.42753 5.191394,-1.02331 7.083285,-1.32396 3.871693,-0.61526 5.497764,-1.28687 6.416553,-2.65019 0.630648,-0.93577 0.765721,-2.10919 0.335354,-2.91333 -0.170251,-0.31812 -1.334775,-0.82388 -3.373651,-1.4652 -1.712511,-0.53867 -4.107415,-1.50293 -5.322009,-2.1428 -3.748762,-1.97493 -5.913603,-1.42675 -7.760306,1.96505 -0.303266,0.55701 -1.035872,1.11229 -2.321953,1.75995 -3.067208,1.54462 -3.5056363,2.26258 -2.130095,3.48819 0.672558,0.59926 0.793801,0.90038 0.793801,1.97154 0,1.00649 0.1199,1.34824 0.588076,1.67617 0.814124,0.57023 1.516812,0.52511 5.690945,-0.36542 z m 73.350233,-2.29893 c 0.31135,-0.5277 0.506849,-1.01869 0.434447,-1.09109 -0.43618,-0.43618 -1.953858,1.22918 -1.616956,1.7743 0.296596,0.4799 0.599515,0.30489 1.182509,-0.68321 z m 17.078776,-0.6229 c 0.80144,-1.26957 0.83035,-1.59285 0.14241,-1.59285 -0.56894,0 -1.32979,1.20362 -1.32979,2.10366 0,0.84131 0.45828,0.64416 1.18738,-0.51081 z M 60.595123,141.89951 c 1.164241,-0.13639 2.801454,-0.24889 3.638252,-0.24999 l 1.52145,-0.002 v -1.33502 c 0,-1.06183 -0.131887,-1.46692 -0.644468,-1.9795 -0.608254,-0.60826 -0.797817,-0.64136 -3.373651,-0.58907 -2.479986,0.0503 -2.87111,-0.0105 -4.283559,-0.66651 -1.871662,-0.86926 -2.823741,-0.91236 -3.498167,-0.15838 -0.277235,0.30994 -0.953108,0.84885 -1.501942,1.19758 -0.868396,0.55177 -0.96067,0.70358 -0.71112,1.16986 0.157717,0.2947 1.083042,1.13106 2.056281,1.85858 1.981712,1.48138 1.268043,1.40216 6.796924,0.75446 z"
         style="fill:#e1b31f;stroke-width:0.26460013" />
      <path
         sodipodi:nodetypes="ccsscssccsccccccsssssccccssccsscccccscssccccscccsccccccccccccccscssccccccsccccscsssccccccccscccccssc"
         transform="matrix(1.7177733,0,0,1.7177733,52.654171,-183.10637)"
         clip-path="url(#clipPath4797)"
         inkscape:connector-curvature="0"
         id="path4777"
         d="m 89.304237,201.64237 c 0.07277,-0.0784 1.101779,-0.51532 2.286695,-0.97091 4.04336,-1.55466 8.437178,-4.63493 12.156578,-8.52233 2.82787,-2.9556 3.58439,-4.52266 4.21714,-8.73543 0.2365,-1.57459 0.81497,-3.70951 1.49044,-5.50068 0.60717,-1.61002 1.02952,-3.00173 0.93856,-3.09269 -0.091,-0.091 -0.76892,0.37725 -1.50657,1.04046 -1.76674,1.58845 -3.43758,2.14423 -5.92393,1.97048 -2.41643,-0.16886 -4.132118,-0.83761 -7.864379,-3.06545 -3.06203,-1.82776 -5.851638,-3.21849 -6.455831,-3.21849 -0.18301,0 -0.842629,0.6609 -1.465816,1.46866 -0.623189,0.80777 -2.224877,2.28929 -3.559311,3.29227 -3.149718,2.36738 -4.007387,3.2627 -6.355644,6.63463 -1.070969,1.53783 -2.461033,3.31228 -3.08903,3.94322 -2.393567,2.40477 -7.196724,4.96418 -15.234336,8.11778 -14.762181,5.792 -25.337248,7.66337 -27.893995,4.93612 -0.51457,-0.54888 -0.610292,-0.92399 -0.590614,-2.31439 0.03962,-2.79937 1.524772,-5.49681 5.711905,-10.37442 1.284202,-1.49597 2.334913,-2.79866 2.334913,-2.89485 0,-0.0962 -0.413427,-1.20824 -0.918728,-2.4712 -0.505302,-1.26296 -1.244245,-3.59959 -1.642098,-5.19251 -0.646553,-2.58867 -0.724605,-3.38793 -0.735022,-7.52672 l -0.01164,-4.6305 0.977955,-2.82368 c 0.537876,-1.55302 1.341599,-3.54404 1.78605,-4.4245 0.444444,-0.88046 0.808087,-1.78283 0.808087,-2.00528 0,-0.22244 0.110962,-0.40444 0.246583,-0.40444 0.135618,0 0.506175,-0.36457 0.823454,-0.81015 l 0.576873,-0.81014 -0.718016,-2.16661 c -1.7478,-5.27398 -0.867605,-11.37087 1.988549,-13.77416 1.223792,-1.02975 13.090864,5.89362 13.090864,5.89362 l 1.852201,-0.39857 c 1.018711,-0.21921 3.724768,-0.50083 6.013459,-0.62584 3.445879,-0.1882 4.901511,-0.14167 8.467204,0.27068 2.368271,0.27387 4.563606,0.50159 4.878522,0.50605 0.338919,1.03923 3.08978,-4.67427 4.570764,-6.44175 8.001745,-9.54965 14.586779,-8.70658 16.950834,-8.71583 5.795723,-0.0227 9.232053,1.35005 13.097713,5.23243 2.62127,2.63261 4.06914,5.01283 5.24636,8.62477 1.39773,4.28852 2.13917,11.45298 1.73728,16.78714 -0.13158,1.74636 -0.29387,3.90459 -0.36065,4.79607 -0.10434,1.39282 -0.78222,5.63918 -1.35773,8.50502 -0.35668,1.77612 0.45919,3.05359 4.77079,7.47002 2.20218,2.25571 4.89018,5.1134 5.97334,6.3504 1.08317,1.23701 2.77236,3.1086 3.75377,4.15911 2.96746,3.17638 3.8097,5.65105 2.59321,7.61938 -0.75572,1.22278 -1.7329,1.54584 -4.16913,1.37832 -2.3518,-0.16172 -9.3921,-2.21784 -15.14434,-4.42291 -4.88711,-1.87343 -4.62468,-1.85803 -6.3504,-0.37271 -4.5489,3.91517 -11.759968,7.32717 -16.272916,7.69972 -1.018711,0.0841 -1.792666,0.0887 -1.719901,0.0103 z m 16.830173,-26.52991 c 1.3941,-0.67709 5.30778,-4.4686 6.94377,-6.72701 1.63845,-2.26182 1.60969,-4.06206 -0.0975,-6.10548 l -0.91491,-1.09507 0.63502,-0.83844 c 1.05406,-1.39173 1.55165,-3.62037 1.42159,-6.36712 -0.097,-2.0485 -0.2387,-2.65296 -0.94622,-4.03619 -1.73509,-3.39215 -4.4492,-4.09745 -6.73445,-1.75006 -1.5823,1.62533 -2.36796,3.67746 -2.41348,6.30395 -0.0212,1.22657 -0.0982,2.24487 -0.17095,2.26289 -0.0728,0.018 -0.98014,0.07 -2.01638,0.11554 l -1.884092,0.0828 -0.129358,-1.80796 c -0.148332,-2.07312 -1.203586,-4.61231 -2.557804,-6.15468 -2.634751,-3.00082 -7.021006,-2.65792 -9.326382,0.7291 -2.135511,3.13745 -2.333252,7.98443 -0.457343,11.2102 l 0.522045,0.8977 -0.642515,0.6899 c -0.928963,0.99749 -1.237143,1.7126 -1.230565,2.85547 0.01233,2.14453 1.629241,4.28846 3.644472,4.8324 0.53912,0.14552 2.17092,0.99328 3.626221,1.88392 6.613811,4.04764 9.298531,4.68422 12.728871,3.01816 z M 90.435741,160.62527 c 0.07702,-0.20071 -0.205597,-0.87956 -0.628034,-1.50856 -0.631653,-0.9405 -0.76807,-1.42086 -0.76807,-2.70455 0,-2.31558 1.047192,-3.91083 2.919788,-4.44788 2.570119,-0.7371 5.018215,1.70718 5.018215,5.01039 0,1.27739 -0.03727,1.34218 -1.145694,1.99176 -1.101785,0.64569 -3.178504,1.44451 -4.775125,1.83678 -0.588391,0.14456 -0.729338,0.10418 -0.62108,-0.17794 z m 0.969913,-6.178 c 0.31135,-0.5277 0.506849,-1.01869 0.434447,-1.09109 -0.43618,-0.43618 -1.953858,1.22918 -1.616956,1.7743 0.296596,0.4799 0.599515,0.30489 1.182509,-0.68321 z m 17.875896,4.76663 c -0.29106,-0.22528 -1.09479,-0.69978 -1.78605,-1.05444 l -1.25686,-0.64486 v -1.59164 c 0,-1.8467 0.47403,-3.15576 1.48052,-4.08854 2.24697,-2.08242 5.1399,0.90539 4.39455,4.53867 -0.31921,1.55606 -1.31869,3.26314 -1.90606,3.25554 -0.2183,-0.003 -0.63504,-0.18946 -0.9261,-0.41473 z m -0.79712,-5.38953 c 0.80144,-1.26957 0.83035,-1.59285 0.14241,-1.59285 -0.56894,0 -1.32979,1.20362 -1.32979,2.10366 0,0.84131 0.45828,0.64416 1.18738,-0.51081 z"
         style="fill:#53665b;stroke-width:0.26460013" />
      <path
         transform="matrix(1.7177733,0,0,1.7177733,52.654171,-183.10637)"
         clip-path="url(#clipPath4793)"
         inkscape:connector-curvature="0"
         id="path4775"
         d="m 32.83617,200.52613 c -1.939527,-0.69113 -2.423618,-1.82373 -1.87787,-4.39358 0.354527,-1.66941 2.227512,-4.85478 4.187485,-7.12162 2.910858,-3.36659 6.531326,-6.03629 13.277732,-9.79088 4.095195,-2.27911 6.048254,-3.71327 6.481645,-4.75957 0.461402,-1.11392 0.175493,-1.62955 -0.346251,-0.62446 -0.631264,1.21607 -2.216793,2.4671 -5.140307,4.05585 -4.65316,2.5287 -6.26027,3.49701 -8.212241,4.94802 -1.058831,0.78709 -2.030139,1.36618 -2.158457,1.28688 -0.418232,-0.25849 -1.908576,-4.14611 -2.58333,-6.73872 -1.235304,-4.74642 -1.050579,-10.85923 0.466918,-15.45106 0.995844,-3.01335 3.113127,-6.99146 4.897233,-9.20131 0.953177,-1.18063 1.68441,-2.19524 1.624962,-2.25469 -0.05945,-0.0594 -0.660238,0.37794 -1.335093,0.97197 -0.674857,0.59403 -1.34505,1.0071 -1.48932,0.91794 -0.144273,-0.0892 -0.448569,-0.78212 -0.676215,-1.5399 -1.550864,-5.16247 -0.806419,-10.7034 1.748115,-13.01126 1.206085,-1.08963 1.906876,-1.30338 3.757812,-1.14621 2.100642,0.17837 3.232201,0.87659 6.410507,3.95554 l 2.920582,2.82928 1.711822,-0.36486 c 3.793625,-0.80857 8.047326,-0.99271 12.428128,-0.53801 5.070241,0.52627 6.842236,0.80103 7.149829,1.10862 0.268543,0.26854 -1.446834,4.33643 -2.383052,5.65123 -0.324998,0.45642 -0.53947,0.88129 -0.476601,0.94416 0.34117,0.34117 1.666706,-1.72461 2.942949,-4.58643 1.757905,-3.94189 3.093366,-6.22719 5.421477,-9.27744 3.173238,-4.15753 5.738938,-6.02384 10.233309,-7.44376 2.579957,-0.8151 6.962751,-1.01033 9.790202,-0.43609 7.45102,1.51325 12.86647,7.59784 14.66101,16.47253 1.4359,7.10112 1.3989,13.50165 -0.13265,22.94446 -0.35027,2.15959 -0.63685,4.27783 -0.63685,4.70719 0,1.45293 1.10936,2.99671 5.01417,6.97768 3.73495,3.8078 9.2842,9.85976 11.03219,12.0316 1.16887,1.4523 1.78853,3.19277 1.5636,4.39176 -0.38178,2.03507 -2.13182,2.80756 -5.17375,2.28377 -2.55926,-0.44067 -10.15174,-2.78897 -14.86768,-4.59846 l -4.15138,-1.59287 -1.84821,1.5478 c -1.01651,0.85129 -2.86598,2.18493 -4.10992,2.96363 -2.31673,1.45026 -6.893307,3.57209 -7.365301,3.41476 -0.144858,-0.0483 0.480985,-0.54725 1.390765,-1.10879 2.242901,-1.3844 5.854876,-4.42678 7.875036,-6.63318 2.36082,-2.57846 3.39835,-4.8234 3.89997,-8.43854 0.23485,-1.69256 0.68146,-3.5497 1.08173,-4.49821 1.53571,-3.63907 2.21196,-5.86754 2.21657,-7.30437 0.004,-1.18064 0.15689,-1.68003 0.81117,-2.64601 1.32435,-1.95524 1.83724,-3.10018 1.83724,-4.1013 0,-1.00802 -0.74659,-2.71932 -1.43596,-3.29145 -0.56684,-0.47043 -0.52618,-0.87509 0.23983,-2.38674 2.66307,-5.25532 0.13866,-13.23552 -4.18818,-13.23973 -3.01957,-0.003 -5.3614,3.24415 -5.66039,7.84846 l -0.14031,2.16054 -1.48555,0.0955 c -0.81705,0.0525 -1.56384,-0.0159 -1.65952,-0.15205 -0.34424,-0.4899 0.10239,-0.92081 1.13525,-1.09531 0.78673,-0.13292 1.02996,-0.28808 0.96426,-0.61511 -0.0911,-0.45366 -1.01394,-0.55331 -1.82696,-0.19729 -0.34015,0.14895 -0.4691,-0.0165 -0.61372,-0.78738 -0.727764,-3.87932 -4.057489,-7.25322 -7.158262,-7.25322 -2.40024,0 -4.844084,1.87317 -6.191349,4.74556 -0.617288,1.31608 -0.687878,1.78113 -0.684605,4.51028 0.0033,2.76128 0.0711,3.18777 0.732514,4.60827 0.717672,1.54134 0.721173,1.57384 0.227865,2.1168 -0.837205,0.92149 -1.096328,1.64494 -1.096328,3.06088 0,1.39926 0.40142,2.42777 1.523864,3.9044 0.373258,0.49105 0.583136,1.03574 0.491299,1.27507 -0.462135,1.2043 -2.714916,3.53003 -5.238045,5.40766 -1.554293,1.15665 -3.211434,2.58264 -3.682538,3.16886 -0.873747,1.08726 -1.561784,1.38197 -1.561784,0.66897 0,-0.87268 -0.422381,-0.31937 -0.723327,0.94754 -1.181913,4.97557 -5.52402,8.46318 -15.504313,12.45317 -4.682017,1.87181 -14.750769,5.42724 -17.773476,6.27608 -4.928064,1.38392 -8.477918,1.70902 -10.559945,0.96711 z M 86.2462,149.27528 c 0.804707,-1.36226 2.287355,-2.86601 3.370739,-3.41871 1.187102,-0.60561 1.305489,-1.03621 0.282648,-1.02805 -1.138773,0.009 -2.841686,0.90859 -3.566275,1.88374 -0.652052,0.87753 -1.262677,2.3501 -1.262677,3.04504 0,0.64764 0.670716,0.37262 1.175565,-0.48202 z m 18.07527,-1.13288 c 0.45688,-0.64819 1.32698,-1.49181 1.93354,-1.87472 1.34664,-0.8501 1.10753,-1.41767 -0.38915,-0.92372 -1.20441,0.39748 -2.46433,1.64687 -2.76048,2.73737 -0.44264,1.62994 0.0913,1.65676 1.21609,0.0611 z m -14.13308,10.95279 c -0.740115,-1.11838 -1.228181,-3.95307 -0.680628,-3.95307 0.14798,0 0.337593,0.1786 0.421362,0.3969 0.274055,0.71417 0.910619,0.41853 1.737767,-0.80707 0.957114,-1.41817 0.987099,-1.61557 0.279505,-1.84015 -0.841058,-0.26694 -0.335788,-0.66028 0.848176,-0.66028 2.214936,0 3.71493,1.74646 3.71493,4.32532 0,1.60657 -0.556126,2.20649 -2.836286,3.05961 -2.17219,0.81271 -2.649269,0.74135 -3.484826,-0.52126 z m 18.29957,-0.78259 c -1.57185,-0.92542 -1.98471,-1.43034 -1.98471,-2.42725 0,-0.80594 0.23063,-0.93049 0.76377,-0.41248 0.27347,0.2657 0.41597,0.22667 0.7246,-0.19845 1.13863,-1.56841 1.68683,-2.60716 1.68683,-3.19626 0,-0.5828 0.0629,-0.62541 0.54336,-0.36827 0.29884,0.15994 0.78133,0.67018 1.07218,1.13386 1.0707,1.70696 0.30247,5.97516 -1.11439,6.19135 -0.20287,0.031 -0.96411,-0.29417 -1.69164,-0.7225 z"
         style="fill:#050808;stroke-width:0.26460013" />
    </g>
  </g>
</svg>
