<?xml version="1.0" encoding="UTF-8" standalone="no"?>
<svg xmlns="http://www.w3.org/2000/svg" height="1080" width="1920" version="1.1" xmlns:xlink="http://www.w3.org/1999/xlink" viewBox="0 0 507.88392 285.76815">
 <defs>
  <radialGradient id="a" gradientUnits="userSpaceOnUse" cy="146.2" cx="253.9" gradientTransform="matrix(.9451 0 0 .9815 13.93 6.405)" r="107.3">
   <stop style="stop-color:#111" offset="0"/>
   <stop style="stop-color:#111;stop-opacity:0" offset="1"/>
  </radialGradient>
 </defs>
 <rect style="color-rendering:auto;color:#000000;isolation:auto;mix-blend-mode:normal;paint-order:stroke fill markers;shape-rendering:auto;solid-color:#000000;image-rendering:auto;stroke-width:5.649;fill:#df382c" height="289.1" width="506.8" y="-1.662" x=".5404"/>
 <path style="opacity:.3;stroke-width:3.191;fill:url(#a)" d="m253.9 44.64c-30.04 30.04-62.96 44.33-101.4 52.34 0 14.85 1.833 29 5.245 42.31 10.35 55.43 48.14 97.47 96.14 115.9 48.38-18.63 85.86-60.88 96.14-116 3.414-13.32 5.243-27.46 5.243-42.26-38.2-7.96-71.2-22.14-101.4-52.34z"/>
 <path style="stroke-width:3.059;fill:#d6d3cf" d="m253.9 57.44c-28.12 28.12-58.91 41.48-94.88 48.96 0 67.65 40.64 119.9 94.88 140.8 54.7-21.06 94.88-73.63 94.88-140.8-35.74-7.446-66.61-20.71-94.88-48.96zm-27.1 55.37h11.35v33.2c0 7.73 1.22 13.26 3.661 16.6 2.441 3.337 6.55 5.003 12.33 5.003 1.22 0 2.481-0.0403 3.783-0.1218 1.302-0.0811 2.522-0.1619 3.661-0.2432 1.139-0.1628 2.157-0.2852 3.053-0.3665 0.9763-0.1628 1.668-0.3256 2.075-0.4882v-53.57h11.35v61.64c-2.603 0.6509-6.061 1.342-10.37 2.075-4.231 0.7322-9.155 1.098-14.77 1.098-4.882 0-8.991-0.6915-12.33-2.075-3.337-1.464-6.021-3.499-8.054-6.102-2.034-2.603-3.499-5.654-4.393-9.153-0.895-3.58-1.343-7.527-1.343-11.84z"/>
 <path style="stroke-width:3.136;fill:#f6f6f5" d="m253.9 45.28c-28.8 28.8-60.36 42.5-97.2 50.18 0 69.32 41.65 122.8 97.2 144.2 56.05-21.59 97.2-75.46 97.2-144.2-36.63-7.629-68.27-21.23-97.2-50.18zm-27.1 67.53h11.35v33.2c0 7.73 1.22 13.26 3.661 16.6 2.441 3.337 6.55 5.003 12.33 5.003 1.22 0 2.481-0.0403 3.783-0.1218 1.302-0.0811 2.522-0.1619 3.661-0.2432 1.139-0.1628 2.157-0.2852 3.053-0.3665 0.9763-0.1628 1.668-0.3256 2.075-0.4882v-53.57h11.35v61.64c-2.603 0.6509-6.061 1.342-10.37 2.075-4.231 0.7322-9.155 1.098-14.77 1.098-4.882 0-8.991-0.6915-12.33-2.075-3.337-1.464-6.021-3.499-8.054-6.102-2.034-2.603-3.499-5.654-4.393-9.153-0.895-3.58-1.343-7.527-1.343-11.84z"/>
 <rect style="opacity:.1;color-rendering:auto;color:#000000;isolation:auto;mix-blend-mode:normal;paint-order:stroke fill markers;shape-rendering:auto;solid-color:#000000;image-rendering:auto;stroke-width:5.384;fill:#fff" height="102.5" width="506.8" y="184.8" x=".5879"/>
</svg>
