<?xml version="1.0" encoding="UTF-8" standalone="no"?>
<svg id="svg12" xmlns="http://www.w3.org/2000/svg" height="500" width="1e3" version="1.1" viewBox="0 0 248.04686 124.02343">
 <rect id="rect2" style="color-rendering:auto;color:#000000;isolation:auto;mix-blend-mode:normal;paint-order:stroke fill markers;shape-rendering:auto;solid-color:#000000;image-rendering:auto;stroke-width:2.59;fill:#225684" height="124" width="248" y="6.47e-8" x="1.294e-7"/>
 <path id="path4" style="opacity:.1;stroke-width:2.486;fill:#e2e2e2" d="m116.8 17.52v18h4.435l4.5-2.25v-4.5l2.249-2.25-4.5-2.249 1.575-1.8c8.773 1.35 16.87 4.5 23.85 9.223l-0.6755 1.575 2.25 4.5-2.25 2.25 2.25 4.5h2.249v4.5h-2.249l-2.25 4.5h-2.249l2.249 2.25 2.25 2.249v2.25h-4.5l-2.25 2.249v4.5h4.5v2.25l2.25-2.25h2.249v-4.5h2.25l-2.25-2.249h4.5l6.749 4.5-2.25 2.249 2.25 2.25 2.25-4.5 2.249 4.5h2.25l2.249 4.5h-2.249l-2.25-2.249-2.249 2.249h-2.25l-2.25-2.249-2.249-4.5h-4.5l-2.25 2.25h-4.475l-2.249 2.25-2.25 4.5h-2.25l-2.249 6.747v4.5l-2.25 2.249v2.25l2.25 2.249 2.249 4.5 4.5 2.25h4.5l4.5-2.25 2.249 2.25-2.249 4.5 2.249 2.25v6.747h-2.249l-2.25 4.5v2.25l-4.5 6.749v2.024c-8.982 5.84-19.76 9.211-31.42 9.223v4.5c34.6-0.0348 62.92-28.37 62.92-62.99-0.00003-34.63-28.32-62.95-62.92-62.99zm31.42 35.97v-4.5l-4.5-4.5h-2.25l2.25 2.249h-2.25v4.5h2.25v-2.25h2.25v2.25zm-22.5-18 2.249 2.249 2.25 2.25 4.5-2.25-2.25-2.249h-4.5zm27 2.249h2.25l2.249 4.5 2.25 2.25v2.249l-2.25 2.25h-2.249l2.249-2.25v-4.5h-2.249zm15.75 20.25 2.25 2.25h0.8992c0.225 0.6749 0.4505 1.574 0.6754 2.249h-3.826zm-51.68 48.4v7.808l4.435-2.216-2.249-4.5z"/>
 <rect id="rect6" style="opacity:.1;color-rendering:auto;color:#000000;isolation:auto;mix-blend-mode:normal;paint-order:stroke fill markers;shape-rendering:auto;solid-color:#000000;image-rendering:auto;stroke-width:2.59;fill:#fff" height="48.45" width="248" y="75.44" x="1.294e-7"/>
 <path id="path8" style="color:#000000;stroke-width:10.02;fill:#eaeaea" d="m443.6 0l-20.7 74.72c-29.2 8.82-56.3 22.52-80.3 40.08l-125.5-67.68 67.7 125.6c-17.6 24-31.3 51.1-40.1 80.2l-244.7 67.8v18.6l244.7 67.8c5 16.8 11.8 32.9 19.9 48.1l49.9-50c-9.4-23.2-14.6-48.6-14.6-75.2 0-110.4 89.6-200 200-200 110.5 0 200.1 89.5 200.1 200 0 71.8-37.8 134.7-94.6 170h116.6l-6.9-12.7c17.6-24 31.3-51.1 40.1-80.2l244.8-67.8v-18.6l-244.9-67.8c-8.8-29.1-22.4-56.2-40.1-80.2l67.8-125.6-125.6 67.7c-24-17.61-51.1-31.31-80.2-40.13l-20.7-74.67h-112.7z" transform="scale(.2480)"/>
 <path id="path10" style="stroke-width:10.02;fill:#eaeaea" d="m505.9 212.2c-31.1-0.3-62.3 11.5-86 35.2-20.7 20.7-32.2 47.1-34.7 74.2-1 10.9-0.5 21.9 1.5 32.8l-145.6 145.6h199.2c17.5-17.5 35.9-36 48.5-48.6 11.6 1.6 23.2 1.5 34.7-0.3 24.3-3.8 47.7-14.9 66.4-33.7 25.8-25.7 37.4-60.3 34.8-94v0.1c-1.4-18.4-17.6-22-30.6-8.9l-45.5 45.4c-10.5 10.7-27.8 10.6-38.4 0l-29.4-29.4c-10.7-10.7-10.6-27.9 0-38.6l47-46.9c13-13.1 9.7-29.9-8.6-32.1-4.4-0.5-8.8-0.8-13.3-0.8z" transform="scale(.2480)"/>
</svg>
